<svg width="24" height="25" viewBox="0 0 24 25" fill="none" xmlns="http://www.w3.org/2000/svg">
<path fill-rule="evenodd" clip-rule="evenodd" d="M11.6484 20.2961C11.4234 20.5211 11.1182 20.6475 10.8 20.6475C10.4818 20.6475 10.1766 20.5211 9.95161 20.2961L2.75161 13.0961C2.52665 12.8711 2.40027 12.5659 2.40027 12.2477C2.40027 11.9295 2.52665 11.6244 2.75161 11.3993L9.95161 4.19933C10.1779 3.98074 10.4811 3.85978 10.7957 3.86252C11.1103 3.86525 11.4113 3.99145 11.6338 4.21394C11.8563 4.43643 11.9825 4.73741 11.9852 5.05205C11.988 5.36668 11.867 5.6698 11.6484 5.89613L6.49681 11.0477H20.4C20.7183 11.0477 21.0235 11.1742 21.2485 11.3992C21.4736 11.6242 21.6 11.9295 21.6 12.2477C21.6 12.566 21.4736 12.8712 21.2485 13.0963C21.0235 13.3213 20.7183 13.4477 20.4 13.4477H6.49681L11.6484 18.5993C11.8734 18.8244 11.9998 19.1295 11.9998 19.4477C11.9998 19.7659 11.8734 20.0711 11.6484 20.2961Z" fill="#5B5B7E"/>
</svg>
