<svg width="150" height="129" viewBox="0 0 150 129" fill="none" xmlns="http://www.w3.org/2000/svg">
<mask id="mask0" style="mask-type:alpha" maskUnits="userSpaceOnUse" x="0" y="0" width="150" height="107">
<rect x="0.632019" y="0.20369" width="149.112" height="106.17" fill="#50BFA5"/>
</mask>
<g mask="url(#mask0)">
<path d="M-1.22182 96.6349C-1.22182 96.6349 0.0470153 48.5776 7.62522 47.5417C14.5342 46.5992 8.57273 65.1474 9.9087 68.7828C11.2447 72.4182 15.9114 56.2903 21.821 48.2869C27.7306 40.2835 32.4555 43.6256 29.6336 52.7481C26.9054 61.5693 14.2861 73.1728 17.5135 73.5861C20.7409 73.9995 36.6739 60.0803 39.8829 63.9887C43.817 68.7808 18.1217 81.6313 20.9646 82.312C23.8076 82.9927 35.9809 76.3695 36.541 80.5337C37.1012 84.6978 19.5096 88.1232 20.2133 89.8613C21.3489 92.6769 36.8658 84.3546 38.2796 88.282C39.7254 92.2995 18.3792 94.1285 19.3732 97.2876C19.945 99.104 39.8042 94.0259 40.8773 96.484C43.3243 102.088 -1.78354 111.338 -1.78354 111.338L-1.22182 96.6349Z" fill="#3C8F7C"/>
<circle cx="133.905" cy="0.20369" r="41.9006" fill="#96D9C9"/>
</g>
<path d="M91.2217 107.29C90.1829 100.938 71.9937 99.6074 71.9937 99.6074C71.9937 99.6074 78.3176 96.6612 74.6017 90.9929C70.8859 85.3246 46.6247 96 46.6247 96C46.6247 96 53.7194 88.0742 42.6244 87.6176C31.5294 87.161 0.632007 106.374 0.632007 106.374L91.2217 107.29Z" fill="#96D9C9"/>
</svg>
