<svg xmlns="http://www.w3.org/2000/svg" viewBox="0 0 216.26 253.64"><defs><style>.cls-1{fill:#46577f;}.cls-2{fill:#7ba0c3;}.cls-3{fill:#fad2c8;}.cls-4{fill:#efb3b1;}.cls-5{fill:#54110a;}.cls-6{fill:#698db7;}.cls-11,.cls-14,.cls-17,.cls-7{fill:none;}.cls-7{stroke:#467d9b;}.cls-11,.cls-14,.cls-7{stroke-linecap:round;stroke-linejoin:round;}.cls-8{fill:#f04848;}.cls-9{fill:#db3a46;}.cls-10{fill:#fc8172;}.cls-11,.cls-14{stroke:#54110a;}.cls-12{fill:#76563f;}.cls-13{fill:#937e54;}.cls-14,.cls-17{stroke-width:2px;}.cls-15{fill:#d66454;}.cls-16{fill:#fff;}.cls-17{stroke:#108e90;stroke-miterlimit:10;}.cls-18{fill:#f7b9b6;}.cls-19{fill:#467d9b;}</style></defs><g id="Layer_2" data-name="Layer 2"><g id="OBJECTS"><path class="cls-1" d="M169.17,247.93c5.13-1.81,28.83-19.77,27.22-25.91a2.47,2.47,0,0,0-.93-1.39c-2.12-1.57-7.85-.09-13,1.78s-9.83,4.15-9.83,4.15l-9.17,10.9s.36,6.92,2.69,9.6A2.59,2.59,0,0,0,169.17,247.93Z"/><path class="cls-2" d="M169.17,247.93c5.13-1.81,28.83-19.77,27.22-25.91a2.47,2.47,0,0,0-.93-1.39c-3.2,5.11-12.13,17.06-29.34,26.43A2.59,2.59,0,0,0,169.17,247.93Z"/><path class="cls-2" d="M175.9,230.48a9.91,9.91,0,0,1,.29-5.9.9.9,0,0,1,1.76.34,10.3,10.3,0,0,0-.17,4.84C178.15,231,176.3,231.76,175.9,230.48Z"/><path class="cls-2" d="M179.06,228.89a17.25,17.25,0,0,1,.49-5.55,1,1,0,0,1,1.87.36,17.63,17.63,0,0,0-.32,5A1,1,0,1,1,179.06,228.89Z"/><path class="cls-2" d="M182.47,227.85a13.63,13.63,0,0,1,.5-6,.72.72,0,0,1,1.37.26c.13,1.88-.14,3.73,0,5.61A1,1,0,1,1,182.47,227.85Z"/><path class="cls-3" d="M174.43,225.71c-3.27,5.42-6.26,8.95-11,12,0,0-5.89-7.34-11.85-14.62s-12-14.5-12-14.5l-2-2.32,0-.06L127.9,194.8,143.57,181l9.09,12.83.07.08,1.75,2.5,10,14.6Z"/><path class="cls-4" d="M152.73,193.94a135.89,135.89,0,0,1-15.11,12.38l0-.06L127.9,194.8,143.57,181l9.09,12.83Z"/><path class="cls-1" d="M84.2,247.57c-5.29,2.94-37.76,9.61-41.72,3.71a2.67,2.67,0,0,1-.47-1.8c.25-2.93,5.69-6.63,11.07-9.59s10.71-5.16,10.71-5.16l15.87.34s5.52,5.39,6,9.31A2.9,2.9,0,0,1,84.2,247.57Z"/><path class="cls-2" d="M84.2,247.57c-5.29,2.94-37.76,9.61-41.72,3.71a2.67,2.67,0,0,1-.47-1.8c6.63,1.09,23.19,2.4,43.7-5.1A2.9,2.9,0,0,1,84.2,247.57Z"/><path class="cls-2" d="M64.64,240.36a11.07,11.07,0,0,0-5.15-4.1c-1.16-.53-2.18,1-1,1.72a11.59,11.59,0,0,1,4.17,3.43C63.45,242.66,65.42,241.65,64.64,240.36Z"/><path class="cls-2" d="M61,241.84a19.18,19.18,0,0,0-5-3.68c-1.24-.62-2.32,1.13-1.08,1.84a19.64,19.64,0,0,1,4.44,3.42A1.14,1.14,0,1,0,61,241.84Z"/><path class="cls-2" d="M57.61,243.93c-1.5-1.55-3.37-3.32-5.42-4a.81.81,0,0,0-.79,1.34c1.47,1.48,3.22,2.62,4.67,4.16A1.07,1.07,0,1,0,57.61,243.93Z"/><path class="cls-3" d="M61.73,235.62a42.78,42.78,0,0,0,13.54.63,30.52,30.52,0,0,0,3.17-.59c.23,0,1.34-.17,1.48-.38,0-.05,0-.22,0-.28a5.9,5.9,0,0,0-.26-1.49c-.18-1-.35-2-.53-3.06-.8-4.66-1.58-9.32-2.31-14-.38-2.4-.84-4.81-1.08-7.23a3.19,3.19,0,0,1,0-1.34,2.77,2.77,0,0,1,.82-1c1.37-1.33,2.6-2.79,4-4.08a60,60,0,0,1,5-4.06c-4.66-6.18-9.32-12.4-13.61-18.83-5.75,5-11.41,10.8-14.93,17.61a20.24,20.24,0,0,0-2.18,6.27c-.39,2.52.25,5,.79,7.45,1.16,5.21,2.49,10.38,3.82,15.55C60.18,229.75,60.94,232.69,61.73,235.62Z"/><path class="cls-4" d="M59.54,193.36c5.26,5,11.22,9.21,17.05,13.51l0,0s.37-.44,1.06-1.18,1.74-1.78,2.91-2.84S83,200.71,84,200s1.57-1.19,1.57-1.19-3.5-4.64-6.91-9.34c-1.7-2.35-3.39-4.72-4.64-6.5s-2.06-3-2.06-3l-.62.53c-.38.34-.91.81-1.53,1.39-1.25,1.16-2.86,2.74-4.4,4.39s-3,3.38-4.06,4.73-1.7,2.29-1.7,2.29Z"/><path class="cls-3" d="M24.26,90.27s1.21-2.56,2.32-5.06,2.06-5,1-5.42-2.51.65-3.63,1.88A17.39,17.39,0,0,0,22,84.27s-.47-2.9-1.11-5.83-1.52-5.88-3.09-6c-1.08-.12-1.49,1.91-1.5,4.06a27.39,27.39,0,0,0,.34,4.32s-1.06-2.06-2.32-4.1-2.72-4-4-3.73-1.09,2.8-.47,5.14a30,30,0,0,0,1.62,4.55S9.88,81,8.14,79.36s-3.63-3.22-4.4-2.61c-1.39,1.13-.59,3.63.62,5.72A23.1,23.1,0,0,0,7.19,86.3a31.24,31.24,0,0,0-2.86-2.18c-1.52-1-3.23-1.88-4.07-1s.53,3.4,2.2,5.58a37.25,37.25,0,0,0,3.65,4.06,11.92,11.92,0,0,0,1.06,3.14,7.23,7.23,0,0,0,4.55,4c2.23.53,5.15-.93,7.59-3S23.8,92.26,24.26,90.27Z"/><path class="cls-5" d="M21.19,84.42a6.05,6.05,0,0,0-4.05.68,5.1,5.1,0,0,0-.89.63,5.44,5.44,0,0,0-1.66,2.61.48.48,0,0,0,.33.59.46.46,0,0,0,.58-.32,4.64,4.64,0,0,1,1.37-2.18,4.25,4.25,0,0,1,.73-.53A5.07,5.07,0,0,1,21,85.3a.5.5,0,0,0,.56-.36A.43.43,0,0,0,21.19,84.42Z"/><path class="cls-3" d="M63.22,105.68l4.46,14.75.63,2.08c-9.4,2.35-19.47,3-29,1.06-11.86-2.48-20.9-12.35-26.82-22.37-.17-.28-.82-1.12-.68-1.37s.72-.47.95-.62l4.07-2.68C19,95.1,21.2,93.69,23.4,92.26c3.42,5.32,7.72,10.49,13.32,13.6a19.22,19.22,0,0,0,4.17,1.79,20.7,20.7,0,0,0,4.58.54,51.17,51.17,0,0,0,9.09-.48A52.37,52.37,0,0,0,63.22,105.68Z"/><path class="cls-4" d="M63.22,105.68l5.09,16.83-2,.49c-1.17.27-2.73.61-4.28.84-3.09.5-6.15.69-6.15.69l-1.59-16.79s2.32-.31,4.56-.83c1.12-.24,2.21-.56,3-.8Z"/><path class="cls-3" d="M190.43,63.66s-.09-3,0-5.91.42-5.79,1.64-5.76,2.09,1.71,2.59,3.39a18.46,18.46,0,0,1,.63,3.35l1.14-1.62c.68-1,1.66-2.23,2.65-3.49,2-2.49,4.23-4.87,5.78-4.27,1.06.39.47,2.5-.54,4.51a27.54,27.54,0,0,1-1.54,2.71c-.46.72-.79,1.2-.79,1.2s.48-.37,1.23-.9S205,55.64,206.07,55c2.14-1.3,4.45-2.47,5.46-1.61s-.33,3.11-2,5a29.74,29.74,0,0,1-2.42,2.45c-.69.63-1.17,1-1.17,1l1.42-.5c.86-.28,2-.65,3.2-1,2.37-.66,4.87-1.27,5.3-.33a2.56,2.56,0,0,1-.54,2.61A10.74,10.74,0,0,1,212.69,65a27.8,27.8,0,0,1-2.93,1.62c-.82.39-1.39.59-1.39.59s.44-.11,1.12-.25a24.55,24.55,0,0,1,2.49-.44c1.87-.21,3.84-.21,4.23,1s-2,2.85-4.47,4.07c-1.24.61-2.49,1.15-3.44,1.5s-1.6.56-1.6.56a12.19,12.19,0,0,1-2.2,2.43,7.21,7.21,0,0,1-5.67,1.8c-2.29-.44-4.58-2.93-6.2-5.83S190,65.83,190.43,63.66Z"/><path class="cls-5" d="M196,59.22a6.14,6.14,0,0,1,3.55,2.41,6.06,6.06,0,0,1,.57,1,5.68,5.68,0,0,1,.42,3.18.49.49,0,0,1-1-.14,4.85,4.85,0,0,0-.35-2.66,5.07,5.07,0,0,0-.46-.82,5.2,5.2,0,0,0-3-2,.49.49,0,0,1-.37-.58A.45.45,0,0,1,196,59.22Z"/><path class="cls-3" d="M142.41,88.25l4.7,17.72,5.62-1.88,2.06-.69c.66-.22,1.24-.49,1.75-.69l1.71-.69,1.92-.78,2.2-.9c.84-.35,1.76-.82,2.78-1.29,2-1,4.43-2,6.86-3.4l3.78-2c1.29-.69,2.53-1.5,3.8-2.25s2.55-1.51,3.76-2.31l3.55-2.36,1.69-1.13,1.57-1.13L193,82.34c1.78-1.29,3.19-2.46,4.21-3.24l1.58-1.24L190.44,66s-.54.41-1.53,1.07-2.38,1.64-4.09,2.74c-3.44,2.18-8,5-12.86,7.45-1.21.61-2.38,1.27-3.59,1.82l-3.53,1.61c-2.26,1.1-4.48,1.87-6.33,2.63-.94.36-1.78.72-2.55,1l-2,.65-1.74.57-1.52.5c-.46.15-1,.35-1.56.5l-1.81.47Z"/><path class="cls-4" d="M142.41,88.25l4.7,17.72,5.62-1.88,2.06-.69c.66-.22,1.24-.49,1.75-.69l1.71-.69-6-16.52-1.52.5c-.46.15-1,.35-1.56.5l-1.81.47Z"/><path class="cls-2" d="M154.07,186.55c-7.23,7.65-17.42,12.92-29.58,16.61L108.28,188l-13.5,14.46-2.82,3c-9.69-2.12-20.58-10.42-31.7-19.85L63.65,182l15.6-16.49,1.84-1.94,54.7-4.23.49.71Z"/><path class="cls-6" d="M136.28,160.07c-6.67,3-34.17,14.32-57,5.46l1.84-1.94,54.7-4.23Z"/><line class="cls-7" x1="106.3" y1="159.36" x2="108.25" y2="186.98"/><path class="cls-7" d="M107.76,178.24s3.88.37,4.26-3.12-1.42-16.5-1.42-16.5"/><path class="cls-7" d="M130.59,157.59s3.88,12.25,9.72,9.8"/><path class="cls-7" d="M85.53,160.89c.09.37-4.44,12.07-10,9.71"/><path class="cls-8" d="M134.33,148l1.46,11.41c-15.72,5.43-34.25,6.36-54.7,4.23l2-23.18.89-10.64-20.21,3.67L58.41,104l15-3.53,67.22-15.8,8.87-2.09L154.18,111l-23.61,7.69Z"/><path class="cls-9" d="M140.64,84.7c-4.15,6.75-16.11,17.76-34.42,22.49a37,37,0,0,1-32.8-6.69Z"/><path class="cls-10" d="M104.77,105.65c.49-.74-12.34-.84-14.06,3.69,0,0-3.28-13.76,1.37-16.78s8.31,1.7,8.31,1.7Z"/><path class="cls-10" d="M106.3,105.32s1.39-13.8,2.25-14.18,7.36-1.33,9.09.64,3.91,12,3.91,12A19.42,19.42,0,0,0,106.3,105.32Z"/><path class="cls-4" d="M93.21,95.42s6.16,10.3,11.56,10.23,9.78-11.9,9.78-11.9Z"/><path class="cls-4" d="M150.8,64.75c.62,4.73-3,9.6-8.15,10.87s-9.77-1.54-10.38-6.28,3-9.6,8.15-10.87S150.18,60,150.8,64.75Z"/><path class="cls-11" d="M136.34,71.05c.34-.66,1.79-9,10.32-5.53"/><path class="cls-11" d="M144,70.79s-1.72-4.87-5.62-4"/><path class="cls-3" d="M140,43.07A42.59,42.59,0,1,0,59.83,67.66a36.22,36.22,0,0,1,3.63,13.11c.81,8.23,8,20.83,40.17,17,32.77-3.93,37.14-16.41,35.88-24.61a50.57,50.57,0,0,1,0-17A42.44,42.44,0,0,0,140,43.07Z"/><path class="cls-4" d="M63.06,74s8.84-23.26,6-34.08c0,0,36.25,3.29,56.94-6.46,0,0,11.11,14.91,13.49,22.65,0,0,2.91-32.62-8.82-37.27S69.06,17,65.59,22.3,54.22,62.67,63.06,74Z"/><path class="cls-12" d="M139.08,59.19c-.4-6.2-10.47-31.32-10.47-31.32-43.45,11.07-64.8,6.36-64.8,6.36,6.22,17.6-1.18,41.3-1.18,41.3-26-31.32-6.09-46.62-6.09-46.62A24.72,24.72,0,0,1,58.61,15.1C62.77,6.36,74.09-2.69,104,.74c29.56,3.4,37.25,20.67,38.17,35.56A63.9,63.9,0,0,1,139.08,59.19Z"/><path class="cls-13" d="M142.15,36.3c-5.3-11.6-16.78-22.6-43.5-28.06-22-4.49-34,1.46-40,6.86C62.77,6.36,74.09-2.69,104,.74,133.54,4.14,141.23,21.41,142.15,36.3Z"/><path class="cls-5" d="M88.77,72.38c.3,1.76-.39,3.34-1.54,3.54s-2.33-1.07-2.63-2.83.39-3.34,1.55-3.53S88.48,70.62,88.77,72.38Z"/><path class="cls-5" d="M123.19,67.1c-.06,1.78-1.06,3.2-2.23,3.16s-2.07-1.51-2-3.3,1.06-3.19,2.22-3.15S123.24,65.32,123.19,67.1Z"/><path class="cls-14" d="M116,45.86s5.18-6,13.59.13"/><path class="cls-14" d="M85.42,52.39s-6.27-4.88-13.3,2.82"/><path class="cls-5" d="M114.93,89.17c-1.4,2.09-4,3.79-8.6,4-5,.3-7.69-1.4-9-3.66a9,9,0,0,1-.39-8c.36-.75.83-1.19,1.27-1.11,1.89.32,14.47,0,16-.58a.74.74,0,0,1,.79.22C116.19,81.23,117.22,85.73,114.93,89.17Z"/><path class="cls-15" d="M114.93,89.17c-1.4,2.09-4,3.79-8.6,4-5,.3-7.69-1.4-9-3.66a15.46,15.46,0,0,1,7.24-3.85,11.05,11.05,0,0,1,9.52,2.56A10.73,10.73,0,0,1,114.93,89.17Z"/><path class="cls-16" d="M114.92,80.14a5,5,0,0,1-1.72,1.41A16.46,16.46,0,0,1,108.68,83a19.64,19.64,0,0,1-7.59.39,10.62,10.62,0,0,1-4.19-1.78c.36-.75.83-1.19,1.27-1.11,1.89.32,14.47,0,16-.58A.74.74,0,0,1,114.92,80.14Z"/><circle class="cls-17" cx="123.93" cy="65.4" r="14.8" transform="translate(-4.95 10.39) rotate(-4.71)"/><circle class="cls-17" cx="84.62" cy="70.98" r="14.8" transform="translate(-3.99 5.05) rotate(-3.34)"/><path class="cls-17" d="M97.93,63.26s3.87-5.23,11.62-1.34"/><line class="cls-17" x1="69.85" y1="69.29" x2="60.08" y2="73.72"/><path class="cls-3" d="M50.32,84.44c2.35,4.16,8.18,5.87,13,3.82s6.9-7.08,4.56-11.24-8.18-5.87-13-3.82S48,80.28,50.32,84.44Z"/><path class="cls-11" d="M64.15,80.08c-.66-.32-6.49-4.38-10.61,2.22"/><path class="cls-11" d="M58.78,84.86S57,80.28,60.69,78.64"/><path class="cls-18" d="M135.41,69.48c.47,1.91-1.82,4.13-5.11,5s-6.36-.07-6.84-2,1.82-4.13,5.11-5S134.93,67.56,135.41,69.48Z"/><path class="cls-18" d="M88.74,79.14c.15,2-2.49,3.77-5.87,4S76.61,82,76.47,80s2.48-3.76,5.87-4S88.6,77.17,88.74,79.14Z"/><path class="cls-11" d="M106,69.32,107.15,74s3.06-1.05,3.83.32-2.16,2.84-2.16,2.84"/><path class="cls-19" d="M121.51,200.37l3,2.79s12.61.21,29.58-16.61l-2.33-3.46C150.37,186,131.42,199.63,121.51,200.37Z"/><path class="cls-19" d="M94.78,202.44l-2.82,3c-9.69-2.12-20.58-10.42-31.7-19.85L63.65,182C69.23,187,83.76,199.21,94.78,202.44Z"/><path class="cls-9" d="M130.6,117.64c-1.72-5.49-3.41-10.8-2.84-16.65,0-.24-.38-.3-.42-.06a30.65,30.65,0,0,0,2.37,17C129.93,118.42,130.78,118.23,130.6,117.64Z"/><path class="cls-9" d="M132.69,100.33a54.52,54.52,0,0,0-1.15,14,.37.37,0,0,0,.74,0c.17-4.67.37-9.3.78-14C133.08,100.17,132.74,100.13,132.69,100.33Z"/><path class="cls-9" d="M80,107.47c-.17-.37-.78-.11-.65.28,2,6,3.66,11.6,3.55,18a.61.61,0,0,0,1.22,0A43.51,43.51,0,0,0,80,107.47Z"/><path class="cls-9" d="M87,113.85c0-.11-.17-.07-.18,0a86.44,86.44,0,0,1-1.85,11.78.46.46,0,0,0,.89.25A24.59,24.59,0,0,0,87,113.85Z"/><path class="cls-9" d="M134.33,148a65.18,65.18,0,0,1-24.51,2.6c-9.64-.83-19.62-3.65-26.78-10.14l-2,23.18c20.45,2.13,39,1.2,54.7-4.23Z"/></g></g></svg>