<svg width="217" height="255" viewBox="0 0 217 255" fill="none" xmlns="http://www.w3.org/2000/svg">
<path d="M147.125 247.672C146.481 247.79 145.817 247.68 145.246 247.362C142.597 245.999 141.366 240.212 141.075 234.679C141.075 234.068 141.018 233.467 141.009 232.885C140.927 229.966 141.031 227.044 141.319 224.138C141.319 224.138 143.057 221.057 144.673 217.938C146.289 214.819 147.801 211.69 147.801 211.69L148.027 211.597C148.487 211.418 149.605 210.967 150.986 210.535C151.905 210.238 152.848 210.021 153.804 209.887C154.677 209.739 155.569 209.758 156.435 209.943C156.958 210.055 157.429 210.34 157.77 210.753C158.111 211.166 158.302 211.681 158.314 212.217C158.802 217.496 154.049 246.516 147.125 247.672Z" fill="#CE3C66"/>
<path d="M158.314 212.179C158.802 217.496 154.049 246.516 147.125 247.625C146.481 247.743 145.817 247.633 145.246 247.315C148.084 243.224 150.321 238.747 151.888 234.021C154.505 226.228 156.025 218.108 156.407 209.896C156.936 210.004 157.413 210.289 157.759 210.704C158.106 211.119 158.301 211.639 158.314 212.179V212.179Z" fill="#F794AA"/>
<path d="M147.651 213.428C147.491 214.039 147.322 214.65 147.125 215.26C146.727 216.544 146.244 217.799 145.678 219.018C144.46 221.541 142.96 223.917 141.206 226.102C137.305 225.228 133.5 223.969 129.848 222.344C122.734 219.148 116.676 213.993 112.384 207.482C111.152 205.676 110.038 203.793 109.048 201.845C107.057 198.012 105.441 193.982 103.844 189.989C109.293 188.505 114.742 187.011 120.19 185.47L123.075 184.672C123.648 184.502 123.676 184.352 123.864 184.935C124.737 187.565 125.489 190.214 126.494 192.807C127.619 195.923 129.168 198.87 131.098 201.563C131.803 202.489 132.582 203.356 133.427 204.156C135.705 206.186 138.301 207.827 141.112 209.013C142.399 209.577 143.733 210.084 145.058 210.554C145.687 210.779 146.336 210.958 146.937 211.155C147.115 211.211 147.942 211.352 148.036 211.512C148.13 211.672 147.735 213.081 147.651 213.428Z" fill="#FAD2C8"/>
<path d="M131.098 201.554C124.043 204.406 116.174 204.507 109.048 201.836C107.057 198.003 105.441 193.972 103.844 189.98C109.293 188.495 114.742 187.001 120.19 185.461L123.075 184.662C123.648 184.493 123.676 184.343 123.864 184.925C124.737 187.556 125.489 190.205 126.494 192.798C127.619 195.914 129.168 198.86 131.098 201.554V201.554Z" fill="#EFB3B1"/>
<path d="M85.9754 71.9178C66.6883 69.5409 56.8522 73.994 48.397 81.2372L50.0787 83.4731C53.3276 81.3487 56.7914 79.5727 60.4127 78.1746C57.5943 80.6172 54.2123 83.1067 52.0421 86.376L54.7102 90.1339C56.7275 88.2028 58.9302 86.4753 61.2864 84.9762C59.3231 87.2028 57.6732 89.6872 56.3824 92.3604L59.2008 96.2028C61.2864 93.3844 61.9064 92.708 65.8522 90.1808C64.1946 93.4006 62.9178 96.8024 62.0474 100.318L65.3449 104.752C69.1873 94.8124 77.4639 83.6046 85.9754 71.9178Z" fill="#F8931D"/>
<path d="M140.088 83.0316C158.652 86.4888 166.468 93.4972 172.161 102.676L169.935 104.254C167.542 101.329 164.846 98.6649 161.893 96.3062C163.772 99.397 166.186 102.694 167.239 106.358L163.669 109.055C162.367 106.679 160.838 104.436 159.103 102.356C160.265 104.992 161.065 107.773 161.48 110.624L157.722 113.367C156.604 110.182 156.247 109.336 153.335 105.851C153.923 109.316 154.109 112.837 153.889 116.345L149.53 119.483C148.919 109.139 144.513 96.3343 140.088 83.0316Z" fill="#F8931D"/>
<path d="M109.584 248.79C105.131 250.875 78.4972 254.163 75.6695 249.259C75.4062 248.816 75.3096 248.293 75.397 247.784C75.7728 245.455 80.3855 242.787 84.9043 240.71C89.4231 238.634 93.848 237.15 93.848 237.15L106.662 238.343L106.822 238.531C107.583 239.47 110.815 243.425 110.993 246.281C111.065 246.796 110.966 247.32 110.711 247.773C110.457 248.226 110.061 248.583 109.584 248.79V248.79Z" fill="#CE3C66"/>
<path d="M106.822 238.531C106.08 238.897 91.9973 245.605 84.9044 240.71C89.4232 238.634 93.848 237.15 93.848 237.15L106.662 238.343L106.822 238.531Z" fill="#FAD2C8"/>
<path d="M109.584 248.79C105.131 250.875 78.4972 254.163 75.6695 249.259C75.4062 248.816 75.3096 248.293 75.397 247.784C80.6862 249.024 93.9795 251.101 111.002 246.281C111.073 246.797 110.973 247.322 110.717 247.775C110.46 248.228 110.062 248.585 109.584 248.79V248.79Z" fill="#F794AA"/>
<path d="M106.85 238.521C101.833 239.555 97.6716 239.17 92.1382 237.751C92.1382 237.751 90.6069 229.916 89.2447 222.043C87.8825 214.171 86.7645 206.213 86.7645 206.213L86.3887 203.517V203.433C86.3887 203.433 86.3887 203.226 86.323 202.86C86.1821 201.732 85.8532 199.045 85.515 196.368C85.1205 192.836 84.7353 189.303 84.7353 189.303L103.524 189.2L103.694 195.842C103.694 196.781 103.769 197.777 103.797 198.66C103.891 200.802 103.947 202.474 103.947 202.474V202.531L104.069 205.208C104.069 205.208 104.483 213.447 105.215 221.771C105.948 230.094 106.85 238.521 106.85 238.521Z" fill="#FAD2C8"/>
<path d="M103.835 198.613C101.26 198.613 98.752 199.844 96.3188 200.755C93.1226 201.942 89.7652 202.639 86.3606 202.822C86.2197 201.694 85.8908 199.008 85.5526 196.33C85.1581 192.798 84.7729 189.265 84.7729 189.265L103.562 189.162L103.731 195.804C103.769 196.772 103.769 197.739 103.835 198.613Z" fill="#EFB3B1"/>
<path d="M164.552 117.82C164.552 117.82 164.777 115.095 165.266 112.418C165.754 109.74 166.515 107.119 167.68 107.298C170.029 107.655 169.625 113.818 169.625 113.818C169.625 113.818 171.616 111.638 173.909 109.637C176.201 107.636 178.803 105.879 180.1 106.64C180.983 107.185 179.94 108.979 178.662 110.633C177.779 111.737 176.839 112.794 175.844 113.799C177.19 113.098 178.573 112.471 179.987 111.92C182.148 111.112 184.468 110.529 185.163 111.535C185.859 112.54 184.224 114.175 182.486 115.546C181.289 116.456 180.033 117.288 178.728 118.036C178.728 118.036 180.861 117.66 183.04 117.481C185.22 117.303 187.456 117.359 187.662 118.261C188.038 119.877 186.159 121.08 184.186 121.944C182.878 122.468 181.526 122.877 180.147 123.165C180.147 123.165 186.516 122.573 186.873 124.79C187.052 125.899 184.835 126.876 182.561 127.543C181.057 127.98 179.529 128.335 177.986 128.605C177.359 129.328 176.635 129.96 175.835 130.484C175.102 131.005 174.264 131.36 173.379 131.522C172.494 131.685 171.585 131.651 170.715 131.423C166.825 130.174 163.34 121.653 164.552 117.82Z" fill="#FAD2C8"/>
<path d="M170.198 114.334C171.448 114.819 172.477 115.745 173.091 116.937C173.698 118.137 173.829 119.523 173.458 120.817C173.442 120.873 173.416 120.926 173.381 120.972C173.345 121.018 173.3 121.056 173.25 121.085C173.199 121.114 173.143 121.132 173.085 121.14C173.028 121.147 172.969 121.142 172.913 121.127C172.856 121.111 172.802 121.085 172.755 121.049C172.708 121.012 172.669 120.967 172.64 120.915C172.611 120.864 172.593 120.807 172.587 120.748C172.58 120.689 172.586 120.629 172.603 120.572C172.823 119.776 172.823 118.935 172.603 118.139C172.527 117.863 172.424 117.595 172.293 117.341C171.783 116.342 170.923 115.567 169.878 115.161C169.768 115.119 169.679 115.035 169.63 114.928C169.581 114.821 169.576 114.699 169.615 114.588C169.636 114.532 169.668 114.482 169.709 114.439C169.749 114.396 169.798 114.361 169.853 114.338C169.907 114.314 169.966 114.301 170.025 114.301C170.084 114.3 170.143 114.312 170.198 114.334V114.334Z" fill="#54110A"/>
<path d="M132.507 106.274L118.64 115.443C120.302 117.947 122.135 120.333 124.127 122.583C125.921 124.762 127.781 126.895 129.764 128.943C134.649 134.11 140.586 139.756 147.867 140.977C153.588 141.917 158.859 138.864 163.584 135.989C164.524 135.388 165.538 134.796 166.506 134.185L168.92 132.644C169.221 132.447 170.799 131.705 170.799 131.395C170.799 131.226 170.395 130.681 170.32 130.54L169.277 128.661L164.307 119.905C160.954 121.784 157.581 123.757 154.058 125.326C152.226 126.153 150.695 126.81 148.788 125.796C147.224 124.866 145.816 123.696 144.616 122.329C140.024 117.42 135.965 112.038 132.507 106.274V106.274Z" fill="#FAD2C8"/>
<path d="M132.507 106.274L118.64 115.443C118.706 115.565 120.247 117.688 121.872 119.755C123.497 121.822 125.188 123.851 125.188 123.851L137.702 113.968C137.702 113.968 136.321 112.089 135.015 110.135C134.358 109.196 133.719 108.19 133.249 107.458L132.507 106.274Z" fill="#EFB3B1"/>
<path d="M54.6914 65.7549C54.6914 65.7549 55.443 62.9929 56.0254 60.2027C56.6079 57.4125 56.9649 54.6505 55.753 54.4062C54.5411 54.1619 53.4137 55.5429 52.5776 57.0085C52.0387 57.9719 51.586 58.981 51.2248 60.0242C51.2248 60.0242 50.9617 59.3008 50.5202 58.2298C50.0787 57.1588 49.468 55.759 48.801 54.3498C47.4294 51.5315 45.8417 48.807 44.2634 49.0325C43.1736 49.1734 43.3239 51.2966 43.8125 53.4104C44.1596 54.8404 44.6085 56.2438 45.1559 57.6098C45.1559 57.6098 43.6528 55.7966 41.9335 54.0868C40.2143 52.377 38.2697 50.7987 37.1423 51.4093C36.015 52.02 36.7947 54.3874 37.9315 56.52C38.7015 57.9289 39.5745 59.2791 40.5432 60.5597C40.5432 60.5597 38.5891 59.3008 36.5317 58.1452C34.4742 56.9897 32.2383 55.9375 31.6371 56.7173C30.5567 58.1452 31.9001 60.3154 33.516 62.0346C34.6025 63.149 35.7915 64.1587 37.0672 65.0503C36.0276 64.4971 34.9509 64.0168 33.8448 63.6129C32.1538 63.021 30.3124 62.5983 29.683 63.6223C29.0536 64.6463 30.9137 66.6943 32.9335 68.3947C33.9669 69.2309 35.0285 70.0012 35.8271 70.5461C36.6256 71.091 37.1893 71.4856 37.1893 71.4856C37.5716 72.4639 38.0835 73.3866 38.7112 74.2288C39.2678 75.0477 39.9986 75.7335 40.8513 76.237C41.704 76.7405 42.6574 77.0492 43.6434 77.1411C48.04 77.3854 54.4753 69.9355 54.6914 65.7549Z" fill="#FAD2C8"/>
<path d="M50.4638 60.3154C49.0433 60.3194 47.672 60.8365 46.6027 61.7716C45.5283 62.7215 44.8564 64.0451 44.7238 65.4731C44.7336 65.5851 44.7824 65.69 44.8619 65.7696C44.9413 65.8492 45.0461 65.8984 45.1581 65.9084C45.2701 65.9185 45.382 65.8889 45.4744 65.8248C45.5667 65.7606 45.6336 65.6661 45.6632 65.5576C45.734 64.6784 46.0606 63.8391 46.6027 63.1432C46.7815 62.8965 46.9898 62.6726 47.2227 62.4762C48.1081 61.6884 49.2506 61.2508 50.4357 61.2455C50.5595 61.2456 50.6787 61.1977 50.768 61.1119C50.8573 61.026 50.9099 60.9089 50.9148 60.7852C50.9187 60.724 50.9099 60.6628 50.8889 60.6053C50.8678 60.5478 50.8351 60.4952 50.7927 60.4511C50.7503 60.4069 50.6991 60.372 50.6425 60.3487C50.5859 60.3253 50.5251 60.314 50.4638 60.3154V60.3154Z" fill="#54110A"/>
<path d="M94.2802 98.2977C92.2885 103.045 90.2937 107.793 88.2958 112.54C88.0046 113.226 87.7227 113.902 87.4409 114.588C85.7499 113.733 84.0307 112.906 82.3584 112.023C81.7196 111.685 81.0902 111.347 80.4795 110.99C78.6006 109.881 76.7217 108.669 74.8428 107.495C69.206 103.925 64.0766 99.3123 59.229 94.7372C54.3693 90.0309 49.825 85.0096 45.6256 79.7058C45.2404 79.2267 44.8646 78.7664 44.4889 78.2685C44.3949 78.1463 43.6246 77.329 43.6433 77.1599C43.6621 76.9908 43.9909 76.8311 44.0943 76.7465L47.2603 73.9282C49.5713 71.8989 51.873 69.8791 54.1935 67.8687C62.8928 77.9772 73.0296 87.3342 84.754 93.7883L85.609 94.2674C88.4461 95.7706 91.3303 97.0388 94.2802 98.2977Z" fill="#FAD2C8"/>
<path d="M94.2802 98.2977C92.2885 103.045 90.2937 107.793 88.2958 112.54C88.0046 113.226 87.7228 113.902 87.4409 114.588C85.7499 113.733 84.0307 112.906 82.3585 112.023C82.1376 109.71 82.1565 107.38 82.4148 105.071C82.8818 101.255 83.6642 97.4845 84.7541 93.7977L85.609 94.2769C88.4461 95.7706 91.3303 97.0389 94.2802 98.2977Z" fill="#EFB3B1"/>
<path d="M141.413 193.54L133.07 197.223C129.426 198.827 125.432 199.474 121.468 199.102C118.467 198.849 115.544 198.013 112.863 196.64C110.964 195.675 108.94 194.976 106.85 194.564C103.551 193.889 100.144 193.934 96.8637 194.696L88.6716 196.575C84.8624 197.453 80.8944 197.369 77.1257 196.33V196.33C75.5645 195.915 74.0526 195.332 72.6163 194.592L67.825 190.975L64.4524 188.486L69.0651 177.212L80.6487 149.029C80.6487 149.029 80.7238 148.672 80.8365 148.089C80.9963 147.262 81.2405 145.957 81.5693 144.265C82.7718 137.868 84.9796 126.134 86.8773 115.884C83.8804 110.746 85.9378 93.1777 85.9378 93.1777L87.1779 93.779C91.7831 96.0043 96.6991 97.5184 101.758 98.2696C101.758 98.2696 117.006 100.656 122.098 101.304C131.304 102.488 136.49 109.985 136.49 109.985L127.095 120.413C127.452 130.484 128.674 141.757 129.322 147.788C129.529 149.667 129.679 151.03 129.735 151.697C129.735 151.884 129.735 152.016 129.735 152.082L132.638 162.463L141.413 193.54Z" fill="#FE68A5"/>
<path d="M141.413 193.54L133.07 197.223C129.426 198.827 125.432 199.474 121.468 199.102C118.467 198.849 115.544 198.013 112.863 196.64C110.964 195.675 108.94 194.976 106.85 194.564C103.551 193.889 100.144 193.934 96.8637 194.696L88.6716 196.574C84.8624 197.453 80.8944 197.369 77.1257 196.33V196.33C75.5645 195.915 74.0526 195.332 72.6163 194.592L67.825 190.975L64.4524 188.486L69.0651 177.212C105.864 197.195 124.643 177.212 132.685 162.397L141.413 193.54Z" fill="#E55CA3"/>
<path d="M109.405 106.011C109.405 106.011 116.376 106.105 120.792 109.412C121.731 110.116 126.748 99.0212 118.509 96.7008C110.27 94.3803 98.4514 92.2853 95.5109 98.9179C92.2979 106.142 93.1904 106.565 94.2426 106.048C95.8021 105.269 104.088 104.733 105.789 105.344C106.954 105.745 108.173 105.97 109.405 106.011V106.011Z" fill="#FFD9E2"/>
<path d="M102.125 88.6589C102.237 89.7863 100.302 99.3876 100.302 99.3876L105.103 104.836C105.903 105.552 106.912 105.991 107.982 106.089C109.051 106.187 110.123 105.939 111.04 105.381L117.823 101.248L118.509 89.542L102.125 88.6589Z" fill="#EFB3B1"/>
<path d="M67.8626 61.1986C66.04 65.2852 68.0223 70.6495 72.2874 73.1673C76.5526 75.685 81.4941 74.4074 83.3167 70.3489C85.1392 66.2904 83.1664 60.8886 78.9012 58.3708C74.6361 55.8531 69.6945 57.1025 67.8626 61.1986Z" fill="#EFB3B1"/>
<path d="M78.8918 69.1746C78.7697 68.4982 78.5724 61.828 71.2916 62.4105" stroke="#54110A" stroke-linecap="round" stroke-linejoin="round"/>
<path d="M72.2874 67.8124C72.2874 67.8124 74.7676 63.9324 78.0463 65.7644" stroke="#54110A" stroke-linecap="round" stroke-linejoin="round"/>
<path d="M155.068 85.6534C159.773 83.7684 162.276 78.9644 160.657 74.9235C159.038 70.8825 153.912 69.1347 149.206 71.0197C144.5 72.9047 141.998 77.7086 143.617 81.7496C145.235 85.7906 150.362 87.5383 155.068 85.6534Z" fill="#EFB3B1"/>
<path d="M147.557 79.6401C148.008 79.114 151.512 73.4491 157.525 77.5827" stroke="#54110A" stroke-linecap="round" stroke-linejoin="round"/>
<path d="M153.973 81.7539C153.973 81.7539 153.757 77.16 150.009 77.0566" stroke="#54110A" stroke-linecap="round" stroke-linejoin="round"/>
<path d="M157.318 53.8895C158.27 48.1079 157.94 42.1878 156.352 36.5475C154.764 30.9073 151.957 25.6847 148.129 21.2487C144.301 16.8127 139.545 13.2717 134.198 10.8758C128.851 8.48002 123.042 7.28786 117.184 7.38364C111.325 7.47942 105.559 8.8608 100.293 11.4301C95.0267 13.9995 90.3892 17.6941 86.7081 22.2528C83.0269 26.8116 80.3919 32.1232 78.9894 37.8123C77.5868 43.5014 77.4509 49.4291 78.5912 55.1766C79.351 59.3038 79.2872 63.5407 78.4033 67.6432C76.9095 75.2528 79.8782 88.6401 110.157 93.6568C142.596 99.0211 148.75 87.3248 149.098 79.5085C149.328 75.0488 150.592 70.7037 152.79 66.8164C155.029 62.799 156.561 58.4263 157.318 53.8895V53.8895Z" fill="#FAD2C8"/>
<path d="M148.975 72.5097C148.759 71.1944 143.658 54.8948 145.471 44.185C145.471 44.185 117.194 40.5493 108.1 29.8395C108.1 29.8395 96.9952 36.97 90.325 36.8384C90.325 36.8384 86.8021 53.1193 78.8918 62.6923C78.8918 62.6923 71.9868 22.9626 100.499 19.1296C129.012 15.2967 150.648 23.1411 153.973 38.4919C157.299 53.8426 148.975 72.5097 148.975 72.5097Z" fill="#EFB3B1"/>
<path d="M112.384 19.8905C107.029 30.3279 86.6518 34.4145 86.6518 34.4145C86.8585 47.7548 78.8918 62.6922 78.8918 62.6922C78.8918 62.6922 70.1643 44.8425 76.919 26.2318C76.9941 26.0252 77.0787 25.8185 77.1632 25.6024C82.443 11.9615 94.7687 8.62639 103.468 10.1859C110.129 11.379 114.676 15.4093 112.384 19.8905Z" fill="#F8931D"/>
<path d="M160.587 53.6923C158.841 61.3078 154.867 68.2312 149.173 73.5806C147.172 62.2934 147.457 50.7194 150.009 39.544C150.009 39.544 105.723 32.5357 100.95 16.1891C100.748 15.5367 100.632 14.861 100.603 14.1786C99.8512 -0.326598 140.868 -2.0552 153.917 20.7549C161.151 33.4751 162.579 44.4762 160.587 53.6923Z" fill="#F8931D"/>
<path d="M160.587 53.6923C158.755 42.3436 153.072 24.5691 135.936 13.9907C118.8 3.41245 106.174 9.81955 100.565 14.1786C99.8136 -0.326598 140.83 -2.0552 153.879 20.7549C161.151 33.4751 162.579 44.4762 160.587 53.6923Z" fill="#FFB43B"/>
<path d="M103.468 10.1859L100.65 14.3665C96.1048 14.1345 91.5742 15.0447 87.4716 17.014C83.369 18.9833 79.825 21.9489 77.1632 25.64C82.443 11.9615 94.7687 8.62639 103.468 10.1859Z" fill="#FFB43B"/>
<path d="M99.8042 66.8259C99.5975 68.5733 98.7144 69.8697 97.8407 69.71C96.967 69.5503 96.4221 68.0002 96.6382 66.2528C96.8543 64.5054 97.7186 63.2089 98.5923 63.3687C99.466 63.5284 100.011 65.0785 99.8042 66.8259Z" fill="#54110A"/>
<path d="M131.323 71.1098C130.863 72.7915 129.82 73.8718 128.984 73.5242C128.148 73.1766 127.828 71.542 128.279 69.8604C128.73 68.1787 129.782 67.1077 130.618 67.4553C131.455 67.8029 131.774 69.4376 131.323 71.1098Z" fill="#54110A"/>
<path d="M103.459 51.7946C103.459 51.7946 98.2165 47.0973 92.9744 52.471" stroke="#54110A" stroke-width="2" stroke-linecap="round" stroke-linejoin="round"/>
<path d="M131.53 54.0681C131.53 54.0681 137.683 50.6203 141.61 57.0462" stroke="#54110A" stroke-width="2" stroke-linecap="round" stroke-linejoin="round"/>
<path d="M115.54 67.7466L114.976 72.256C114.976 72.256 118.011 72.3781 118.218 73.8343C118.424 75.2904 115.399 75.5911 115.399 75.5911" stroke="#54110A" stroke-linecap="round" stroke-linejoin="round"/>
<path d="M120.961 81.0305C120.961 81.0305 111.961 84.2058 105.215 77.8645" stroke="#54110A" stroke-linecap="round" stroke-linejoin="round"/>
<path d="M143.066 82.0075C142.587 85.8687 138.651 88.5837 134.264 88.02C129.876 87.4564 126.748 83.9146 127.18 80.0534C127.612 76.1923 131.595 73.4772 135.983 74.0409C140.37 74.6046 143.536 78.1463 143.066 82.0075Z" fill="#F7B9B6"/>
<path d="M97.9193 77.8383C99.1367 74.1423 96.7198 70.025 92.5211 68.6421C88.3224 67.2592 83.9318 69.1344 82.7145 72.8304C81.4971 76.5265 83.914 80.6438 88.1127 82.0267C92.3114 83.4096 96.702 81.5344 97.9193 77.8383Z" fill="#F7B9B6"/>
<path d="M129.764 151.668C113.373 152.257 96.967 151.057 80.8365 148.089C80.9963 147.262 81.2405 145.956 81.5693 144.265C97.3213 147.17 113.343 148.351 129.35 147.788C129.557 149.639 129.707 151.001 129.764 151.668Z" fill="#FFD9E2"/>
<path d="M109.405 111.76C109.405 112.132 109.295 112.495 109.089 112.804C108.882 113.113 108.589 113.354 108.246 113.496C107.902 113.638 107.524 113.675 107.16 113.603C106.796 113.53 106.461 113.352 106.198 113.089C105.935 112.826 105.756 112.491 105.684 112.127C105.611 111.762 105.648 111.384 105.791 111.041C105.933 110.698 106.174 110.404 106.483 110.198C106.792 109.991 107.155 109.881 107.527 109.881C108.025 109.881 108.503 110.079 108.855 110.432C109.208 110.784 109.405 111.262 109.405 111.76Z" fill="#FFF8FA"/>
<path d="M108.908 119.473C108.908 119.845 108.797 120.208 108.591 120.517C108.384 120.826 108.091 121.067 107.748 121.209C107.404 121.351 107.027 121.388 106.662 121.316C106.298 121.243 105.963 121.065 105.7 120.802C105.437 120.539 105.258 120.204 105.186 119.84C105.113 119.475 105.151 119.097 105.293 118.754C105.435 118.411 105.676 118.117 105.985 117.911C106.294 117.704 106.657 117.594 107.029 117.594C107.527 117.594 108.005 117.792 108.357 118.145C108.71 118.497 108.908 118.975 108.908 119.473Z" fill="#FFF8FA"/>
<path d="M141.056 232.838C140.974 229.919 141.077 226.997 141.366 224.091C141.366 224.091 143.104 221.01 144.72 217.891C146.336 214.772 147.848 211.643 147.848 211.643L148.074 211.55C151.193 215.176 147.181 229.427 141.056 232.838Z" fill="#FAD2C8"/>
</svg>
