<svg width="287" height="287" viewBox="0 0 287 287" fill="none" xmlns="http://www.w3.org/2000/svg">
<rect x="0.309052" y="0.31604" width="286.062" height="286.062" fill="#4BAC95"/>
<path d="M176.39 143.398C195.817 137.963 210.028 123.935 218.531 113.123C227.76 101.387 232.444 90.7994 232.487 90.6941L233.311 91.0164C233.265 91.1239 228.55 101.788 219.262 113.605C210.679 124.524 196.32 138.694 176.652 144.197L176.39 143.398Z" fill="#96D9C9"/>
<path d="M231.98 86.7753C230.071 89.5755 229.571 92.814 230.328 95.6604C231.921 95.3713 233.44 94.769 234.796 93.8886C236.153 93.0082 237.319 91.8674 238.228 90.5329C240.139 87.7327 240.638 84.4941 239.882 81.6478C238.289 81.9367 236.77 82.539 235.413 83.4194C234.056 84.2997 232.889 85.4406 231.98 86.7753V86.7753Z" fill="#96D9C9"/>
<path d="M233.181 97.7675C229.799 98.7947 227.222 100.991 225.891 103.631C228.655 105.028 232.139 105.38 235.519 104.353C238.899 103.326 241.477 101.13 242.809 98.4896C240.045 97.0948 236.562 96.7392 233.181 97.7675Z" fill="#96D9C9"/>
<path d="M230.856 107.686C227.333 107.159 223.96 108.009 221.487 109.785C223.282 112.197 226.224 113.995 229.748 114.522C233.271 115.05 236.65 114.2 239.118 112.423C237.323 110.008 234.38 108.214 230.856 107.686Z" fill="#96D9C9"/>
<path d="M223.56 117.02C220.036 116.494 216.664 117.343 214.189 119.12C215.984 121.532 218.928 123.33 222.451 123.857C225.975 124.383 229.348 123.534 231.821 121.758C230.023 119.346 227.079 117.548 223.56 117.02Z" fill="#96D9C9"/>
<path d="M225.001 102.153C224.997 100.712 224.704 99.2862 224.14 97.9597C223.575 96.6331 222.75 95.4324 221.714 94.4279C219.72 96.1611 218.463 98.8098 218.471 101.834C218.475 103.275 218.768 104.701 219.332 106.027C219.897 107.354 220.722 108.555 221.759 109.559C223.752 107.826 225.01 105.173 225.001 102.153Z" fill="#96D9C9"/>
<path d="M217.382 111.812C217.402 110.372 217.134 108.942 216.591 107.606C216.049 106.27 215.245 105.056 214.225 104.034C212.203 105.734 210.901 108.361 210.859 111.386C210.838 112.826 211.107 114.257 211.649 115.592C212.191 116.928 212.996 118.143 214.016 119.164C216.038 117.464 217.34 114.837 217.382 111.812Z" fill="#96D9C9"/>
<path d="M211.495 126.525C210.869 126.205 210.185 126.013 209.483 125.961C208.781 125.908 208.076 125.996 207.408 126.219C207.717 127.465 208.587 128.597 209.902 129.267C210.528 129.586 211.213 129.778 211.915 129.83C212.616 129.883 213.322 129.795 213.989 129.572C213.68 128.326 212.81 127.194 211.495 126.525Z" fill="#96D9C9"/>
<path d="M150.336 173.481C150.336 173.481 162.459 98.8023 174.558 98.7765C185.587 98.7561 172.33 126.431 173.658 132.381C174.986 138.33 185.702 114.158 196.654 102.917C207.606 91.6751 214.308 97.8782 207.961 111.513C201.824 124.697 179.594 140.145 184.567 141.467C189.539 142.788 217.451 124.424 221.657 131.192C226.814 139.491 183.824 154.14 188.137 155.798C192.45 157.456 212.93 149.681 212.93 156.293C212.93 162.904 184.63 164.556 185.367 167.414C186.553 172.043 212.633 162.32 214.021 168.741C215.441 175.309 181.592 173.684 182.484 178.819C182.997 181.771 215.2 178.018 216.364 182.077C219.018 191.329 146.355 196.291 146.355 196.291L150.336 173.481Z" fill="#3C8F7C"/>
<path d="M102.412 186.641C102.412 186.641 78.5007 165.73 75.3772 167.3C72.2537 168.87 51.2552 158.783 49.3774 164.258C47.0757 170.971 78.8502 176.928 76.2109 178.669C73.5717 180.41 57.6597 176.767 58.5559 181.618C59.4522 186.468 78.45 184.251 78.3476 186.438C78.1815 189.984 59.5666 186.008 59.5126 190.883C59.4565 195.874 81.6987 190.578 81.799 194.456C81.8572 196.684 68.2091 196.987 67.9804 200.106C67.4681 207.218 112.171 205.498 112.171 205.498L102.412 186.641Z" fill="#3C8F7C"/>
<path d="M183.306 193.584C195.125 198.983 207.979 197.99 216.68 196.212C226.126 194.278 232.858 191.021 232.924 190.988L233.195 191.488C233.128 191.521 226.348 194.804 216.839 196.753C208.052 198.553 195.065 199.547 183.1 194.086L183.306 193.584Z" fill="#96D9C9"/>
<path d="M234.315 188.852C232.205 189.436 230.604 190.819 229.785 192.531C230.689 193.051 231.687 193.386 232.722 193.517C233.757 193.648 234.807 193.572 235.812 193.294C237.923 192.711 239.524 191.328 240.342 189.615C239.439 189.096 238.441 188.761 237.406 188.63C236.371 188.499 235.32 188.575 234.315 188.852V188.852Z" fill="#96D9C9"/>
<path d="M230.304 194.751C228.213 193.852 226.028 193.862 224.264 194.605C225.039 196.438 226.601 198.06 228.693 198.959C230.784 199.858 232.969 199.849 234.733 199.105C233.958 197.272 232.397 195.646 230.304 194.751Z" fill="#96D9C9"/>
<path d="M225.012 198.66C223.502 196.941 221.487 195.956 219.529 195.799C219.402 197.733 220.096 199.836 221.607 201.558C223.118 203.281 225.131 204.263 227.089 204.419C227.216 202.488 226.523 200.383 225.012 198.66Z" fill="#96D9C9"/>
<path d="M216.737 199.313C215.538 197.95 213.803 197.29 212.036 197.354C211.721 199.068 212.136 200.852 213.33 202.215C214.524 203.577 216.264 204.238 218.031 204.175C218.351 202.461 217.935 200.676 216.737 199.313Z" fill="#96D9C9"/>
<path d="M225.15 191.172C225.394 190.276 225.455 189.34 225.331 188.42C225.207 187.5 224.899 186.614 224.426 185.814C222.891 186.553 221.657 187.986 221.146 189.868C220.902 190.764 220.84 191.7 220.965 192.62C221.089 193.54 221.397 194.426 221.87 195.226C223.405 194.486 224.638 193.054 225.15 191.172Z" fill="#96D9C9"/>
<path d="M219.583 192.413C219.827 191.517 219.889 190.582 219.765 189.662C219.64 188.742 219.333 187.856 218.86 187.056C217.325 187.795 216.091 189.228 215.58 191.109C215.336 192.005 215.274 192.941 215.399 193.861C215.523 194.781 215.831 195.667 216.303 196.467C217.844 195.728 219.072 194.295 219.583 192.413Z" fill="#96D9C9"/>
<path d="M207.616 199.875C207.442 199.457 207.185 199.079 206.862 198.762C206.539 198.445 206.156 198.195 205.735 198.028C205.545 198.421 205.442 198.851 205.433 199.288C205.425 199.725 205.51 200.159 205.685 200.56C205.859 200.977 206.115 201.356 206.438 201.673C206.761 201.99 207.144 202.24 207.565 202.407C207.755 202.013 207.859 201.583 207.867 201.146C207.876 200.709 207.79 200.276 207.616 199.875V199.875Z" fill="#96D9C9"/>
<path d="M108.251 168.482L107.356 168.428C108.645 147.092 99.9567 127.015 92.4305 113.93C84.269 99.7307 75.689 90.4684 75.6038 90.3771L76.2606 89.7689C76.3469 89.8613 84.9851 99.1837 93.1941 113.467C100.784 126.663 109.556 146.918 108.251 168.482Z" fill="#96D9C9"/>
<path d="M71.7156 89.1543C73.7649 92.2564 76.6953 94.1819 79.6754 94.7106C80.1791 91.4806 79.45 87.8455 77.4104 84.7434C75.3708 81.6413 72.4307 79.7169 69.4506 79.1882C68.9415 82.4171 69.6717 86.0522 71.7156 89.1543Z" fill="#96D9C9"/>
<path d="M82.6479 92.871C82.5023 96.6178 83.7459 100.101 85.8286 102.568C88.0881 100.499 89.5938 97.2668 89.7394 93.52C89.885 89.7732 88.6425 86.2896 86.5587 83.8215C84.2992 85.892 82.7935 89.1242 82.6479 92.871Z" fill="#96D9C9"/>
<path d="M91.3735 99.5383C89.7495 102.63 89.3485 106.216 90.2496 109.588C93.1617 108.914 95.8668 106.849 97.5504 103.654C99.1736 100.562 99.5739 96.9755 98.6721 93.6038C95.7632 94.2785 93.0539 96.3438 91.3735 99.5383Z" fill="#96D9C9"/>
<path d="M97.3681 115.928C96.5896 117.172 96.3086 118.663 96.5807 120.104C97.8211 119.913 99.0204 119.132 99.8261 117.848C100.604 116.603 100.885 115.113 100.613 113.672C99.3731 113.861 98.1749 114.643 97.3681 115.928Z" fill="#96D9C9"/>
<path d="M99.9566 121.812C99.1782 123.056 98.8972 124.546 99.1693 125.987C100.41 125.796 101.609 125.02 102.415 123.731C103.193 122.486 103.474 120.996 103.202 119.555C101.961 119.745 100.761 120.526 99.9566 121.812Z" fill="#96D9C9"/>
<path d="M80.2848 102.726C78.8499 102.737 77.4353 103.065 76.1429 103.686C74.8506 104.307 73.7127 105.206 72.8114 106.318C73.8003 107.399 75.0068 108.259 76.3522 108.843C77.6976 109.427 79.1516 109.722 80.6191 109.708C82.0541 109.698 83.4689 109.37 84.7612 108.749C86.0536 108.127 87.1914 107.228 88.0925 106.115C87.1034 105.035 85.8968 104.175 84.5514 103.591C83.2061 103.007 81.7522 102.713 80.2848 102.726V102.726Z" fill="#96D9C9"/>
<path d="M85.243 111.044C83.808 111.054 82.3933 111.382 81.1009 112.003C79.8085 112.624 78.6707 113.524 77.7696 114.636C78.7585 115.717 79.965 116.577 81.3104 117.161C82.6558 117.745 84.1098 118.04 85.5773 118.026C87.0128 118.016 88.4282 117.689 89.7212 117.067C91.0142 116.446 92.1525 115.546 93.0539 114.433C92.0645 113.353 90.8574 112.492 89.5114 111.908C88.1655 111.324 86.711 111.03 85.243 111.044V111.044Z" fill="#96D9C9"/>
<path d="M93.4475 122.378C92.5137 122.385 91.593 122.598 90.752 123.002C89.9109 123.407 89.1705 123.992 88.5843 124.716C89.2277 125.419 90.0129 125.979 90.8885 126.359C91.7641 126.74 92.7103 126.931 93.6654 126.922C94.5994 126.916 95.5202 126.702 96.3615 126.298C97.2027 125.894 97.9433 125.308 98.5297 124.584C97.8858 123.881 97.1004 123.321 96.2247 122.941C95.349 122.561 94.4026 122.369 93.4475 122.378V122.378Z" fill="#96D9C9"/>
<path d="M129.382 203.219C129.382 203.219 106.49 149.521 103.748 137.336C101.006 125.151 112.18 132.823 112.18 132.823C112.18 132.823 99.2686 108.504 104.217 102.082C109.165 95.6594 116.336 102.028 116.336 102.028C116.336 102.028 116.504 75.2062 122.465 74.3154C133.569 72.6585 135.174 101.879 135.174 101.879C135.174 101.879 136.602 89.2263 142.94 91.7031C152.489 95.4391 142.448 121.853 142.448 121.853C142.448 121.853 153.88 120.176 158.556 125.388C166.949 134.737 129.382 203.219 129.382 203.219Z" fill="#50BFA5"/>
<path d="M136.654 198.985C136.654 198.985 92.6742 191.659 83.1084 183.896C73.5426 176.132 83.0102 172.632 83.0102 172.632C83.0102 172.632 60.918 161.349 61.1737 153.677C61.4293 146.005 72.4047 149.905 72.4047 149.905C72.4047 149.905 53.7941 128.758 58.1968 124.742C66.4047 117.261 87.9253 139.248 87.9253 139.248C87.9253 139.248 81.5358 128.793 88.265 127.139C98.4143 124.644 105.905 150.422 105.905 150.422C105.905 150.422 104.002 140.238 111 141.599C123.557 144.028 136.654 198.985 136.654 198.985Z" fill="#50BFA5"/>
<path d="M111 141.599C104.017 140.166 105.905 150.423 105.905 150.423C105.905 150.423 98.4143 124.641 88.265 127.136C81.5358 128.79 87.9252 139.245 87.9252 139.245C87.9252 139.245 66.4047 117.261 58.1968 124.739L136.5 198.995C135.111 191.906 119.708 143.38 111 141.599Z" fill="#3C8F7C"/>
<path d="M149.486 204.565C149.486 204.565 165.318 188.513 173.299 186.836C181.28 185.158 179.843 190.811 179.843 190.811C179.843 190.811 195.663 177.017 199.331 180.356C202.999 183.696 199.035 186.923 199.035 186.923C199.035 186.923 212.216 184.59 214.104 188.899C217.007 195.52 195.329 199.132 195.329 199.132C195.329 199.132 204.413 199.756 202.308 203.909C199.13 210.18 149.486 204.565 149.486 204.565Z" fill="#50BFA5"/>
<path d="M214.101 188.906C212.212 184.597 199.031 186.93 199.031 186.93C199.031 186.93 202.997 183.707 199.328 180.364C195.659 177.021 180.33 188.944 180.33 188.944C180.33 188.944 183.943 182.057 175.967 183.731C167.991 185.405 149.486 204.565 149.486 204.565L214.101 188.906Z" fill="#96D9C9"/>
<path d="M132.406 121.678C126.416 124.472 126.318 159.457 127.147 162.101C127.354 162.762 135.599 162.716 136.315 162.808L133.475 150.543C133.475 150.543 133.744 142.369 134.176 134.533C134.597 126.891 133.833 121.013 132.406 121.678Z" fill="#F7A491"/>
<path d="M51.4785 206.353C51.4785 206.948 52.0178 207.427 52.6714 207.427H233.654C234.312 207.427 234.846 206.945 234.846 206.353C234.846 205.758 234.307 205.278 233.654 205.278H52.6714C52.0124 205.275 51.4785 205.758 51.4785 206.353Z" fill="#184655"/>
<path d="M161.687 101.577C161.135 96.5458 160.554 91.4978 156.368 87.8101C152.98 84.8262 148.673 84.3212 144.415 85.9179C132.349 90.4405 138.569 101.116 123.18 111.88C118.4 115.224 114.184 117.01 110.585 121.513C105.547 127.817 107.293 134.934 111.884 139.995C133.854 164.218 157.485 132.473 159.245 124.622C160.556 118.781 162.043 104.814 161.687 101.577Z" fill="#13375B"/>
<path d="M134.545 142.372C134.493 143.001 133.898 145.034 133.844 145.549C131.148 145.277 127.652 145.364 125 145.622C124.107 136.326 128.796 119.787 135.154 120.117C136.697 120.198 135.186 134.418 134.545 142.372Z" fill="#B75742"/>
<path d="M163.141 173.008C157.834 175.816 136.977 172.944 136.977 172.944C136.471 167.657 134.732 154.205 133.55 142.831C134.19 134.88 136.121 125.587 135.167 120.117C135.153 120.038 143.403 119.466 143.403 119.466L151.963 119.681C151.963 119.681 159.405 120.277 161.778 121.824C161.943 121.931 163.379 134.57 162.149 144.754C160.312 159.944 163.141 173.008 163.141 173.008Z" fill="#F47458"/>
<path d="M136.716 170.402L118.025 186.393C118.025 186.393 154.848 205.562 167.62 201.926L171.104 184.575L162.706 170.59L136.716 170.402Z" fill="#355389"/>
<path d="M134.28 191.515C134.28 191.515 120.181 189.366 111.722 196.142C103.262 202.918 97.7877 216.468 102.101 218.616C106.414 220.764 119.019 218.285 128.972 214.65C138.925 211.015 142.408 193.497 134.28 191.515Z" fill="#13375B"/>
<path d="M102.761 205.562C101.586 208.089 102.625 210.505 104.572 211.835C106.992 213.482 140.292 218.336 151.682 219.878C160.564 221.08 173.92 223.904 177.568 224.565C181.216 225.225 194.07 225.46 194.321 225.061C195.003 223.967 193.492 221.921 190.839 221.26C188.185 220.6 186.36 221.095 181.218 217.624C176.075 214.154 174.085 216.964 172.758 217.79C171.43 218.616 113.21 199.117 113.21 199.117C113.21 199.117 105.388 199.914 102.761 205.562Z" fill="#F48C7F"/>
<path d="M135.109 173.503C135.109 173.503 109.34 185.546 103.912 189.03C93.7247 195.578 99.5274 214.421 100.969 217.404C100.969 217.404 103.925 200.604 113.214 199.117L114.873 191.185L135.109 173.503Z" fill="#355389"/>
<path d="M160.985 176.643C160.985 176.643 124.659 166.893 111.058 179.453C111.058 179.453 104.686 185.284 107.008 192.224C108.324 196.157 113.214 199.117 113.214 199.117C113.214 199.117 125.821 188.372 130.962 190.199C136.104 192.025 156.063 206.038 161.809 205.402C170.772 204.405 181.222 183.914 160.985 176.643Z" fill="#466EB6"/>
<path d="M138.194 192.775C134.332 190.841 125.157 186.558 119.019 188.37C112.881 190.181 110.455 195.131 113.214 199.115C114.832 201.45 168.45 217.457 170.938 218.945C173.426 220.433 183.71 222.58 186.862 222.58C190.013 222.58 195.814 223.737 196.317 222.911C196.819 222.085 193.994 219.275 190.511 218.613C187.027 217.951 182.218 213.325 180.227 211.673C178.236 210.02 175.912 210.186 173.923 210.846C171.935 211.507 147.142 197.258 138.194 192.775Z" fill="#F7A491"/>
<path d="M162.634 141.766C162.634 146.817 157.689 148.157 148.397 148.157C139.105 148.157 131.579 144.063 131.579 139.011C131.579 133.96 137.753 126.857 147.041 126.857C156.33 126.857 162.634 136.716 162.634 141.766Z" fill="#F47458"/>
<path d="M145.402 106.927C145.402 106.927 145.223 108.207 144.945 109.974C144.438 113.207 143.527 119.494 143.527 119.494C143.527 119.494 142.791 120.483 142.486 121.617C141.901 123.797 143.733 125.63 145.902 126.29C148.122 126.965 149.996 125.966 151.451 124.166C152.542 122.817 152.584 121.664 152.732 119.918C152.878 118.19 153.112 113.301 153.422 109.357C153.59 107.222 153.712 105.666 153.712 105.666L145.402 106.927Z" fill="#F7A491"/>
<path d="M153.437 109.285C153.597 107.197 153.712 105.666 153.712 105.666L145.407 106.927C145.407 106.927 145.198 108.132 144.966 109.836C148.33 111.783 151.36 111.169 153.437 109.285Z" fill="#F47458"/>
<path d="M148.009 88.1894C148.009 88.1894 144.732 88.9244 142.71 91.9996C140.687 95.0748 139.299 104.126 145.962 108.351C152.624 112.576 157.803 106.6 157.889 100.771C157.976 94.9416 156.721 87.1611 148.009 88.1894Z" fill="#F7A491"/>
<path d="M159.414 98.9462C158.846 100.353 157.718 101.226 156.895 100.896C156.072 100.567 155.867 99.159 156.436 97.7514C157.004 96.3438 158.131 95.4724 158.954 95.8022C159.777 96.1321 159.982 97.544 159.414 98.9462Z" fill="#F7A491"/>
<path d="M148.991 87.9981C148.991 87.9981 144.815 97.3291 141.146 98.1629C137.477 98.9967 137.531 103.692 137.531 103.692C137.531 103.692 137.613 92.8484 141.05 90.362C144.487 87.8756 148.991 87.9981 148.991 87.9981Z" fill="#13375B"/>
<path d="M142.604 100.102C143.087 101.618 142.645 103.111 141.616 103.433C140.587 103.756 139.363 102.794 138.881 101.278C138.399 99.7618 138.84 98.2694 139.868 97.947C140.896 97.6246 142.121 98.5874 142.604 100.102Z" fill="#F7A491"/>
<path d="M128.961 151.17C133.383 153.377 133.324 150.304 137.683 148.551C142.412 146.648 141.906 140.191 138.802 138.571C138.012 138.158 136.027 138.193 135.135 137.948C131.089 136.837 128.31 133.791 126.585 137.223C124.481 141.411 124.536 148.963 128.961 151.17Z" fill="#F48C7F"/>
<path d="M131.952 152.538C132.043 156.027 133.601 156.996 136.955 159.222C140.308 161.447 146.388 162.453 149.303 163.305C158.158 165.877 162.246 163.95 161.787 157.868C161.329 151.786 162.158 151.643 155.677 148.722C149.488 145.928 148.882 148.429 143.868 147.831C138.854 147.232 131.836 148.094 131.952 152.538Z" fill="#466EB6"/>
<path d="M134.61 144.996C135.108 141.605 134.178 137.872 131.224 137.54C131.809 136.906 129.86 132.42 125.039 133.417C121.503 134.148 118.468 136.963 118.217 139.992C118.109 141.354 117.6 143.298 117.762 144.654C118.103 147.523 117.949 148.622 120.217 151.088C124.373 155.606 132.339 154.547 135.651 152.077C138.502 149.952 138.13 146.112 134.61 144.996Z" fill="#F7CC7F"/>
<path d="M148.246 148.583C150.022 145.955 151.457 143.017 151.285 141.743C151.002 139.626 150.241 135.784 147.74 132.159C147.672 132.06 147.05 131.135 146.967 130.663C146.826 129.859 146.4 128.613 146.004 128.613C145.735 128.613 146.277 129.72 146.219 130.482C145.72 129.185 145.357 128.426 145.171 128.485C144.892 128.574 145.265 129.615 145.495 130.596C145.262 130.191 144.212 128.188 143.877 128.511C143.59 128.79 144.221 130.099 144.699 130.983C144.294 130.578 143.071 128.691 142.803 129.192C142.687 129.407 143.096 130.3 143.311 130.621C143.827 131.387 144.25 132.349 144.131 132.571C144.062 132.701 143.497 132.401 142.96 132.401C142.552 132.401 142.379 132.655 142.696 133.075C142.84 133.267 143.625 133.374 144.5 133.683C145.141 133.908 145.65 133.973 145.619 134.435C145.511 136.125 146.424 140.775 146.493 141.547C146.129 141.762 144.648 142.554 142.964 143.597C144.456 145.521 146.238 147.202 148.246 148.583Z" fill="#F48C7F"/>
<path d="M142.692 143.235C140.266 144.74 137.686 147.131 137.14 148.741C135.529 153.497 141.144 154.973 144.033 153.254C145.237 152.535 146.847 150.657 148.246 148.586C146.82 146.173 144.903 144.631 142.692 143.235Z" fill="#9BC1F9"/>
<path d="M159.622 161.724C164.067 159.385 160.833 147.668 160.833 147.668C160.833 147.668 168.706 153.544 170.384 151.609C172.061 149.674 171.642 142.79 171.187 142.424C170.732 142.058 170.555 143.084 170.555 143.084C170.555 143.084 170.363 142.513 169.995 142.205C169.627 141.896 169.392 143.012 169.392 143.012C169.392 143.012 169.554 141.912 168.76 142.152C167.966 142.392 168.702 143.764 168.408 143.061C168.113 142.358 166.848 142.153 167.275 143.516C167.702 144.878 168.532 147.452 166.972 146.925C165.412 146.399 164.214 144.289 161.992 142.371C160.734 141.284 157.648 139.964 155.648 140.74C154.118 141.332 152.907 143.242 152.468 145.178C151.455 149.647 152.152 156.366 154.033 159.417C154.824 160.697 157.755 162.707 159.622 161.724Z" fill="#F48C7F"/>
<path d="M161.805 121.828C161.166 121.469 157.57 153.068 157.239 155.986H157.215C157.215 155.986 149.862 155.422 142.691 154.151L141.516 161.004C150.329 164.52 161.531 168.195 164.145 165.902C170.664 160.177 170.32 126.618 161.805 121.828Z" fill="#F7A491"/>
<path d="M168.674 152.559C169.213 144.992 168.71 135.602 166.65 129.118C165.515 125.546 163.721 122.902 161.805 121.822C161.295 121.536 158.556 141.661 157.443 151.249C160.895 151.44 165.252 152.021 168.674 152.559Z" fill="#B75742"/>
<path d="M162.937 164.486C164.695 164.245 169.208 159.841 164.547 162.155C159.887 164.47 153.74 162.772 154.948 161.763C156.156 160.754 158.602 160.06 157.713 159.45C156.823 158.839 153.756 160.604 151.133 161.341C150.657 161.475 148.929 163.046 147.558 162.738C146.825 162.572 127.444 154.376 123.088 152.018C123.088 152.018 124.786 161.637 124.921 161.709C140.113 169.643 148.363 168.411 153.238 168.428C158.113 168.445 162.729 166.835 163.302 166.004C163.874 165.173 158.159 166.445 158.159 166.445C158.159 166.445 159.777 166.304 161.422 166.063C163.164 165.81 165.774 164.507 165.736 164.076C165.698 163.645 163.154 164.721 161.422 164.924C159.69 165.127 157.829 165.481 157.829 165.343C157.824 165.123 161.178 164.725 162.937 164.486Z" fill="#F48C7F"/>
<path d="M120.61 146.311C119.261 145.162 117.095 138.359 119.762 142.817C122.43 147.275 128.521 149.157 128.052 147.653C127.583 146.148 125.895 144.252 126.98 144.214C128.065 144.177 129.684 147.315 131.492 149.347C131.815 149.717 132.423 151.969 133.744 152.446C134.45 152.702 152.436 155.669 157.38 156.028C157.38 156.028 147.673 162.062 147.52 162.033C145.363 161.625 143.691 160.86 141.912 160.435C134.088 158.557 129.223 156.307 125.875 154.18C121.765 151.572 118.756 147.733 118.72 146.724C118.685 145.715 122.814 149.872 122.814 149.872C122.814 149.872 121.532 148.886 120.275 147.795C118.947 146.645 117.717 143.737 117.984 143.39C118.25 143.043 119.514 145.56 120.859 146.667C122.204 147.774 123.616 149.234 123.69 149.118C123.81 148.934 121.959 147.459 120.61 146.311Z" fill="#F7A491"/>
<path d="M70.6586 62.3561C70.6216 61.8144 70.7092 61.2715 70.9148 60.7687C71.1204 60.266 71.4386 59.8166 71.845 59.4549C73.1005 58.3396 74.9006 58.6211 75.9996 59.8439C77.2702 61.259 77.6024 63.9786 75.8648 68.1488C71.5128 69.4092 68.8358 68.7816 67.5599 67.3665C66.4619 66.1448 66.3788 64.3278 67.6267 63.2136C68.0327 62.8493 68.5171 62.5826 69.0427 62.434C69.5683 62.2853 70.1211 62.2587 70.6586 62.3561V62.3561Z" fill="#96D9C9"/>
<path d="M100.571 77.2047C100.613 76.6628 100.779 76.1375 101.056 75.6691C101.332 75.2007 101.713 74.8016 102.169 74.5024C103.571 73.5804 105.31 74.1188 106.219 75.4855C107.273 77.0683 107.207 79.8072 104.885 83.6851C100.396 84.3072 97.8373 83.3015 96.7835 81.7187C95.8743 80.3509 96.0544 78.5414 97.4511 77.6195C97.905 77.3178 98.4222 77.1236 98.963 77.0517C99.5039 76.9798 100.054 77.0322 100.571 77.2047V77.2047Z" fill="#50BFA5"/>
<path d="M149.546 68.5936C149.86 68.1586 150.271 67.801 150.745 67.5483C151.22 67.2956 151.746 67.1544 152.284 67.1355C153.936 67.0721 155.127 68.4174 155.189 70.0367C155.261 71.9085 153.794 74.1821 149.841 76.2602C145.743 74.4894 144.102 72.334 144.03 70.4579C143.969 68.8408 145.052 67.4084 146.705 67.3418C147.243 67.3204 147.779 67.4221 148.271 67.6391C148.764 67.8561 149.2 68.1826 149.546 68.5936V68.5936Z" fill="#86B1F2"/>
<path d="M155.189 70.0367C155.127 68.4249 153.935 67.0742 152.284 67.1355C151.746 67.1545 151.22 67.2958 150.745 67.5487C150.27 67.8017 149.86 68.1594 149.546 68.5947C149.546 68.5947 149.84 76.2591 149.841 76.258C153.794 74.1789 155.261 71.9052 155.189 70.0367Z" fill="#9BC1F9"/>
<path d="M56.3633 104.972C56.1853 104.363 56.1498 103.721 56.2593 103.095C56.3689 102.47 56.6206 101.878 56.9953 101.365C58.1407 99.7854 60.2687 99.6597 61.8283 100.783C63.6317 102.081 64.6898 105.102 63.7503 110.291C59.0996 112.808 55.8887 112.756 54.0843 111.457C52.5257 110.331 51.9778 108.283 53.1233 106.703C53.4949 106.187 53.9801 105.763 54.5417 105.463C55.1033 105.163 55.7264 104.995 56.3633 104.972V104.972Z" fill="#86B1F2"/>
<path d="M61.8284 100.783C60.2688 99.6597 58.1408 99.7854 56.9953 101.365C56.6206 101.878 56.3689 102.47 56.2593 103.095C56.1498 103.721 56.1853 104.363 56.3633 104.972L63.7504 110.291C64.6876 105.102 63.6317 102.081 61.8284 100.783Z" fill="#9BC1F9"/>
<path d="M220.174 152.306C220.174 152.306 221.349 151.9 222.36 152.712C223.26 153.437 223.202 154.775 222.41 155.753C221.493 156.885 219.563 157.542 216.423 156.935C215.168 154.005 215.405 151.986 216.322 150.855C217.113 149.877 218.414 149.537 219.315 150.261C220.324 151.078 220.174 152.306 220.174 152.306Z" fill="#86B1F2"/>
<path d="M45.6477 156.282C45.6477 156.282 44.8863 155.303 45.336 154.09C45.7372 153.008 47.0294 152.636 48.2125 153.071C49.5812 153.574 50.8238 155.187 51.253 158.344C48.8672 160.465 46.8708 160.886 45.5021 160.385C44.3157 159.956 43.5801 158.831 43.9813 157.749C44.4311 156.534 45.6477 156.282 45.6477 156.282Z" fill="#86B1F2"/>
<path d="M234.346 173.471C234.346 173.471 235.519 173.064 236.53 173.876C237.43 174.601 237.372 175.939 236.58 176.917C235.665 178.048 233.733 178.707 230.593 178.099C229.338 175.169 229.575 173.15 230.492 172.018C231.283 171.041 232.584 170.701 233.485 171.425C234.5 172.242 234.346 173.471 234.346 173.471Z" fill="#86B1F2"/>
<path d="M238.713 156.477C238.713 156.477 239.886 156.07 240.897 156.883C241.797 157.607 241.739 158.946 240.947 159.923C240.031 161.055 238.1 161.713 234.96 161.105C233.705 158.176 233.942 156.156 234.859 155.025C235.651 154.048 236.951 153.707 237.852 154.432C238.863 155.245 238.713 156.477 238.713 156.477Z" fill="#86B1F2"/>
</svg>
