<svg width="76" height="76" viewBox="0 0 76 76" fill="none" xmlns="http://www.w3.org/2000/svg">
<rect x="1" y="1.48834" width="73.0977" height="73.0977" rx="9.61182" fill="#50BFA5" stroke="#D1FCF2" stroke-width="2"/>
<mask id="mask0" style="mask-type:alpha" maskUnits="userSpaceOnUse" x="2" y="2" width="72" height="72">
<rect x="2" y="2.48834" width="71.0977" height="71.0977" rx="8.61182" fill="#C4C4C4"/>
</mask>
<g mask="url(#mask0)">
<path d="M80.9904 45.9395H-6.44151C-7.3144 45.9395 -8.13016 46.625 -8.61538 47.7652L-21.5048 78.0517C-22.6678 80.7847 -21.4231 84.4512 -19.3313 84.4512H94.4286C96.5429 84.4512 97.7835 80.7114 96.5739 77.9854L83.1357 47.7C82.6468 46.5969 81.8457 45.9395 80.9904 45.9395Z" fill="#EAB86E"/>
<path d="M9.57526 42.3229V40.6551L11.4611 42.3229H9.57526Z" fill="#FFC200"/>
<path d="M22.3162 40.6503C22.3162 41.0939 22.14 41.5194 21.8263 41.833C21.5127 42.1467 21.0872 42.3229 20.6436 42.3229H11.2478C10.8042 42.3229 10.3788 42.1467 10.0651 41.833C9.75147 41.5194 9.57526 41.0939 9.57526 40.6503V40.6503C9.57526 40.4309 9.61855 40.2136 9.70266 40.011C9.78677 39.8083 9.91005 39.6242 10.0654 39.4693C10.2208 39.3144 10.4052 39.1916 10.6081 39.1081C10.811 39.0245 11.0284 38.9819 11.2478 38.9825H20.6436C20.8631 38.9819 21.0805 39.0245 21.2834 39.1081C21.4863 39.1916 21.6707 39.3144 21.8261 39.4693C21.9814 39.6242 22.1047 39.8083 22.1888 40.011C22.2729 40.2136 22.3162 40.4309 22.3162 40.6503Z" fill="#FFA300"/>
<path d="M22.3162 50.9558C22.3162 51.1753 22.2729 51.3925 22.1888 51.5952C22.1047 51.7979 21.9814 51.9819 21.8261 52.1369C21.6707 52.2918 21.4863 52.4146 21.2834 52.4981C21.0805 52.5816 20.8631 52.6243 20.6437 52.6237H11.2478C10.8203 52.6009 10.4177 52.415 10.1231 52.1043C9.82847 51.7935 9.66425 51.3817 9.66425 50.9535C9.66425 50.5253 9.82847 50.1134 10.1231 49.8027C10.4177 49.492 10.8203 49.306 11.2478 49.2833H20.6437C21.0869 49.2845 21.5116 49.4611 21.825 49.7745C22.1384 50.0879 22.315 50.5126 22.3162 50.9558V50.9558Z" fill="#FFA300"/>
<path d="M38.8099 32.4627H36.4693L36.0002 24.4315H39.279L38.8099 32.4627Z" fill="#4C2608"/>
<path d="M37.6396 29.3166C37.6396 29.3166 21.8093 22.1288 18.9616 34.486C17.4454 41.0578 21.5771 49.2075 24.9365 54.4621C25.9388 56.0278 27.4306 57.2181 29.1796 57.848C30.9286 58.4778 32.8368 58.5118 34.6071 57.9447L37.6396 56.9686V29.3166Z" fill="#C21818"/>
<path d="M37.6395 29.3166C37.6395 29.3166 53.4698 22.1288 56.3174 34.486C57.8337 41.0531 53.7067 49.2075 50.3426 54.4574C49.3429 56.0247 47.8524 57.2169 46.1037 57.8477C44.3551 58.4786 42.4468 58.5127 40.6767 57.9447L37.6395 56.9686V29.3166Z" fill="#DC5151"/>
<path d="M28.6844 18.5941C28.6363 19.8534 28.9259 21.1028 29.5232 22.2125C30.1206 23.3223 31.0039 24.252 32.0817 24.9053C35.8722 27.3076 38.8052 25.5829 39.2411 25.2986C39.3122 24.7869 39.6249 21.3943 35.8438 18.9873C32.0627 16.5803 29.1203 18.3098 28.6844 18.5941V18.5941Z" fill="#6E8F31"/>
<path d="M28.0521 33.5042L24.4129 37.1421L28.0508 40.7813L31.69 37.1434L28.0521 33.5042Z" fill="#F7FAFF"/>
<path d="M37.45 42.3229V52.6237H11.2478C11.0284 52.6243 10.811 52.5816 10.6081 52.4981C10.4052 52.4146 10.2208 52.2918 10.0654 52.1369C9.91005 51.9819 9.78677 51.7979 9.70266 51.5952C9.61855 51.3925 9.57526 51.1753 9.57526 50.9558V42.3229H37.45Z" fill="#FFC200"/>
<path d="M41.3496 41.6548H34.7919C34.5878 41.6548 34.4224 41.8203 34.4224 42.0244V52.9222C34.4224 53.1263 34.5878 53.2918 34.7919 53.2918H41.3496C41.5537 53.2918 41.7192 53.1263 41.7192 52.9222V42.0244C41.7192 41.8203 41.5537 41.6548 41.3496 41.6548Z" fill="#606060"/>
<path d="M29.2246 49.0132H28.3148V52.6285H29.2246V49.0132Z" fill="#492C14"/>
<path d="M30.2006 46.1751H30.7029V44.5972L30.1912 44.7157V44.2845L30.6981 44.1661H31.2383V46.1751H31.7405V46.6062H30.2006V46.1751Z" fill="#492C14"/>
<path d="M26.2442 46.1704H27.1919V46.6442H25.5951V46.1704L26.3958 45.3838C26.4588 45.3202 26.5129 45.2485 26.5569 45.1706C26.5891 45.1042 26.6054 45.0312 26.6043 44.9574C26.6078 44.9065 26.6004 44.8555 26.5826 44.8077C26.5648 44.7599 26.5371 44.7164 26.5012 44.6801C26.4654 44.6438 26.4223 44.6156 26.3747 44.5972C26.3271 44.5788 26.2762 44.5708 26.2253 44.5736C26.1256 44.5772 26.0275 44.5997 25.9362 44.6399C25.818 44.6898 25.7053 44.7517 25.5998 44.8247V44.2893C25.7237 44.2449 25.8503 44.2085 25.9789 44.1803C26.0992 44.1577 26.2213 44.1466 26.3437 44.1471C26.5653 44.1326 26.7846 44.2001 26.9597 44.3367C27.0326 44.4058 27.0898 44.4899 27.1274 44.5831C27.165 44.6762 27.1821 44.7764 27.1776 44.8768C27.1777 45.006 27.1451 45.1332 27.0829 45.2464C26.9773 45.4225 26.8464 45.5822 26.6944 45.7202L26.2442 46.1704Z" fill="#492C14"/>
<path d="M40.6388 43.55H35.6827V44.0428H40.6388V43.55Z" fill="#B5B5B5"/>
<path d="M40.6388 45.3885H35.6827V45.8813H40.6388V45.3885Z" fill="#B5B5B5"/>
<path d="M40.6388 47.2316H35.6827V47.7244H40.6388V47.2316Z" fill="#B5B5B5"/>
<path d="M40.6388 49.0701H35.6827V49.5628H40.6388V49.0701Z" fill="#B5B5B5"/>
<path d="M40.6388 50.9132H35.6827V51.406H40.6388V50.9132Z" fill="#B5B5B5"/>
<path d="M31.4183 47.7197H30.5086V52.6284H31.4183V47.7197Z" fill="#492C14"/>
<path d="M24.6711 49.0132H23.7614V52.6285H24.6711V49.0132Z" fill="#492C14"/>
<path d="M26.8649 47.7197H25.9552V52.6284H26.8649V47.7197Z" fill="#492C14"/>
<path d="M22.3115 47.7197H21.4018V52.6284H22.3115V47.7197Z" fill="#492C14"/>
<path d="M20.1177 49.0132H19.208V52.6285H20.1177V49.0132Z" fill="#492C14"/>
<path d="M17.7629 47.7197H16.8531V52.6284H17.7629V47.7197Z" fill="#492C14"/>
<path d="M15.5691 49.0132H14.6594V52.6285H15.5691V49.0132Z" fill="#492C14"/>
<path d="M13.2095 47.7197H12.2997V52.6284H13.2095V47.7197Z" fill="#492C14"/>
<path d="M22.2642 45.3079C22.4075 45.3393 22.537 45.4156 22.6338 45.5259C22.7184 45.6391 22.7619 45.7779 22.757 45.9192C22.7622 46.0242 22.7401 46.1287 22.6927 46.2226C22.6454 46.3164 22.5744 46.3964 22.4869 46.4546C22.2467 46.5918 21.9717 46.6561 21.6956 46.6394C21.5719 46.6393 21.4483 46.6298 21.326 46.6109C21.2018 46.5927 21.0796 46.5625 20.9612 46.5209V46.0471C21.0698 46.1035 21.1842 46.148 21.3023 46.1798C21.4123 46.2076 21.5253 46.2219 21.6387 46.2224C21.7691 46.2304 21.899 46.2008 22.0131 46.1371C22.0536 46.1115 22.0868 46.0757 22.1092 46.0333C22.1316 45.9909 22.1426 45.9434 22.141 45.8955C22.1435 45.8462 22.1324 45.7972 22.1091 45.7537C22.0857 45.7103 22.0508 45.6741 22.0083 45.6491C21.8879 45.5841 21.7516 45.5545 21.6151 45.5638H21.3687V45.1705H21.6293C21.7493 45.1768 21.8688 45.1506 21.9752 45.0947C22.0122 45.0723 22.0424 45.0401 22.0625 45.0016C22.0825 44.9632 22.0917 44.92 22.0889 44.8768C22.0908 44.8343 22.0812 44.7921 22.0612 44.7546C22.0412 44.717 22.0115 44.6856 21.9752 44.6635C21.8829 44.6069 21.7752 44.5804 21.6672 44.5877C21.5652 44.5873 21.4634 44.5984 21.3639 44.6209C21.2618 44.6455 21.1619 44.6788 21.0654 44.7204V44.2466C21.1834 44.2123 21.3038 44.1869 21.4255 44.1708C21.5415 44.1521 21.6587 44.1426 21.7762 44.1423C22.0185 44.1265 22.2603 44.1808 22.4727 44.2987C22.5503 44.3494 22.6125 44.4203 22.6526 44.5038C22.6927 44.5874 22.7091 44.6803 22.7001 44.7725C22.7072 44.8972 22.6685 45.0203 22.5911 45.1184C22.5062 45.2161 22.3912 45.2828 22.2642 45.3079Z" fill="#492C14"/>
<path d="M17.2701 44.1282H17.9808V45.6918H18.3362V46.1656H17.9808V46.6394H17.3791V46.1656H16.2751V45.616L17.2701 44.1282ZM17.3791 44.6541L16.6968 45.6918H17.4028L17.3791 44.6541Z" fill="#492C14"/>
</g>
</svg>
