<svg width="76" height="76" viewBox="0 0 76 76" fill="none" xmlns="http://www.w3.org/2000/svg">
<rect x="1" y="1.29303" width="73.0977" height="73.0977" rx="9.61182" fill="#50BFA5" stroke="#D1FCF2" stroke-width="2"/>
<mask id="mask0" style="mask-type:alpha" maskUnits="userSpaceOnUse" x="2" y="2" width="72" height="72">
<rect x="2" y="2.29303" width="71.0977" height="71.0977" rx="8.61182" fill="#50BFA5"/>
</mask>
<g mask="url(#mask0)">
<path d="M81.6202 35.8877H-5.81169C-6.68458 35.8877 -7.50034 36.5553 -7.98556 37.6656L-20.8749 67.1588C-22.038 69.8202 -20.7933 73.3907 -18.7015 73.3907H95.0584C97.1727 73.3907 98.4133 69.7489 97.2037 67.0942L83.7655 37.6021C83.2766 36.5279 82.4755 35.8877 81.6202 35.8877Z" fill="#EAB86E"/>
<path d="M12.643 61.96C12.655 62.0526 12.6629 62.1035 12.6629 62.1035L15.2156 62.3103C15.2156 62.3103 15.3667 61.0457 15.5383 59.791C15.71 58.5363 17.2553 58.7853 18.4142 56.0186C19.5731 53.2519 17.8578 52.3571 17.7274 50.8296C17.5971 49.3021 18.9293 47.9162 18.9293 47.9162C18.9293 47.9162 18.8995 47.9162 18.8386 47.9225C18.5918 47.9488 17.8359 48.0816 16.5256 48.7644C14.8961 49.6131 15.7959 52.3989 16.1822 53.9268C16.5685 55.4547 15.6655 55.3723 13.8647 56.8589C12.2718 58.1704 12.5556 61.2569 12.643 61.96Z" fill="#00B37A"/>
<path d="M12.6431 61.9599L13.6991 62.0454C13.6991 62.0454 13.7026 60.7542 14.0218 59.5261C14.6374 57.1619 15.7387 58.5212 16.8976 55.7541C18.0565 52.987 16.5685 52.192 16.4398 50.6637C16.3603 49.7065 17.772 48.6089 18.8387 47.9221C18.5919 47.9484 17.836 48.0812 16.5256 48.764C14.8961 49.6127 15.7959 52.3984 16.1822 53.9263C16.5685 55.4542 15.6656 55.3719 13.8648 56.8585C12.2719 58.1704 12.5556 61.2568 12.6431 61.9599Z" fill="#00DC96"/>
<path d="M7.50339 48.8451C8.28515 50.9926 12.2329 54.198 10.4993 56.4441C8.99536 58.3927 9.06849 61.1948 9.09432 61.6935C9.0971 61.7444 9.09949 61.773 9.09949 61.773H11.7842C11.7842 61.773 11.4853 59.7083 12.4817 58.2213C13.478 56.7344 14.2224 55.4546 12.8632 53.679C11.504 51.9033 9.2374 50.1818 9.23342 48.1937C9.22945 46.2367 10.3939 45.062 10.4305 45.0258C10.4178 45.0314 10.254 45.1053 10.0092 45.2393C9.05895 45.7551 6.88737 47.1538 7.50339 48.8451Z" fill="#00B37A"/>
<path d="M7.50341 48.8452C8.28516 50.9927 12.2329 54.198 10.4993 56.4441C8.99537 58.3928 9.0685 61.1948 9.09434 61.6935H10.0673C10.0673 61.6935 9.76839 59.6288 10.7652 58.1422C11.7619 56.6557 12.5059 55.3751 11.1463 53.5995C9.78667 51.8238 8.02683 50.1794 8.02325 48.191C8.02087 46.9252 9.17184 45.851 10.0084 45.237C9.05896 45.7552 6.88738 47.1538 7.50341 48.8452Z" fill="#009E6C"/>
<path d="M6.45184 51.6536C6.86438 53.2809 5.88191 54.3375 5.71022 55.4113C5.53853 56.485 7.42675 58.137 8.0233 58.5498C8.61985 58.9626 8.32178 61.771 8.32178 61.771H9.91629C9.91629 61.771 10.3372 59.3758 9.93576 58.3434C9.53435 57.311 8.0706 56.6918 7.50346 55.2876C6.93632 53.8834 7.90089 52.9751 7.39535 51.0904C6.88981 49.2058 5.06598 48.3906 5.06598 48.3906V48.3945C5.11924 48.4808 6.05043 50.0692 6.45184 51.6536Z" fill="#00B37A"/>
<path d="M5.71015 55.4113C5.53846 56.485 7.42668 58.137 8.02323 58.5498C8.61978 58.9626 8.3217 61.771 8.3217 61.771H8.927C9.02715 61.3117 9.42101 59.3726 9.12095 58.4484C8.77995 57.3965 7.35355 56.6986 6.86788 55.2669C6.38222 53.8353 7.39568 52.9791 7.00063 51.0706C6.6958 49.5948 5.56509 48.7159 5.0679 48.3934C5.11917 48.4797 6.05036 50.0692 6.45177 51.6524C6.86431 53.2809 5.88145 54.3375 5.71015 55.4113Z" fill="#00DC96"/>
<path d="M10.1647 62.3708C10.1551 62.4467 10.1484 62.4901 10.1484 62.4901L8.05111 62.6599C8.05111 62.6599 7.92711 61.6211 7.78602 60.5919C7.64493 59.5627 6.37552 59.7656 5.42327 57.4924C4.47101 55.2192 5.88191 54.4843 5.98763 53.2292C6.09334 51.9741 5 50.8356 5 50.8356C5 50.8356 5.02464 50.8356 5.07432 50.8407C5.27741 50.8626 5.8986 50.9728 6.97485 51.5327C8.315 52.2295 7.57458 54.5185 7.25703 55.7736C6.93948 57.0287 7.6803 56.9615 9.16114 58.1828C10.4699 59.2589 10.2366 61.7945 10.1647 62.3708Z" fill="#00B37A"/>
<path d="M10.1647 62.3707L9.29706 62.4411C9.29706 62.4411 9.29428 61.3801 9.03198 60.3732C8.52644 58.4305 7.62148 59.5472 6.66922 57.274C5.71697 55.0009 6.93988 54.3475 7.0452 53.0924C7.11197 52.3058 5.95066 51.4038 5.07432 50.8395C5.27741 50.8614 5.8986 50.9715 6.97485 51.5315C8.315 52.2282 7.57458 54.5173 7.25703 55.7724C6.93948 57.0275 7.6803 56.9603 9.16114 58.1815C10.4699 59.2589 10.2366 61.7945 10.1647 62.3707Z" fill="#00DC96"/>
<path d="M14.3866 51.5975C13.7443 53.3616 10.502 55.9951 11.9252 57.8411C13.1609 59.4434 13.1008 61.7444 13.0778 62.1544C13.0758 62.1942 13.0738 62.218 13.0738 62.218H10.8681C10.8681 62.218 11.1137 60.5215 10.295 59.2998C9.47624 58.0782 8.86419 57.0267 9.98138 55.5676C11.0986 54.1085 12.9621 52.6943 12.9621 51.0614C12.9653 49.4536 12.0083 48.4884 11.9789 48.4586C11.9892 48.463 12.1236 48.5242 12.3247 48.634C13.1096 49.0583 14.8937 50.2076 14.3866 51.5975Z" fill="#00B37A"/>
<path d="M14.3865 51.5975C13.7443 53.3616 10.502 55.9951 11.9252 57.8411C13.1608 59.4434 13.1008 61.7444 13.0778 62.1544H12.2801C12.2801 62.1544 12.5257 60.4579 11.707 59.2362C10.8883 58.0145 10.2763 56.963 11.3935 55.5039C12.5106 54.0448 13.9565 52.6943 13.9597 51.0614C13.9597 50.0215 13.0158 49.1386 12.3302 48.6355C13.1096 49.0583 14.8937 50.2076 14.3865 51.5975Z" fill="#009E6C"/>
<path d="M15.2514 53.9045C14.9124 55.2415 15.7199 56.1097 15.861 56.9921C16.0021 57.8746 14.4505 59.2315 13.9605 59.5707C13.4705 59.9099 13.7149 62.2173 13.7149 62.2173H12.4053C12.4053 62.2173 12.0596 60.2491 12.389 59.4013C12.7185 58.5534 13.9215 58.044 14.3873 56.8903C14.8531 55.7366 14.0626 54.9902 14.4764 53.442C14.8901 51.8938 16.39 51.2241 16.39 51.2241C16.3899 51.225 16.3899 51.226 16.39 51.2269C16.3463 51.2977 15.5812 52.6041 15.2514 53.9045Z" fill="#00B37A"/>
<path d="M15.8611 56.9921C16.0022 57.8741 14.4506 59.2314 13.9606 59.5707C13.4705 59.9099 13.7149 62.2172 13.7149 62.2172H13.2181C13.1355 61.8398 12.812 60.2463 13.0592 59.4875C13.3394 58.623 14.5114 58.0507 14.9104 56.8744C15.3095 55.698 14.4768 54.9945 14.8015 53.4265C15.0519 52.2139 15.9807 51.4921 16.3893 51.2269C16.3472 51.2977 15.5821 52.604 15.2522 53.9045C14.9124 55.2415 15.72 56.1096 15.8611 56.9921Z" fill="#00DC96"/>
<path d="M6.45183 61.2914C6.45183 63.2544 7.73276 64.9302 9.53473 65.5864C10.0757 65.7827 10.6468 65.8827 11.2222 65.8819C13.8564 65.8819 15.9915 63.8267 15.9915 61.2918C15.9915 61.2362 15.9915 61.1813 15.9883 61.1264H6.45422C6.45342 61.1809 6.45183 61.2358 6.45183 61.2914Z" fill="#41BEE6"/>
<path d="M6.45179 61.2914C6.45367 62.4522 6.90578 63.5668 7.71285 64.4005C8.22138 64.9301 8.84469 65.3357 9.53469 65.586C11.1387 64.8702 12.252 63.3101 12.252 61.4978C12.252 61.3726 12.2468 61.2489 12.2361 61.126H6.45497C6.45338 61.1809 6.45179 61.2358 6.45179 61.2914Z" fill="#67D3F5"/>
<path d="M6.45181 61.2914C6.45369 62.4522 6.9058 63.5668 7.71287 64.4005C8.83523 63.798 9.59473 62.6436 9.59473 61.3189C9.59473 61.2545 9.59473 61.19 9.58876 61.126H6.45499C6.4534 61.1809 6.45181 61.2358 6.45181 61.2914Z" fill="#88E9FF"/>
<path d="M53.588 13.3423V33.3772V35.9737V51.9236H52.7565H27.1875V51.0968V45.0138V40.1001V39.1918V35.417V31.262V13.3423H53.588Z" fill="white"/>
<path d="M27.1875 13.2354H53.588V18.5818H27.1875V13.2354Z" fill="#67D3F5"/>
<path d="M53.9043 25.3508C53.9049 25.6238 53.9609 25.8938 54.0689 26.1445C54.1769 26.3952 54.3347 26.6213 54.5327 26.8091C54.919 27.1739 55.424 27.3868 55.9547 27.4087C56.4854 27.4306 57.0062 27.2601 57.4212 26.9284C57.6584 26.7394 57.85 26.4995 57.982 26.2265C58.114 25.9534 58.183 25.6541 58.1839 25.3508C58.1839 24.2138 57.2257 23.2916 56.0437 23.2916C54.8617 23.2916 53.9043 24.2138 53.9043 25.3508Z" fill="white"/>
<path d="M55.8693 26.3213L54.7926 24.9207L55.0736 24.7207L55.8824 25.7729L57.7133 23.606L57.9844 23.8179L55.8693 26.3213Z" fill="#00DC96"/>
<path d="M44.4136 9.9346C44.4141 10.2075 44.4701 10.4775 44.5781 10.7281C44.6861 10.9787 44.8439 11.2048 45.0419 11.3925C45.4281 11.7576 45.9331 11.9707 46.4639 11.9926C46.9947 12.0145 47.5155 11.8438 47.9305 11.5118C48.1678 11.3231 48.3596 11.0834 48.4918 10.8104C48.6241 10.5375 48.6933 10.2383 48.6943 9.935C48.6943 8.79723 47.7361 7.875 46.5541 7.875C45.3722 7.875 44.4136 8.79723 44.4136 9.9346Z" fill="white"/>
<path d="M45.8892 9.82006C45.5259 9.82006 45.2302 9.53572 45.2302 9.18576C45.2302 8.8358 45.5259 8.55106 45.8892 8.55106C46.2524 8.55106 46.5485 8.8358 46.5485 9.18735C46.5485 9.5389 46.2536 9.82006 45.8892 9.82006ZM45.8892 8.8875C45.8307 8.88976 45.7741 8.90919 45.7266 8.94337C45.679 8.97755 45.6426 9.02497 45.6217 9.07972C45.6009 9.13448 45.5966 9.19415 45.6095 9.25132C45.6223 9.30848 45.6516 9.36061 45.6938 9.40122C45.736 9.44182 45.7892 9.46911 45.8468 9.47969C45.9044 9.49026 45.9638 9.48366 46.0177 9.46069C46.0716 9.43773 46.1175 9.39942 46.1498 9.35053C46.182 9.30165 46.1992 9.24434 46.1992 9.18576C46.1975 9.1051 46.1639 9.0284 46.1058 8.97249C46.0477 8.91657 45.9698 8.886 45.8892 8.8875Z" fill="#435993"/>
<path d="M47.2215 11.2203C46.8579 11.2203 46.5622 10.936 46.5622 10.584C46.5622 10.2321 46.8579 9.94772 47.2215 9.94772C47.5852 9.94772 47.8805 10.2325 47.8805 10.584C47.8805 10.9356 47.5848 11.2203 47.2215 11.2203ZM47.2215 10.2877C47.163 10.29 47.1065 10.3094 47.0589 10.3436C47.0114 10.3778 46.9749 10.4252 46.9541 10.48C46.9333 10.5347 46.929 10.5944 46.9418 10.6516C46.9546 10.7087 46.984 10.7609 47.0262 10.8015C47.0684 10.8421 47.1216 10.8694 47.1792 10.8799C47.2368 10.8905 47.2962 10.8839 47.3501 10.8609C47.4039 10.838 47.4499 10.7997 47.4821 10.7508C47.5144 10.7019 47.5316 10.6446 47.5315 10.586C47.5298 10.5054 47.4962 10.4287 47.4381 10.3728C47.38 10.317 47.3021 10.2864 47.2215 10.2877Z" fill="#435993"/>
<path d="M45.815 11.3126L45.524 11.1269L47.2986 8.55624L47.5895 8.74236L45.815 11.3126Z" fill="#435993"/>
<path d="M12.2109 19.5254C9.68709 17.3013 9.51499 13.3721 11.8265 10.749C14.1381 8.126 18.0575 7.80291 20.5813 10.027C22.7982 11.9806 23.201 15.2491 21.6996 17.7931L22.4991 20.3067L19.8402 19.8177C17.5212 21.4658 14.36 21.4193 12.2109 19.5254Z" fill="white"/>
<path d="M16.709 12.2214C16.4438 12.2214 16.2289 11.9882 16.2289 11.7005C16.2289 11.4127 16.4438 11.1795 16.709 11.1795C16.9741 11.1795 17.1891 11.4127 17.1891 11.7005C17.1891 11.9882 16.9741 12.2214 16.709 12.2214Z" fill="#FFCE5C"/>
<path d="M16.6799 18.0042C16.0385 18.0042 15.5186 17.6319 15.5186 17.1726C15.5186 16.7134 16.0385 16.3411 16.6799 16.3411C17.3213 16.3411 17.8412 16.7134 17.8412 17.1726C17.8412 17.6319 17.3213 18.0042 16.6799 18.0042Z" fill="#FFBF2B"/>
<path d="M19.4966 16.8326H13.8629L14.7373 15.2144C15.0276 14.6676 15.173 14.0554 15.1598 13.4364C15.1598 13.399 15.1598 13.3612 15.1626 13.3234C15.2114 12.5647 15.8612 11.9566 16.6506 11.9292C17.5317 11.8985 18.2558 12.5766 18.2558 13.4177V13.4252C18.2431 14.0636 18.3891 14.695 18.6806 15.2629L19.4966 16.8326Z" fill="#FFCE5C"/>
<path d="M56.149 17.6067C56.149 14.8392 58.4803 12.5959 61.3554 12.5959C64.2304 12.5959 66.5618 14.8392 66.5618 17.6067C66.5618 20.0373 64.763 22.0635 62.3764 22.5205L61.2596 24.3812L60.1154 22.4724C57.8397 21.9391 56.149 19.9646 56.149 17.6067Z" fill="white"/>
<path d="M60.8865 16.5508C60.8865 16.5508 59.9525 14.3572 60.375 14.3354C60.7974 14.3135 60.9433 15.1924 61.0351 15.0214C61.1269 14.8504 60.9715 13.5678 61.2648 13.5022C61.5581 13.4366 61.702 14.5107 61.6599 14.9084C61.6177 15.3061 61.8502 14.0482 62.1797 14.3C62.5092 14.5517 61.6551 16.6527 61.6551 16.6527L60.8865 16.5508Z" fill="#009E6C"/>
<path d="M60.9731 16.7167C60.9731 16.7167 60.2029 14.9049 60.5518 14.8874C60.9008 14.8699 61.0212 15.5948 61.0971 15.4541C61.173 15.3133 61.0454 14.2523 61.2871 14.1982C61.5287 14.1441 61.6491 15.0309 61.6134 15.3598C61.5776 15.6887 61.7723 14.6491 62.043 14.8571C62.3137 15.0651 61.6094 16.8006 61.6094 16.8006L60.9731 16.7167Z" fill="#00B37A"/>
<path d="M61.3773 21.6209C61.3773 21.6209 62.4476 17.5824 62.4476 17.4075C62.4476 16.8276 61.9591 16.3576 61.3562 16.3576C60.7533 16.3576 60.2653 16.8276 60.2653 17.4075C60.2653 17.6111 61.2044 20.9989 61.3562 21.5465C61.3697 21.5951 61.3773 21.6209 61.3773 21.6209Z" fill="#FC7F49"/>
<path d="M61.3773 21.6209C61.3773 21.6209 62.4476 17.5824 62.4476 17.4075C62.4476 16.8276 61.9591 16.3576 61.3562 16.3576V21.5465C61.3697 21.5951 61.3773 21.6209 61.3773 21.6209Z" fill="#F26533"/>
<path d="M37.0673 28.7812C36.8263 28.7812 36.631 28.5932 36.631 28.3612C36.631 28.1293 36.8263 27.9413 37.0673 27.9413C37.3083 27.9413 37.5037 28.1293 37.5037 28.3612C37.5037 28.5932 37.3083 28.7812 37.0673 28.7812Z" fill="#FFCE5C"/>
<path d="M37.0673 30.2777C36.8263 30.2777 36.631 30.0897 36.631 29.8577C36.631 29.6258 36.8263 29.4378 37.0673 29.4378C37.3083 29.4378 37.5037 29.6258 37.5037 29.8577C37.5037 30.0897 37.3083 30.2777 37.0673 30.2777Z" fill="#00B37A"/>
<path d="M37.0673 31.7742C36.8263 31.7742 36.631 31.5862 36.631 31.3542C36.631 31.1223 36.8263 30.9343 37.0673 30.9343C37.3083 30.9343 37.5037 31.1223 37.5037 31.3542C37.5037 31.5862 37.3083 31.7742 37.0673 31.7742Z" fill="#41BEE6"/>
<path d="M32.1678 28.4909H35.8397C35.8571 28.4913 35.8743 28.4882 35.8905 28.4819C35.9067 28.4755 35.9214 28.4661 35.934 28.4541C35.9465 28.442 35.9565 28.4276 35.9634 28.4117C35.9704 28.3958 35.9741 28.3786 35.9744 28.3612C35.9741 28.3439 35.9704 28.3267 35.9634 28.3108C35.9565 28.2949 35.9465 28.2805 35.934 28.2684C35.9214 28.2564 35.9067 28.2469 35.8905 28.2406C35.8743 28.2343 35.8571 28.2312 35.8397 28.2316H32.1678C32.1328 28.231 32.0989 28.2442 32.0736 28.2685C32.0484 28.2929 32.0338 28.3262 32.0331 28.3612C32.0338 28.3963 32.0484 28.4296 32.0736 28.4539C32.0989 28.4782 32.1328 28.4915 32.1678 28.4909Z" fill="#67D3F5"/>
<path d="M32.1678 29.9862H35.8397C35.8571 29.9866 35.8743 29.9835 35.8905 29.9772C35.9067 29.9709 35.9214 29.9614 35.934 29.9494C35.9465 29.9373 35.9565 29.9229 35.9634 29.907C35.9704 29.8911 35.9741 29.8739 35.9744 29.8566C35.9741 29.8392 35.9704 29.8221 35.9634 29.8061C35.9565 29.7902 35.9465 29.7758 35.934 29.7638C35.9214 29.7517 35.9067 29.7423 35.8905 29.7359C35.8743 29.7296 35.8571 29.7266 35.8397 29.7269H32.1678C32.1328 29.7263 32.0989 29.7396 32.0736 29.7639C32.0484 29.7882 32.0338 29.8215 32.0331 29.8566C32.0338 29.8916 32.0484 29.925 32.0736 29.9493C32.0989 29.9736 32.1328 29.9869 32.1678 29.9862Z" fill="#67D3F5"/>
<path d="M32.1678 31.4839H35.8397C35.8571 31.4842 35.8743 31.4812 35.8905 31.4748C35.9067 31.4685 35.9214 31.4591 35.934 31.447C35.9465 31.435 35.9565 31.4206 35.9634 31.4047C35.9704 31.3887 35.9741 31.3716 35.9744 31.3542C35.9741 31.3368 35.9704 31.3197 35.9634 31.3038C35.9565 31.2879 35.9465 31.2735 35.934 31.2614C35.9214 31.2494 35.9067 31.2399 35.8905 31.2336C35.8743 31.2273 35.8571 31.2242 35.8397 31.2246H32.1678C32.1504 31.2242 32.1331 31.2273 32.1169 31.2336C32.1007 31.2399 32.0859 31.2493 32.0734 31.2614C32.0608 31.2734 32.0508 31.2878 32.0438 31.3038C32.0368 31.3197 32.033 31.3368 32.0327 31.3542C32.033 31.3716 32.0368 31.3888 32.0438 31.4047C32.0508 31.4206 32.0608 31.435 32.0734 31.4471C32.0859 31.4591 32.1007 31.4685 32.1169 31.4749C32.1331 31.4812 32.1504 31.4842 32.1678 31.4839Z" fill="#67D3F5"/>
<path d="M31.8272 22.7436C31.8287 22.7409 31.83 22.7381 31.8312 22.7352C32.3367 21.6595 33.4607 20.9114 34.7686 20.9114C34.8028 20.9114 34.837 20.9114 34.8712 20.9114C36.6036 20.9639 37.991 22.3312 37.991 24.0106C37.991 25.7234 36.5483 27.1125 34.7686 27.1125C33.5636 27.1125 32.5136 26.4762 31.9607 25.5341C31.7137 25.1146 31.5725 24.6413 31.5492 24.155C31.526 23.6686 31.6214 23.1839 31.8272 22.7428V22.7436ZM34.7682 26.3852C36.1298 26.3852 37.2323 25.3229 37.2323 24.0122C37.2323 22.7352 36.1835 21.6937 34.8692 21.642C34.835 21.642 34.8008 21.64 34.7666 21.64C33.756 21.64 32.8876 22.225 32.5068 23.0625C32.5068 23.0653 32.504 23.0685 32.5029 23.0717C32.3498 23.4131 32.2825 23.7867 32.3068 24.1601C32.3311 24.5335 32.4463 24.8953 32.6424 25.214C32.8671 25.5749 33.1806 25.872 33.5528 26.0771C33.9251 26.2821 34.3437 26.3882 34.7686 26.3852H34.7682Z" fill="#41BEE6"/>
<path d="M31.8312 22.7352L32.5068 23.0717C32.8848 22.2294 33.7564 21.64 34.7722 21.64C34.8064 21.64 34.8406 21.64 34.8748 21.642V20.9131C34.8406 20.9131 34.8064 20.9131 34.7722 20.9131C33.4635 20.9115 32.3367 21.6595 31.8312 22.7352Z" fill="#00B37A"/>
<path d="M31.5458 24.0122C31.5454 24.5478 31.6887 25.0736 31.9607 25.5349L32.6423 25.214C32.4465 24.8951 32.3316 24.5332 32.3077 24.1597C32.2837 23.7862 32.3514 23.4125 32.5048 23.0713C32.5048 23.0681 32.5076 23.0649 32.5088 23.0621L31.8272 22.744C31.6416 23.1409 31.5455 23.5739 31.5458 24.0122Z" fill="#FFCE5C"/>
<path d="M46.5736 22.8044C45.91 22.8044 45.3721 22.2869 45.3721 21.6484C45.3721 21.0099 45.91 20.4923 46.5736 20.4923C47.2371 20.4923 47.775 21.0099 47.775 21.6484C47.775 22.2869 47.2371 22.8044 46.5736 22.8044Z" fill="#D2F7FF"/>
<path d="M43.8878 24.2289V27.7285C43.888 27.7925 43.9011 27.8557 43.9263 27.9144C43.9516 27.9732 43.9885 28.0261 44.0349 28.0702C44.1304 28.1616 44.2576 28.2124 44.3898 28.2117C44.4545 28.213 44.5187 28.2015 44.579 28.1779C44.6392 28.1543 44.6942 28.1191 44.7408 28.0742C44.7874 28.0293 44.8247 27.9757 44.8506 27.9164C44.8765 27.8571 44.8905 27.7933 44.8918 27.7285V24.3419C44.8914 24.3371 44.8914 24.3323 44.8918 24.3276C44.8981 24.3016 44.9129 24.2785 44.9339 24.2619C44.9549 24.2454 44.9809 24.2364 45.0076 24.2364C45.0343 24.2364 45.0603 24.2454 45.0813 24.2619C45.1023 24.2785 45.1171 24.3016 45.1235 24.3276C45.1241 24.3339 45.1241 24.3403 45.1235 24.3466V31.7101C45.1235 31.7741 45.1366 31.8373 45.1619 31.8961C45.1872 31.9548 45.2241 32.0078 45.2705 32.0518C45.366 32.1432 45.4933 32.1939 45.6254 32.1933C45.6901 32.1946 45.7544 32.1831 45.8146 32.1595C45.8748 32.1359 45.9298 32.1007 45.9764 32.0558C46.023 32.0109 46.0604 31.9573 46.0863 31.898C46.1122 31.8387 46.1261 31.7749 46.1274 31.7101V28.1032C46.1276 28.0467 46.1392 27.9908 46.1615 27.9389C46.1838 27.8871 46.2164 27.8402 46.2573 27.8013C46.3418 27.7207 46.4542 27.6759 46.5709 27.6764C46.6864 27.6743 46.798 27.718 46.8814 27.7979C46.9648 27.8779 47.0132 27.9876 47.016 28.1032V31.7101C47.0174 31.7764 47.0321 31.8417 47.0593 31.9022C47.0864 31.9626 47.1254 32.017 47.174 32.062C47.2226 32.1071 47.2798 32.1419 47.3421 32.1644C47.4044 32.1869 47.4705 32.1966 47.5367 32.1929C47.6655 32.189 47.7878 32.1354 47.878 32.0432C47.9682 31.9511 48.0192 31.8276 48.0204 31.6986V24.3391C48.0202 24.3354 48.0202 24.3317 48.0204 24.328C48.024 24.3005 48.0375 24.2754 48.0583 24.2571C48.0791 24.2389 48.1058 24.2288 48.1334 24.2288C48.1611 24.2288 48.1878 24.2389 48.2086 24.2571C48.2294 24.2754 48.2429 24.3005 48.2465 24.328C48.2469 24.3332 48.2469 24.3386 48.2465 24.3439V27.7273C48.2479 27.7936 48.2626 27.8589 48.2897 27.9194C48.3169 27.9798 48.3559 28.0342 48.4045 28.0792C48.4531 28.1243 48.5102 28.1591 48.5725 28.1816C48.6348 28.2041 48.701 28.2138 48.7671 28.2101C48.8965 28.2069 49.0196 28.1535 49.1104 28.0612C49.2011 27.9689 49.2525 27.8449 49.2536 27.7154V24.2289C49.2536 23.6388 48.756 23.1596 48.1408 23.1596H44.9979C44.7053 23.1583 44.4236 23.2706 44.2121 23.4729C44.1098 23.5704 44.0283 23.6877 43.9726 23.8177C43.9168 23.9476 43.888 24.0875 43.8878 24.2289Z" fill="#D2F7FF"/>
<path d="M48.0219 24.3275H45.1246C45.1252 24.3339 45.1252 24.3403 45.1246 24.3466V25.0386H48.0215V24.3391C48.0214 24.3352 48.0216 24.3314 48.0219 24.3275Z" fill="#FFCE5C"/>
<path d="M43.8877 24.3275V25.0386H44.8917V24.3419C44.8913 24.3371 44.8913 24.3323 44.8917 24.3275H43.8877Z" fill="#FFCE5C"/>
<path d="M45.1262 25.0386H48.0215V26.5741H45.1262V25.0386Z" fill="#00B37A"/>
<path d="M43.8873 25.0386H44.8917V26.5741H43.8873V25.0386Z" fill="#00B37A"/>
<path d="M45.1261 26.5621V31.7101C45.1262 31.7741 45.1393 31.8373 45.1646 31.8961C45.1899 31.9548 45.2268 32.0078 45.2732 32.0518C45.3687 32.1432 45.4959 32.1939 45.6281 32.1933C45.6928 32.1946 45.7571 32.1831 45.8173 32.1595C45.8775 32.1359 45.9325 32.1007 45.9791 32.0558C46.0257 32.0109 46.0631 31.9573 46.089 31.898C46.1149 31.8387 46.1288 31.7749 46.1301 31.7101V28.1032C46.1302 28.0467 46.1418 27.9908 46.1642 27.9389C46.1865 27.8871 46.2191 27.8402 46.26 27.8013C46.3445 27.7207 46.4569 27.6759 46.5736 27.6764C46.6886 27.675 46.7995 27.7191 46.8823 27.7989C46.9651 27.8788 47.0131 27.9881 47.0159 28.1032V31.7101C47.0173 31.7764 47.032 31.8417 47.0592 31.9022C47.0863 31.9626 47.1253 32.017 47.1739 32.062C47.2225 32.1071 47.2797 32.1419 47.342 32.1644C47.4043 32.1869 47.4705 32.1966 47.5366 32.1929C47.6654 32.189 47.7877 32.1354 47.8779 32.0432C47.9681 31.9511 48.0191 31.8276 48.0203 31.6986V26.5621H45.1261Z" fill="#41BEE6"/>
<path d="M43.8877 26.5621V27.7269C43.8879 27.7909 43.901 27.8541 43.9263 27.9128C43.9515 27.9716 43.9885 28.0245 44.0348 28.0686C44.1303 28.16 44.2575 28.2108 44.3897 28.2101C44.4544 28.2114 44.5187 28.1999 44.5789 28.1763C44.6391 28.1527 44.6941 28.1175 44.7407 28.0726C44.7873 28.0277 44.8247 27.9741 44.8506 27.9148C44.8765 27.8555 44.8904 27.7917 44.8917 27.7269V26.5621H43.8877Z" fill="#41BEE6"/>
<path d="M42.6187 24.6711H44.59V24.695H42.6187V24.6711Z" fill="#233844"/>
<path d="M42.6187 25.931H44.59V25.9549H42.6187V25.931Z" fill="#233844"/>
<path d="M42.6187 29.1761H45.6742V29.1999H42.6187V29.1761Z" fill="#233844"/>
<path d="M42.2368 25.0863C42.0055 25.0863 41.8179 24.9058 41.8179 24.6831C41.8179 24.4604 42.0055 24.2798 42.2368 24.2798C42.4682 24.2798 42.6557 24.4604 42.6557 24.6831C42.6557 24.9058 42.4682 25.0863 42.2368 25.0863Z" fill="#FFCE5C"/>
<path d="M42.2368 26.3462C42.0055 26.3462 41.8179 26.1656 41.8179 25.9429C41.8179 25.7202 42.0055 25.5397 42.2368 25.5397C42.4682 25.5397 42.6557 25.7202 42.6557 25.9429C42.6557 26.1656 42.4682 26.3462 42.2368 26.3462Z" fill="#00B37A"/>
<path d="M42.2368 29.5913C42.0055 29.5913 41.8179 29.4108 41.8179 29.188C41.8179 28.9653 42.0055 28.7848 42.2368 28.7848C42.4682 28.7848 42.6557 28.9653 42.6557 29.188C42.6557 29.4108 42.4682 29.5913 42.2368 29.5913Z" fill="#41BEE6"/>
<path d="M49.2536 24.3152H48.2481C48.2485 24.3207 48.2485 24.3261 48.2481 24.3316V25.0271H49.2536V24.3152Z" fill="#FFCE5C"/>
<path d="M48.2509 25.0271H49.2536V26.5637H48.2509V25.0271Z" fill="#00B37A"/>
<path d="M48.2505 26.5518V27.7194C48.2518 27.7856 48.2664 27.8509 48.2934 27.9114C48.3205 27.9719 48.3594 28.0263 48.4079 28.0714C48.4564 28.1165 48.5135 28.1513 48.5758 28.1739C48.638 28.1964 48.7042 28.2062 48.7703 28.2026C48.8991 28.1986 49.0214 28.1448 49.1115 28.0526C49.2016 27.9604 49.2525 27.8368 49.2536 27.7079V26.5546L48.2505 26.5518Z" fill="#41BEE6"/>
<g opacity="0.5">
<path opacity="0.5" d="M31.8133 36.0739H37.7239C37.8003 36.0753 37.8742 36.0463 37.9292 35.9933C37.9843 35.9403 38.0161 35.8676 38.0176 35.7912C38.0169 35.7533 38.0087 35.716 37.9936 35.6813C37.9784 35.6465 37.9566 35.6152 37.9293 35.5889C37.9021 35.5627 37.8699 35.542 37.8346 35.5282C37.7994 35.5144 37.7618 35.5077 37.7239 35.5084H31.8133C31.7368 35.5069 31.6629 35.5359 31.6077 35.5889C31.5526 35.6419 31.5207 35.7147 31.5192 35.7912C31.5207 35.8677 31.5526 35.9404 31.6077 35.9935C31.6629 36.0465 31.7368 36.0754 31.8133 36.0739Z" fill="#67D3F5"/>
<path opacity="0.5" d="M31.8132 37.3358H37.7239C37.8003 37.3371 37.8741 37.3082 37.9291 37.2552C37.9842 37.2021 38.016 37.1294 38.0176 37.053C38.0169 37.0151 38.0087 36.9778 37.9935 36.9431C37.9784 36.9084 37.9565 36.877 37.9293 36.8508C37.902 36.8245 37.8698 36.8039 37.8346 36.7901C37.7993 36.7762 37.7617 36.7695 37.7239 36.7703H31.8132C31.7368 36.7688 31.6628 36.7977 31.6077 36.8507C31.5525 36.9037 31.5207 36.9765 31.5191 37.053C31.5207 37.1295 31.5525 37.2023 31.6077 37.2553C31.6628 37.3083 31.7368 37.3373 31.8132 37.3358Z" fill="#67D3F5"/>
<path opacity="0.5" d="M31.8132 38.5976H37.7239C37.7617 38.5983 37.7993 38.5916 37.8346 38.5778C37.8698 38.564 37.902 38.5434 37.9293 38.5171C37.9565 38.4909 37.9784 38.4595 37.9935 38.4248C38.0087 38.3901 38.0169 38.3527 38.0176 38.3149C38.0169 38.277 38.0087 38.2396 37.9935 38.2049C37.9784 38.1702 37.9565 38.1388 37.9293 38.1126C37.902 38.0863 37.8698 38.0657 37.8346 38.0519C37.7993 38.0381 37.7617 38.0314 37.7239 38.0321H31.8132C31.7368 38.0306 31.6628 38.0595 31.6077 38.1126C31.5525 38.1656 31.5207 38.2383 31.5191 38.3149C31.5207 38.3914 31.5525 38.4641 31.6077 38.5171C31.6628 38.5702 31.7368 38.5991 31.8132 38.5976Z" fill="#67D3F5"/>
<path opacity="0.5" d="M31.8132 39.8595H37.7239C37.7617 39.8602 37.7993 39.8535 37.8346 39.8397C37.8698 39.8259 37.902 39.8052 37.9293 39.779C37.9565 39.7527 37.9784 39.7213 37.9935 39.6866C38.0087 39.6519 38.0169 39.6146 38.0176 39.5767C38.016 39.5003 37.9842 39.4276 37.9291 39.3746C37.8741 39.3216 37.8003 39.2926 37.7239 39.294H31.8132C31.7368 39.2925 31.6628 39.3214 31.6077 39.3744C31.5525 39.4275 31.5207 39.5002 31.5191 39.5767C31.5207 39.6532 31.5525 39.726 31.6077 39.779C31.6628 39.832 31.7368 39.861 31.8132 39.8595Z" fill="#67D3F5"/>
</g>
<path d="M41.8299 37.4626C41.8299 38.8788 42.6856 40.1013 43.9272 40.6787L43.9558 40.6918C44.0114 40.7177 44.0687 40.7419 44.1259 40.7646C44.7196 40.9994 45.3625 41.0823 45.9964 41.006C46.6302 40.9296 47.235 40.6963 47.7561 40.3271C47.9019 40.2227 48.0398 40.1076 48.1686 39.9827C48.4952 39.6685 48.759 39.2949 48.946 38.882C49.1482 38.4361 49.253 37.9522 49.2536 37.4626C49.2536 35.4905 47.5915 33.8914 45.5412 33.8914C45.0797 33.8905 44.6218 33.9734 44.1899 34.136C44.1219 34.1615 44.0548 34.1893 43.9888 34.2183C42.7146 34.7826 41.8299 36.0226 41.8299 37.4626Z" fill="#41BEE6"/>
<path d="M41.8298 37.4627C41.8298 38.8788 42.6855 40.1013 43.927 40.6787L45.5355 37.333L43.9894 34.2184C42.7145 34.7827 41.8298 36.0226 41.8298 37.4627Z" fill="#FFCE5C"/>
<path d="M43.9558 40.691C44.0114 40.7175 44.0681 40.7417 44.1259 40.7634C44.804 41.0321 45.5448 41.1014 46.261 40.9631C46.9772 40.8248 47.639 40.4847 48.1686 39.9827L45.5336 37.3318L43.9558 40.691Z" fill="#00B37A"/>
<path d="M45.5355 37.3318L47.756 40.3279C47.9018 40.2231 48.0397 40.1077 48.1685 39.9827C48.4951 39.6684 48.7589 39.2949 48.9459 38.882L45.5355 37.3318Z" fill="#00B37A"/>
<g opacity="0.5">
<path opacity="0.5" d="M31.8248 44.4643H37.712C37.7882 44.4657 37.8618 44.4368 37.9167 44.3839C37.9717 44.3311 38.0034 44.2586 38.0049 44.1823C38.0034 44.1061 37.9717 44.0336 37.9167 43.9808C37.8618 43.9279 37.7882 43.899 37.712 43.9004H31.8248C31.787 43.8997 31.7494 43.9065 31.7142 43.9203C31.679 43.9342 31.6469 43.9549 31.6197 43.9812C31.5925 44.0075 31.5707 44.0389 31.5557 44.0736C31.5406 44.1083 31.5325 44.1457 31.5319 44.1835C31.5338 44.2595 31.5657 44.3317 31.6205 44.3843C31.6754 44.4369 31.7489 44.4657 31.8248 44.4643Z" fill="#67D3F5"/>
<path opacity="0.5" d="M31.8249 45.7218H37.7121C37.7882 45.7232 37.8619 45.6944 37.9168 45.6416C37.9717 45.5888 38.0034 45.5164 38.005 45.4402C38.0043 45.4024 37.9961 45.3652 37.981 45.3306C37.9659 45.296 37.9441 45.2647 37.9169 45.2385C37.8897 45.2123 37.8576 45.1917 37.8225 45.178C37.7873 45.1642 37.7498 45.1575 37.7121 45.1582H31.8249C31.7872 45.1575 31.7496 45.1642 31.7145 45.178C31.6794 45.1917 31.6473 45.2123 31.6201 45.2385C31.5929 45.2647 31.5711 45.296 31.556 45.3306C31.5409 45.3652 31.5327 45.4024 31.532 45.4402C31.5336 45.5164 31.5653 45.5888 31.6202 45.6416C31.6751 45.6944 31.7488 45.7232 31.8249 45.7218Z" fill="#67D3F5"/>
<path opacity="0.5" d="M31.7856 46.4161H37.7514C37.8915 46.4161 38.005 46.5297 38.005 46.6698V46.7259C38.005 46.866 37.8915 46.9796 37.7514 46.9796H31.7856C31.6455 46.9796 31.532 46.866 31.532 46.7259V46.6698C31.532 46.5297 31.6455 46.4161 31.7856 46.4161Z" fill="#67D3F5"/>
<path opacity="0.5" d="M31.8249 48.2371H37.7121C37.7882 48.2386 37.8619 48.2098 37.9168 48.157C37.9717 48.1042 38.0034 48.0317 38.005 47.9555C38.0043 47.9178 37.9961 47.8805 37.981 47.8459C37.9659 47.8113 37.9441 47.78 37.9169 47.7538C37.8897 47.7277 37.8576 47.7071 37.8225 47.6933C37.7873 47.6795 37.7498 47.6728 37.7121 47.6736H31.8249C31.7872 47.6728 31.7496 47.6795 31.7145 47.6933C31.6794 47.7071 31.6473 47.7277 31.6201 47.7538C31.5929 47.78 31.5711 47.8113 31.556 47.8459C31.5409 47.8805 31.5327 47.9178 31.532 47.9555C31.5336 48.0317 31.5653 48.1042 31.6202 48.157C31.6751 48.2098 31.7488 48.2386 31.8249 48.2371Z" fill="#67D3F5"/>
</g>
<path d="M41.8272 46.3366C41.8272 47.8279 42.7758 49.1056 44.1247 49.6409C44.5756 49.82 45.0565 49.9113 45.5416 49.9101C47.5931 49.9101 49.2564 48.3103 49.2564 46.3362C49.2564 44.3621 47.5931 42.7622 45.5416 42.7622C45.0801 42.7614 44.6223 42.8441 44.1903 43.0064C42.8068 43.5269 41.8272 44.8218 41.8272 46.3366Z" fill="#41BEE6"/>
<path d="M41.827 46.3365C41.8265 46.8863 41.9576 47.4283 42.2093 47.9169C42.6185 48.7044 43.2989 49.3169 44.1246 49.6409L45.5764 46.3238L44.1898 43.0067C42.8067 43.5269 41.827 44.8218 41.827 46.3365Z" fill="#00B37A"/>
<path d="M41.874 46.9064C41.9328 47.2586 42.046 47.5995 42.2094 47.9169L45.5415 46.3365L41.874 46.9064Z" fill="#FFCE5C"/>
<path d="M9.47236 36.1105C9.69651 38.1558 12.1423 38.8442 12.634 40.2719C12.6381 40.2818 12.6417 40.2921 12.6447 40.3025C13.1121 41.7504 13.1216 44.2566 15.4502 43.5941C17.7787 42.9316 19.1956 40.1975 18.0887 36.1503C16.9819 32.103 19.2675 31.9905 20.2349 30.7278C21.2023 29.4652 20.6856 26.0901 20.3978 24.9404C20.1101 23.7907 21.2571 23.873 21.2571 23.873L21.7789 23.5246L22.329 23.1568C22.329 23.1568 21.0047 20.6828 18.7747 21.8663C16.5447 23.0498 16.6763 27.0393 14.2356 28.9164C11.795 30.7935 9.24661 34.0497 9.47236 36.1105Z" fill="#1D2F54"/>
<path d="M12.634 40.2711C12.6381 40.2811 12.6417 40.2913 12.6447 40.3017C13.1121 41.7497 13.1216 44.2559 15.4502 43.5933C17.7787 42.9308 19.1956 40.1975 18.0887 36.1503C16.9819 32.1031 19.2675 31.9905 20.2349 30.7279C21.2023 29.4652 20.6856 26.0901 20.3978 24.9404C20.1101 23.7907 21.2571 23.873 21.2571 23.873L21.7789 23.5246C21.4514 23.1874 20.1693 21.9932 19.2016 22.8748C18.0836 23.8933 19.9567 25.5278 18.7696 28.228C17.5824 30.9283 15.5865 30.1767 14.856 32.8949C14.1255 35.613 15.3806 37.6189 14.0071 38.7261C13.5218 39.1162 13.0469 39.6897 12.634 40.2711Z" fill="black"/>
<path d="M21.8004 24.4377L22.5698 23.8885C22.6245 23.8506 22.6708 23.8019 22.7061 23.7455C22.7413 23.689 22.7647 23.626 22.7748 23.5602C22.7849 23.4944 22.7816 23.4273 22.7649 23.3628C22.7482 23.2984 22.7186 23.238 22.6779 23.1854L22.6513 23.1512C22.566 23.0435 22.4426 22.9726 22.3066 22.9532C22.1706 22.9338 22.0324 22.9674 21.9204 23.047L21.1514 23.5962C21.0967 23.6342 21.0503 23.6828 21.015 23.7393C20.9797 23.7958 20.9563 23.8589 20.9462 23.9247C20.9361 23.9905 20.9394 24.0577 20.9561 24.1222C20.9728 24.1867 21.0025 24.2471 21.0433 24.2997L21.0695 24.3339C21.1549 24.4416 21.2783 24.5124 21.4142 24.5317C21.5502 24.551 21.6885 24.5174 21.8004 24.4377Z" fill="#67D3F5"/>
<path d="M22.2387 28.681C22.2387 28.681 21.0861 27.8248 20.9271 26.6747C20.6914 24.9547 21.3643 24.149 21.9235 23.768C22.4827 23.3871 23.5426 23.0777 25.0438 23.5692C26.5449 24.0607 26.4137 25.8857 26.0664 26.4635C25.719 27.0414 22.2387 28.681 22.2387 28.681Z" fill="#1D2F54"/>
<path d="M22.4824 27.3849C22.3361 27.5754 21.8795 27.4895 21.4622 27.1932C21.0448 26.897 20.8263 26.5021 20.9721 26.3116C21.118 26.1211 21.575 26.207 21.9919 26.5033C22.4088 26.7995 22.6286 27.1944 22.4824 27.3849Z" fill="#FEC5B2"/>
<path d="M21.3219 31.2874C21.3219 31.2874 21.6144 32.6145 23.6644 32.56C24.5538 32.5369 25.1893 31.4119 25.1893 31.4119C25.1893 31.4119 24.5252 31.1936 24.4569 30.7756C24.4358 30.644 24.4231 30.3159 24.4171 29.9277C24.402 29.0819 24.4127 27.9512 24.4127 27.9512L22.1637 27.5138C22.1637 27.5138 22.1978 27.8459 22.2308 28.2865C22.2781 28.9109 22.3234 29.7528 22.2674 30.1739C22.1704 30.8949 21.3219 31.2874 21.3219 31.2874Z" fill="#FEC5B2"/>
<path d="M22.1691 27.6915C22.1691 27.6915 23.059 30.2196 24.045 30.1572C24.1724 30.1522 24.299 30.1348 24.423 30.1051C24.4075 29.2592 24.4186 28.1286 24.4186 28.1286L22.1691 27.6915Z" fill="#ED9487"/>
<path d="M21.9776 26.8186C21.9959 28.2646 22.8122 29.4271 23.9083 29.4143C25.0045 29.4016 25.8792 28.2189 25.8605 26.7729C25.8605 26.7411 25.8605 26.7097 25.8578 26.6783C25.8519 26.5246 25.8357 26.3716 25.8093 26.2201C25.7716 26.0051 25.7121 25.7944 25.6316 25.5914C25.293 24.7439 24.615 24.1689 23.8432 24.178C23.1019 24.1868 22.4919 24.6342 22.1648 25.4176C22.1383 25.4775 22.1147 25.5397 22.0941 25.6041C22.0877 25.6232 22.0813 25.6439 22.0754 25.6614C21.9724 25.9831 21.9748 26.5586 21.9776 26.8186Z" fill="#FEC5B2"/>
<path d="M25.7798 26.0726C25.7798 26.0726 25.4051 25.1794 24.4385 25.0653C23.4719 24.9511 23.2859 24.4838 23.2859 24.4838C23.2859 24.4838 23.4847 24.7678 23.1015 25.4745C22.7184 26.1812 21.9668 26.411 21.9668 26.411L21.8897 26.0428C21.8278 25.7394 21.854 25.4246 21.9652 25.1357C22.0764 24.8467 22.268 24.5957 22.5173 24.4123L22.875 24.1426C23.1139 23.9649 23.3936 23.8502 23.6885 23.8091C23.9833 23.768 24.2837 23.8017 24.5621 23.9072C24.8179 24.0016 25.0467 24.1571 25.2288 24.3602C25.4108 24.5633 25.5405 24.8078 25.6066 25.0724L25.7798 26.0726Z" fill="#1D2F54"/>
<path d="M25.1857 50.7997C25.1932 50.8515 25.1942 50.904 25.1889 50.956C25.1031 51.5617 24.7843 53.5179 24.8416 54.7825C24.8511 54.9945 24.8678 55.3258 24.8884 55.7322C24.9902 57.7473 25.1814 61.6179 25.0224 62.0526C24.9385 62.282 24.7998 62.4423 24.7021 62.5942C24.7021 62.5942 24.6969 62.6014 24.6889 62.6149C24.6417 62.6853 24.6092 62.7646 24.5936 62.8479C24.5757 62.9672 24.6083 63.0961 24.7271 63.2631C25.0991 63.7861 28.0175 65.0801 27.8458 64.5297C27.7703 64.2872 27.5334 63.9642 27.2774 63.6226C26.9523 63.1888 26.5966 62.7243 26.5001 62.3548C26.3669 61.8466 27.595 56.4043 28.2984 53.5767C28.579 52.4469 28.7062 51.2555 28.7356 50.0982C28.831 46.4857 27.99 43.2127 27.99 43.2127L25.5887 40.7869L25.2604 40.4548L24.9079 40.0989L24.4397 40.0814C24.4397 40.0814 24.3781 40.1752 24.2832 40.3442C23.8929 41.0382 22.9386 42.9956 23.3524 44.8993C23.5713 45.9062 24.3531 47.9949 24.8229 49.4536C25.0152 50.0429 25.1543 50.5285 25.1857 50.7997Z" fill="#FEC5B2"/>
<path d="M24.702 64.1727L24.7842 65.7336H25.2993L25.4424 64.1727H24.702Z" fill="#FE4C5C"/>
<path d="M24.8951 64.1727L24.9774 65.7336H25.2993L25.4424 64.1727H24.8951Z" fill="#E64553"/>
<path d="M24.702 62.5963C24.702 62.5963 24.4504 62.9542 24.5648 63.6302C24.6793 64.3063 24.702 64.1739 24.702 64.1739C25.2161 64.3594 25.7181 64.5769 26.2051 64.8253C26.5516 65.003 26.8871 65.4464 27.2161 65.6147C27.7249 65.8743 29.0948 65.7157 29.2733 65.6055C29.8297 65.2611 27.2773 63.6243 27.2773 63.6243C27.2773 63.6243 27.2877 63.9675 26.7583 63.8159C26.2289 63.6644 24.702 62.5963 24.702 62.5963Z" fill="#FE4C5C"/>
<path d="M23.3536 44.8993C23.6818 46.4105 25.2752 50.3476 25.1893 50.9548C25.1035 51.5621 24.7843 53.5167 24.8416 54.7813C24.8511 54.9933 24.8678 55.3246 24.8884 55.731C25.2024 54.6056 26.7476 52.6247 26.5283 49.9646L24.9091 40.1021L24.4409 40.0846C24.4409 40.0846 22.8385 42.5327 23.3536 44.8993Z" fill="#ED9487"/>
<path d="M19.2822 63.0921C19.6109 63.6413 22.4164 65.1493 22.2896 64.5874C22.1628 64.0255 21.242 62.9903 21.1231 62.3206C21.0313 61.8036 23.2514 55.8229 24.2811 53.09C24.5568 52.3589 24.7142 51.5884 24.7473 50.8077C24.755 50.6367 24.7563 50.4656 24.7513 50.2943L24.8256 49.4568L25.5899 40.79L25.6157 40.4982L25.2616 40.4584L24.2843 40.3478L21.5202 40.0356C21.5202 40.0356 19.6395 42.3963 19.9626 44.7955C20.1347 46.0788 21.2125 49.1382 21.4752 50.4426C21.5257 50.6924 21.5464 50.8801 21.5245 50.9739C21.3906 51.5705 20.1244 53.3823 20.0799 54.6473C20.0353 55.9124 19.907 61.402 19.6741 61.9094C19.4412 62.4169 18.9539 62.5429 19.2822 63.0921Z" fill="#FEC5B2"/>
<path d="M19.184 63.9961L19.1403 65.5586L19.6538 65.5968L19.9224 64.0514L19.184 63.9961Z" fill="#FE4C5C"/>
<path d="M19.3768 64.0108L19.3326 65.5729L19.6538 65.5968L19.9224 64.0514L19.3768 64.0108Z" fill="#E64553"/>
<path d="M19.3112 62.4229C19.3112 62.4229 19.033 62.7629 19.0915 63.4437C19.1499 64.1245 19.1841 63.9961 19.1841 63.9961C19.6817 64.2193 20.1648 64.4738 20.6303 64.758C20.9614 64.9609 21.2603 65.4281 21.575 65.6202C22.0607 65.9169 23.4394 65.8588 23.6266 65.7646C24.2104 65.4631 21.796 63.6406 21.796 63.6406C21.796 63.6406 21.7789 63.983 21.2634 63.7925C20.748 63.602 19.3112 62.4229 19.3112 62.4229Z" fill="#FE4C5C"/>
<path d="M19.9626 44.7931C20.1346 46.0765 21.2125 49.1358 21.4752 50.4402C22.4028 50.6192 23.6086 50.7982 24.7473 50.8061C24.755 50.6351 24.7563 50.464 24.7512 50.2927L24.8256 49.4552C25.0151 50.0434 25.1542 50.5289 25.1856 50.8001C25.5354 50.7903 25.8839 50.7551 26.2285 50.6948C27.0752 50.5434 27.9126 50.3442 28.7367 50.0982C28.8321 46.4857 27.9911 43.2127 27.9911 43.2127L25.5898 40.7869L25.6157 40.495L25.2616 40.4552L24.909 40.0993L24.4408 40.0818C24.4408 40.0818 24.3792 40.1756 24.2843 40.3447L21.5201 40.0325C21.5201 40.0325 19.6394 42.3939 19.9626 44.7931Z" fill="#ED9487"/>
<path d="M26.0624 32.9438C26.0624 32.9438 26.3207 34.822 26.5282 34.9767C27.1013 35.4038 27.7884 35.8974 28.4792 36.3487C28.5571 36.3999 28.635 36.4504 28.7129 36.5002C29.7859 37.1866 30.8352 37.7406 31.4389 37.7525C31.6503 37.7565 31.9623 37.5788 32.3239 37.2952C33.6299 36.2696 35.5829 33.858 35.7729 33.621L35.7884 33.6023L35.7824 33.596C36.1004 33.3804 36.9135 32.8093 37.1393 32.4908C37.4214 32.0931 37.9894 31.39 38.024 31.1784C38.0585 30.9669 37.7656 31.1275 37.7656 31.1275C37.7656 31.1275 38.1046 30.6416 37.9516 30.4467C37.8054 30.2594 36.2669 31.3085 35.9402 31.5499C35.9413 31.4759 35.9467 31.4021 35.9561 31.3288C35.9803 31.1407 36.0304 30.6837 35.935 30.5433C35.8993 30.4908 35.699 30.4475 35.7161 30.5079C35.7379 30.5835 35.6286 31.0074 35.4641 31.3479C35.3286 31.6286 35.0432 31.8947 34.9728 32.2347C34.9409 32.3869 34.9166 32.5406 34.9001 32.6952C34.8961 32.735 34.8934 32.768 34.8918 32.7934C34.3417 33.1116 31.9484 34.4876 31.5509 34.7345C31.2429 34.9262 30.9317 35.3076 30.9317 35.3076L30.6825 35.0813C30.4616 34.8825 30.1929 34.6407 29.8952 34.3818C29.2061 33.7853 28.3619 33.0814 27.5973 32.5159C27.417 32.3829 27.2052 32.2992 26.9828 32.2729C26.8205 32.2539 26.6562 32.2651 26.4979 32.3059C26.1983 32.3842 26.2396 32.6662 26.0624 32.9438Z" fill="#FEC5B2"/>
<path d="M26.9833 32.2737L27.2702 35.2583C27.2702 35.2583 30.782 37.6583 31.9838 37.4221C32.1025 37.3955 32.2169 37.3528 32.324 37.2952C33.63 36.2696 35.583 33.858 35.7729 33.621L34.8986 32.6964C34.8946 32.7362 34.8918 32.7692 34.8902 32.7946C34.3402 33.1128 31.9468 34.4887 31.5494 34.7357C31.2414 34.9274 30.9302 35.3088 30.9302 35.3088L30.681 35.0825C30.46 34.8836 30.1914 34.6419 29.8937 34.383C29.2045 33.7864 28.3604 33.0825 27.5957 32.517C27.416 32.3843 27.205 32.3004 26.9833 32.2737Z" fill="#ED9487"/>
<path d="M26.6602 31.6266L27.0413 35.5884C27.0413 35.5884 27.1033 35.6313 27.2146 35.7045C27.9364 36.1817 30.712 37.957 31.7549 37.7526C32.9564 37.5163 35.6748 34.0891 35.6748 34.0891L34.4428 32.7851L30.937 34.9258L27.6752 32.142C27.5675 32.051 27.2357 31.8215 27.1912 31.7988C27.0219 31.7137 26.8486 31.6724 26.6602 31.6266Z" fill="#67D3F5"/>
<path d="M11.7961 47.1764C11.8914 47.1832 12.6704 46.7115 12.8882 46.5429C13.106 46.3743 14.408 46.0454 14.408 46.0454C13.7987 46.6479 13.7455 47.3307 14.1751 46.9259C14.6047 46.5211 14.9831 46.4165 15.2879 46.0033C15.4805 45.7361 15.6311 45.4411 15.7346 45.1284L15.7553 45.1021C16.0411 44.7442 19.1887 40.7713 19.5027 39.7402C19.7364 38.971 19.775 38.2317 19.8719 37.6475C19.902 37.434 19.9567 37.2246 20.0349 37.0236C20.1939 36.6486 20.5448 35.5064 20.7769 34.3989C20.7904 34.3356 20.8031 34.2724 20.8166 34.2096C20.945 33.5633 21.0269 32.9445 20.9983 32.5162C20.9685 32.0665 20.6994 31.8692 20.3751 31.8004C20.2066 31.7635 20.0319 31.7659 19.8644 31.8072C19.697 31.8486 19.5413 31.9279 19.4093 32.039C19.2618 32.1626 19.1493 32.3228 19.083 32.5035C19.0574 32.5731 19.0394 32.6452 19.0294 32.7187C18.8585 33.9157 18.5163 36.1439 18.1948 37.2336C18.1109 37.5167 18.0286 37.7231 17.9515 37.8146C17.4555 38.3988 17.231 38.3045 16.7417 39.4145C16.2525 40.5244 15.0224 44.5271 15.0224 44.5271C15.0133 44.5271 14.9004 44.5704 14.7299 44.636C14.1966 44.8428 13.1004 45.2775 12.8918 45.3674C12.6136 45.4867 12.2615 45.7973 12.1418 46.0065C12.0222 46.2156 11.8879 46.3644 11.8402 46.5322C11.7925 46.7 11.9197 46.743 11.9197 46.743C11.6168 47.0114 11.7007 47.1693 11.7961 47.1764Z" fill="#FEC5B2"/>
<path d="M14.7288 44.6365L15.7569 45.103C16.0427 44.745 19.1904 40.7722 19.5043 39.741C19.738 38.9719 19.7766 38.2326 19.8735 37.6484C19.9036 37.4348 19.9583 37.2254 20.0365 37.0244C20.1955 36.6494 20.5464 35.5073 20.7785 34.3997L20.1939 31.8243C19.7626 31.9311 19.3747 32.1686 19.0834 32.5044C19.0578 32.5739 19.0398 32.646 19.0298 32.7195C18.8589 33.9165 18.5167 36.1447 18.1952 37.2344C18.1113 37.5175 18.029 37.7239 17.9519 37.8154C17.4559 38.3996 17.2314 38.3054 16.7422 39.4153C16.2529 40.5252 15.0225 44.5271 15.0225 44.5271C15.0121 44.5283 14.8993 44.5709 14.7288 44.6365Z" fill="#ED9487"/>
<path d="M20.3704 31.429C20.3704 31.429 18.9599 31.6903 18.6785 33.4015C18.3971 35.1128 18.3065 36.309 17.4464 37.3553C16.5864 38.4016 14.4704 44.0455 14.4704 44.0455L16.4735 44.9538C16.4735 44.9538 19.5636 40.8243 19.7066 39.6129C19.8497 38.4016 21.3198 35.621 21.3198 35.621L20.3704 31.429Z" fill="#67D3F5"/>
<path d="M26.6601 31.6266L27.0413 35.5884C27.0413 35.5884 27.1033 35.6313 27.2146 35.7045C27.3974 35.5017 27.5619 35.2559 27.6223 34.9887C27.7598 34.373 27.1224 31.7774 27.0775 31.7543C27.0775 31.7531 26.6991 31.6752 26.6601 31.6266Z" fill="#41BEE6"/>
<path d="M19.9347 49.4691C19.9347 49.4691 23.8017 50.5428 26.2913 50.0883C28.7808 49.6337 30.0232 49.0543 30.0232 49.0543L28.4557 42.8711C28.3201 42.3372 28.1653 41.808 27.9915 41.2836L26.3096 36.2175C26.3096 36.2175 27.2348 35.6576 27.3969 34.9326C27.5515 34.2394 27.0917 31.7571 27.0917 31.7571L24.6121 31.0047L24.5457 30.9844C24.1541 31.1843 23.7236 31.2963 23.2843 31.3125C22.845 31.3287 22.4074 31.2488 22.0022 31.0782L21.8034 30.9943L21.78 30.9844L20.3727 31.429C20.3727 31.429 19.6863 34.7469 20.5376 35.6015L21.1509 36.2175C21.1509 36.2175 20.3015 39.8881 20.0563 42.2834C19.8111 44.6786 19.9347 49.4691 19.9347 49.4691Z" fill="#67D3F5"/>
<path d="M21.8015 30.9943C22.0407 31.3203 22.2973 31.6332 22.5701 31.9317C23.1265 32.5373 24.1293 34.3269 24.1293 34.3269C24.1293 34.3269 24.3216 34.2307 24.6153 33.1979C24.8049 32.5334 24.8876 31.6266 24.6114 31.0047L24.545 30.9844C24.1534 31.1843 23.7229 31.2963 23.2836 31.3125C22.8442 31.3287 22.4067 31.2488 22.0014 31.0782L21.8015 30.9943Z" fill="white"/>
<path d="M53.6405 52.6144C54.0654 54.404 59.1215 58.4667 59.1215 58.4667L59.1795 58.4087L59.1879 58.4003L59.5579 58.6548L59.6398 58.7113L60.0412 58.9897C60.2129 59.109 60.3822 59.2259 60.5459 59.3408C61.5073 60.0145 62.2895 60.5832 62.3296 60.6798C62.3865 60.817 62.326 60.9864 62.2068 61.1753C62.179 61.1753 62.1504 61.1753 62.1202 61.1753C61.8781 61.1881 61.7585 61.2787 61.7585 61.2787L61.4505 62.1282L61.4143 62.1771C61.3485 62.2658 61.2875 62.3579 61.2315 62.4531C61.1997 62.5088 61.1712 62.5643 61.1461 62.6197C61.0729 62.786 61.0388 62.9494 61.0666 63.1033C61.1306 63.4401 61.2494 63.6362 61.3682 63.7503C61.5403 63.9186 61.7124 63.9138 61.7124 63.9138L65.3974 60.5311C65.295 60.3939 65.1824 60.2647 65.0604 60.1445C64.8354 59.9159 64.5782 59.7215 64.2969 59.5675C64.1646 59.4975 64.0656 59.4482 63.9873 59.4084C63.6722 59.2545 63.4822 59.509 62.8578 59.0903C62.6905 58.9781 61.8392 57.8897 61.2414 57.1126L61.1707 57.0203L60.9108 56.6807C60.9108 56.6807 59.422 53.6806 58.8401 53.0884C58.3934 52.6343 57.9606 52.1813 57.5199 51.9507C57.1439 51.7538 57.1395 51.3414 57.5532 51.2348C57.6776 51.2026 57.8092 51.1696 57.9463 51.1362C58.8061 50.9255 59.6762 50.7592 60.5531 50.6379C62.8133 50.3349 64.8259 49.7749 65.2826 47.9854C65.7392 46.1958 65.521 46.1699 65.521 46.1699L59.0381 45.6796C59.0381 45.6796 57.2468 46.8412 55.584 48.3353C55.1086 48.7585 54.6575 49.208 54.2327 49.6819C53.2745 50.7628 53.4231 51.6997 53.6405 52.6144Z" fill="#FEC5B2"/>
<path d="M61.6983 63.9941L65.472 60.6078C65.472 60.6078 64.9124 59.8606 64.2328 59.5341C64.0977 59.4684 63.9399 59.3933 63.8596 59.3563C63.6656 59.5154 63.3855 59.8069 63.269 60.2189C63.0834 60.8766 62.7674 61.3873 62.4924 61.5014C62.3168 61.5742 62.0688 61.5531 61.9122 61.528C61.7834 61.7002 61.6379 61.8462 61.504 62.0307C61.4674 62.0811 61.4318 62.1319 61.3971 62.183C61.335 62.274 61.2778 62.3683 61.2258 62.4654C61.1964 62.5205 61.1699 62.577 61.1463 62.6348C61.0799 62.8038 61.0199 62.9927 61.0553 63.1466C61.2441 63.9615 61.6983 63.9941 61.6983 63.9941Z" fill="#E64553"/>
<path d="M61.4615 62.0984L61.7358 61.2382C61.7358 61.2382 61.8518 61.1435 62.0935 61.1221C62.2388 61.1092 62.3849 61.1354 62.5167 61.198L61.8776 62.2622L61.4615 62.0984Z" fill="#E64553"/>
<path d="M61.3971 62.218C61.5009 62.2905 61.6149 62.3471 61.7354 62.3859C61.9351 62.4406 62.142 62.4648 62.349 62.4575L62.3399 62.2741C62.1559 62.28 61.972 62.2588 61.7942 62.2113C61.6907 62.1776 61.5929 62.1286 61.5041 62.0657C61.4675 62.1164 61.4319 62.1671 61.3971 62.218Z" fill="white"/>
<path d="M61.1468 62.6698C61.2293 62.7199 61.3168 62.7614 61.4079 62.7935C61.6081 62.8589 61.8173 62.8929 62.0279 62.8945L62.0251 62.7108C61.8375 62.7086 61.6512 62.6782 61.4727 62.6205C61.3861 62.5903 61.3033 62.5503 61.2259 62.5012C61.1966 62.556 61.1702 62.6123 61.1468 62.6698Z" fill="white"/>
<path d="M54.8244 52.1566C55.2826 53.461 58.2495 57.2426 59.1775 58.4098L59.1858 58.4015L59.5559 58.656L61.1678 57.0223L60.9079 56.6827C60.9079 56.6827 59.4191 53.6826 58.8373 53.0904C58.3906 52.6362 57.9578 52.1833 57.517 51.9526C57.141 51.7558 57.1367 51.3434 57.5504 51.2368C57.6748 51.2046 57.8063 51.1716 57.9435 51.1382L57.8222 50.9433L60.6595 46.3342L59.5201 45.9818C59.5201 45.9818 57.0759 47.3737 55.5807 48.3373C55.0609 48.6713 54.6567 48.9533 54.5076 49.1068C54.3543 49.2638 54.256 49.4662 54.2274 49.6838C54.1448 50.2569 54.4325 51.038 54.8244 52.1566Z" fill="#ED9487"/>
<path d="M61.0975 56.4652L59.1214 58.4679C59.1214 58.4679 55.0314 53.4173 54.4877 51.8664C53.944 50.3154 53.6011 49.4127 54.173 48.8177C54.7449 48.2228 59.185 45.6947 59.185 45.6947L60.3249 46.0471L57.4876 50.6562L61.0975 56.4652Z" fill="#41BEE6"/>
<path d="M63.1829 62.5676H62.789V56.1434H63.1829V62.5676Z" fill="#364978"/>
<path d="M65.3441 55.018V55.2963C65.3441 55.9414 64.8004 56.4647 64.13 56.4647H61.8403C61.1699 56.4647 60.6262 55.9414 60.6262 55.2963V55.018C60.6262 54.3725 61.1699 53.8496 61.8403 53.8496H64.13C64.8004 53.8496 65.3441 54.3725 65.3441 55.018Z" fill="#364978"/>
<path d="M65.3441 55.018V55.2534H60.6278V55.018C60.6278 54.3725 61.1714 53.8496 61.8419 53.8496H64.13C64.8004 53.8496 65.3441 54.3725 65.3441 55.018Z" fill="#203256"/>
<path d="M70.2997 53.3748C70.2997 53.4755 70.2894 53.576 70.2687 53.6746C70.2063 53.9672 70.0571 54.2341 69.8407 54.4406C69.5423 54.7252 69.1453 54.8831 68.7331 54.8812H57.2388C56.374 54.8812 55.6725 54.2051 55.6725 53.374C55.6724 53.0709 55.7666 52.7752 55.942 52.5281C55.998 52.4488 56.0613 52.3751 56.1312 52.3078C56.4296 52.0231 56.8266 51.8651 57.2388 51.8668H68.7331C69.0207 51.8644 69.3036 51.941 69.5508 52.0882C69.798 52.2355 70.0001 52.4477 70.1352 52.7019C70.2435 52.9096 70.3 53.1405 70.2997 53.3748Z" fill="#B94256"/>
<path d="M70.1351 52.7019C70.0794 52.7813 70.016 52.8551 69.946 52.9222C69.6475 53.2072 69.2504 53.3654 68.8379 53.3636H57.3441C57.0564 53.366 56.7736 53.2893 56.5264 53.1421C56.2792 52.9949 56.0771 52.7826 55.9419 52.5285C55.9979 52.4492 56.0612 52.3755 56.1311 52.3082C56.4296 52.0235 56.8265 51.8655 57.2388 51.8672H68.733C69.0206 51.8647 69.3034 51.9413 69.5506 52.0885C69.7978 52.2356 70 52.4478 70.1351 52.7019Z" fill="#912A40"/>
<path d="M62.9861 66C62.6121 66 62.3105 65.7085 62.3105 65.3486V62.9991C62.3105 62.6392 62.6137 62.3477 62.9861 62.3477C63.3601 62.3477 63.6617 62.6392 63.6617 62.9991V65.3486C63.6629 65.7085 63.3601 66 62.9861 66Z" fill="black"/>
<path d="M57.5237 62.5056H57.0659C57.0659 61.4808 57.9323 60.6472 58.9974 60.6472H59.1198C59.8456 60.6481 60.5582 60.4532 61.1825 60.0829C61.7969 59.7197 62.2975 59.1918 62.628 58.559L62.81 58.2249L63.1915 58.4603L63.0385 58.7554C62.6695 59.4623 62.1103 60.0519 61.4241 60.4575C60.7264 60.8712 59.93 61.0888 59.119 61.0874H58.9966C58.1838 61.0874 57.5237 61.7237 57.5237 62.5056Z" fill="#364978"/>
<path d="M68.9059 62.4909H68.448C68.448 61.709 67.7871 61.0727 66.9744 61.0727H66.8519C66.0409 61.074 65.2446 60.8564 64.5468 60.4428C63.8607 60.0371 63.3015 59.4475 62.9324 58.7407L62.7794 58.4456L63.1733 58.2468L63.3422 58.5459C63.6727 59.1786 64.1734 59.7065 64.7877 60.0698C65.412 60.44 66.1246 60.635 66.8504 60.6341H66.9744C68.0403 60.6325 68.9059 61.466 68.9059 62.4909Z" fill="#364978"/>
<path d="M57.0659 65.9587C58.1064 65.9587 58.9533 65.1438 58.9533 64.1425C58.9533 63.1411 58.1064 62.3266 57.0659 62.3266C56.0254 62.3266 55.1789 63.1415 55.1789 64.1425C55.1789 65.1434 56.0254 65.9587 57.0659 65.9587ZM57.0659 62.9422C57.7539 62.9422 58.3138 63.4807 58.3138 64.1425C58.3138 64.8042 57.7539 65.3431 57.0659 65.3431C56.3779 65.3431 55.8183 64.8046 55.8183 64.1425C55.8183 63.4803 56.3779 62.9422 57.0659 62.9422Z" fill="black"/>
<path d="M68.9353 65.9825C69.9758 65.9825 70.8223 65.168 70.8223 64.1667C70.8223 63.1653 69.9758 62.3509 68.9353 62.3509C67.8948 62.3509 67.0467 63.1653 67.0467 64.1667C67.0467 65.168 67.8944 65.9825 68.9353 65.9825ZM68.9353 62.9661C69.6233 62.9661 70.1829 63.5045 70.1829 64.1667C70.1829 64.8288 69.6233 65.3673 68.9353 65.3673C68.2473 65.3673 67.6874 64.8288 67.6874 64.1667C67.6874 63.5045 68.2469 62.9661 68.9353 62.9661Z" fill="black"/>
<path d="M55.6328 36.9345H56.6196C56.6196 36.9345 56.3764 35.304 56.5338 34.8845C56.6911 34.4649 57.2662 34.1471 57.6863 33.9348C57.8695 33.8413 58.2475 33.5244 58.5356 33.1354C58.352 33.6596 58.0921 34.0899 57.7253 34.2374C56.3776 34.7743 57.1923 36.9337 57.1923 36.9337L58.0695 36.9158L66.813 36.7373L67.5069 36.7229C67.5069 36.7229 68.2648 36.2207 67.65 34.6228C67.131 33.2754 65.7904 33.4484 65.2475 32.7262C65.493 32.9322 65.7808 33.0815 66.0905 33.1637C69.1674 33.9757 67.9501 36.6879 67.9501 36.6879H68.8944C68.8944 36.6879 69.4905 35.4551 68.923 34.4303C68.0792 32.902 66.0953 32.6662 65.2749 31.7547C65.0033 31.4534 64.7536 31.1329 64.5278 30.7959C64.2686 29.9365 63.8418 28.8472 63.1538 28.5247C62.5855 28.2575 61.6607 28.0292 60.1731 28.5569C59.2705 28.8751 58.9808 29.6704 58.9744 30.3763C58.9744 30.3763 58.9744 30.4395 58.9677 30.5489C58.7757 31.2342 58.5153 31.8983 58.1903 32.5314C57.546 33.7566 56.4193 33.6477 55.8641 34.2812C55.3089 34.9147 55.6328 36.9345 55.6328 36.9345Z" fill="#364978"/>
<path d="M58.0682 36.9166L66.8117 36.7381C66.8491 36.5694 66.8912 36.0222 66.8284 35.6059C66.6456 34.4255 65.4883 34.3333 64.722 33.7391C63.9558 33.145 63.3 31.4178 63.3 31.4178L59.4763 31.227C59.4763 31.227 59.5665 34.2116 58.3452 34.8785C57.7148 35.2217 58.0101 36.4438 58.0682 36.9166Z" fill="#1D2F54"/>
<path d="M62.8338 32.3103C62.9849 32.4972 63.4391 32.4005 63.8485 32.0939C64.2579 31.7873 64.4665 31.3876 64.3155 31.2007C64.1645 31.0138 63.7082 31.1108 63.3 31.4179C62.8919 31.7249 62.682 32.1233 62.8338 32.3103Z" fill="#FEC5B2"/>
<path d="M64.0953 36.1837C64.0953 36.1837 63.8378 37.5172 61.787 37.5144C60.8972 37.5144 60.2327 36.4036 60.2327 36.4036C60.2327 36.4036 60.8904 36.1694 60.948 35.7498C60.9663 35.6178 60.9699 35.2893 60.9667 34.9012C60.96 34.0553 60.9194 32.9255 60.9194 32.9255L63.1566 32.434C63.1566 32.434 63.1312 32.7672 63.1097 33.2083C63.0791 33.8334 63.0556 34.6765 63.1228 35.0961C63.2369 35.8119 64.0953 36.1837 64.0953 36.1837Z" fill="#FEC5B2"/>
<path d="M63.1518 32.6109C63.1518 32.6109 62.3287 35.1601 61.3415 35.1211C61.2138 35.1195 61.0867 35.1051 60.9619 35.0781C60.9552 34.2323 60.9146 33.1024 60.9146 33.1024L63.1518 32.6109Z" fill="#ED9487"/>
<path d="M63.3223 31.732C63.3418 33.178 62.5573 34.3599 61.4604 34.3734C60.3634 34.387 59.4589 33.2265 59.4394 31.7801C59.4394 31.7487 59.4394 31.7169 59.4394 31.6859C59.4413 31.5321 59.4536 31.3787 59.4764 31.2266C59.5083 31.0107 59.5622 30.7987 59.6373 30.5939C59.9553 29.7384 60.6162 29.1471 61.3896 29.1375C62.1308 29.1284 62.7528 29.5607 63.0986 30.3362C63.1252 30.3954 63.1506 30.4555 63.1741 30.5207L63.1944 30.5775C63.306 30.8965 63.3188 31.4719 63.3223 31.732Z" fill="#FEC5B2"/>
<path d="M59.5022 31.0782C59.5022 31.0782 59.8531 30.1763 60.8165 30.0387C61.7799 29.9011 61.9536 29.4294 61.9536 29.4294C61.9536 29.4294 61.7632 29.7178 62.1638 30.4153C62.5644 31.1128 63.3903 30.9542 63.3903 30.9542C63.4441 30.6491 63.4096 30.3349 63.2909 30.0488C63.1721 29.7627 62.9741 29.5164 62.7202 29.3392L62.3542 29.0783C62.1108 28.9065 61.8283 28.7987 61.5324 28.7647C61.2366 28.7307 60.937 28.7717 60.6611 28.8838C60.4079 28.9843 60.1831 29.1453 60.0064 29.3527C59.8297 29.5601 59.7064 29.8076 59.6472 30.0737L59.5022 31.0782Z" fill="#364978"/>
<path d="M61.4341 64.5823L56.527 65.8946C56.527 65.8946 56.0898 65.6875 56.3565 64.8925C56.5186 64.4081 57.3123 64.1488 57.9223 63.8875C58.313 63.7205 58.629 63.5519 58.6556 63.3232C58.6675 63.2198 58.2582 62.3628 57.7395 61.3348C57.6509 61.159 57.5595 60.9769 57.4665 60.7956C57.2956 60.4599 57.1199 60.1167 56.9498 59.7842C56.3044 58.5331 55.7229 57.4323 55.7229 57.4323L58.6473 56.388L59.1774 58.279C59.2464 58.5246 59.302 58.7738 59.344 59.0255C59.3507 59.0676 59.3579 59.1094 59.3638 59.1515C59.4942 60.0296 59.7879 61.9488 59.9 62.1596C60.2473 62.8142 60.5414 62.671 60.7437 62.955C60.7938 63.0262 60.8562 63.114 60.9381 63.2373C61.3522 63.8518 61.4341 64.5823 61.4341 64.5823Z" fill="#FEC5B2"/>
<path d="M56.5254 65.8875L61.4329 64.5751C61.4329 64.5751 61.3507 63.8446 60.9365 63.2313C60.8543 63.1096 60.7915 63.0202 60.7418 62.9494C60.4906 62.9931 60.096 63.1084 59.7796 63.4071C59.2741 63.8843 58.7331 64.1722 58.4363 64.1373C58.2463 64.1146 58.0432 63.9758 57.9196 63.878C57.7185 63.9643 57.4971 64.0502 57.2837 64.1444C57.2253 64.1703 57.1677 64.1965 57.1112 64.2239C57.0098 64.2717 56.9109 64.3248 56.8151 64.383C56.7595 64.4178 56.7072 64.4538 56.6581 64.4912C56.5123 64.6045 56.4018 64.733 56.3517 64.8821C56.0894 65.6803 56.5254 65.8875 56.5254 65.8875Z" fill="#FE4C5C"/>
<path d="M57.1709 64.1993L57.8588 63.5904C57.8588 63.5904 58.0086 63.565 58.228 63.6636C58.3594 63.7224 58.472 63.8162 58.5535 63.9348L57.4439 64.5433L57.1709 64.1993Z" fill="#FE4C5C"/>
<path d="M57.1144 64.2267C57.1659 64.3398 57.2347 64.4442 57.3183 64.5361C57.5106 64.7437 57.7984 64.8897 57.8103 64.894L57.8989 64.7314C57.8961 64.7314 57.6299 64.5946 57.4617 64.4132C57.3902 64.3341 57.3316 64.2442 57.2881 64.1468C57.23 64.1722 57.1708 64.1985 57.1144 64.2267Z" fill="white"/>
<path d="M56.6737 64.453C56.725 64.5662 56.7938 64.6706 56.8775 64.7624C57.0699 64.97 57.3576 65.1163 57.3696 65.1203L57.4582 64.9577C57.4554 64.9577 57.1891 64.8205 57.021 64.6395C56.9494 64.5603 56.8908 64.4702 56.8473 64.3727C56.788 64.3992 56.7301 64.426 56.6737 64.453Z" fill="white"/>
<path d="M59.3436 59.0255L56.9487 59.7811C56.3033 58.53 55.7218 57.4292 55.7218 57.4292L58.6461 56.3849L59.1775 58.279C59.2463 58.5247 59.3018 58.7738 59.3436 59.0255Z" fill="#ED9487"/>
<path d="M59.6449 45.0317C59.6449 45.8613 59.1787 46.6256 58.4263 47.0305C56.5413 48.045 53.1079 50.0477 52.8599 51.2984C52.5209 53.0061 56.4936 59.3559 56.4936 59.3559L59.2335 58.4925C59.2335 58.4925 58.2829 53.9414 57.7745 53.253L57.697 53.1481C57.5174 52.9051 57.697 52.5686 58.0074 52.5686C59.5761 52.5686 63.1801 52.5221 64.3108 52.1204C65.7705 51.6034 67.0586 50.2247 66.7943 47.9507C66.6159 46.4141 66.3146 46.2323 66.3146 46.2323L59.6449 45.021V45.0317Z" fill="#67D3F5"/>
<path d="M57.7193 58.9837L58.0722 58.8445C57.244 56.8982 55.7158 52.9409 55.8613 51.8918C55.9825 51.0189 57.8882 50.7131 59.7319 50.4176C60.8396 50.2398 61.985 50.0561 62.7655 49.7368C63.6876 49.3598 64.1963 48.5835 64.236 47.495C64.2499 46.9843 64.1783 46.4749 64.0242 45.9878L63.6622 46.1035C63.8018 46.5524 63.8666 47.0211 63.8541 47.491C63.8164 48.4363 63.3994 49.0782 62.6149 49.3999C61.8765 49.7018 60.7537 49.8819 59.6679 50.0561C57.5981 50.3874 55.6403 50.7015 55.4814 51.8429C55.3979 52.4422 55.7508 53.8313 56.5306 55.9673C57.1073 57.5433 57.7133 58.9694 57.7193 58.9837Z" fill="white"/>
<path d="M59.6449 37.6142C59.6449 37.6142 59.3866 39.4908 59.1775 39.6471C58.6044 40.0742 57.9172 40.5678 57.2265 41.0191C57.1486 41.0706 57.0707 41.1211 56.9928 41.1706C55.9197 41.857 54.8705 42.411 54.2668 42.4229C53.2537 42.4424 49.9173 38.2723 49.9173 38.2723L50.7006 37.3998C50.7006 37.3998 53.7048 39.1265 54.1547 39.4057C54.4627 39.5974 54.7739 39.9788 54.7739 39.9788L55.0231 39.7525C55.2441 39.5517 55.5128 39.3119 55.8104 39.053C56.4996 38.4565 57.3437 37.7526 58.1084 37.187C58.2645 37.0724 58.4442 36.9941 58.6344 36.9578C58.8245 36.9214 59.0204 36.928 59.2077 36.9771C59.509 37.0546 59.4676 37.3366 59.6449 37.6142Z" fill="#FEC5B2"/>
<path d="M50.0512 38.3518C50.0512 38.3518 48.8497 37.5565 48.5676 37.1588C48.2854 36.7611 47.7175 36.0584 47.6829 35.8464C47.6483 35.6345 47.9412 35.7955 47.9412 35.7955C47.9412 35.7955 47.6022 35.31 47.7548 35.1151C47.9074 34.9202 49.5699 36.0656 49.8008 36.2437C50.238 36.5818 50.9136 37.5561 50.8178 37.5243L50.0512 38.3518Z" fill="#FEC5B2"/>
<path d="M50.8179 37.5275C50.8081 37.3182 50.7799 37.1102 50.7336 36.9059C50.6633 36.5655 50.3783 36.2998 50.2428 36.0187C50.0786 35.6786 49.969 35.2547 49.9904 35.1791C50.0079 35.1183 49.8076 35.1617 49.7718 35.2141C49.6764 35.3549 49.7265 35.8107 49.7508 35.9996C49.7865 36.2811 49.7508 36.4124 49.7508 36.4124L50.8179 37.5275Z" fill="#FEC5B2"/>
<path d="M59.6449 37.6142C59.6449 37.6142 59.3866 39.4909 59.1775 39.6471C58.6044 40.0743 57.9172 40.5678 57.2265 41.0192L55.8116 39.0534C56.5008 38.4569 57.3449 37.753 58.1096 37.1875C58.2657 37.0728 58.4454 36.9945 58.6355 36.9582C58.8257 36.9219 59.0216 36.9285 59.2089 36.9775C59.509 37.0546 59.4676 37.3366 59.6449 37.6142Z" fill="#ED9487"/>
<path d="M60.9477 35.7498L60.0706 39.846L59.199 40.2762L58.5106 40.6163L57.8958 40.9197L57.7277 40.6863L56.2687 38.6613L56.1495 38.497C56.1495 38.497 57.1931 37.399 57.895 36.8872C58.9736 36.101 60.9477 35.7498 60.9477 35.7498Z" fill="#FFCE5C"/>
<path d="M59.8508 36.1284L59.623 37.5776L59.3893 39.0637L59.1994 40.2735L58.511 40.6135C58.4752 40.5952 58.3862 40.4353 58.3652 40.2389C58.3254 39.8698 58.3286 39.2741 58.5492 38.843C58.8882 38.1821 58.8596 37.7967 58.8214 37.3195C58.8119 37.2002 58.8703 37.0685 58.9633 36.9357C59.2459 36.5337 59.8508 36.1284 59.8508 36.1284Z" fill="#FFBF2B"/>
<path d="M66.6799 47.1136C66.6799 47.1136 66.0504 47.2786 64.9348 47.1136C64.4531 47.0424 63.9722 46.7557 63.4806 46.4666C62.9508 46.1548 62.4075 45.8394 61.8428 45.7857C61.7151 45.7732 61.5864 45.7753 61.4592 45.7921C60.2153 45.9571 57.8958 46.3978 57.8958 46.3978C57.8958 46.3978 58.1681 45.2683 58.6112 44.3048C59.0543 43.3412 59.7983 41.4414 59.7983 41.4414C59.7983 41.4414 58.924 40.8079 58.8958 39.9545C58.8739 39.3214 59.207 37.0948 59.7268 36.2103L60.9473 35.749C61.619 36.4445 62.7497 36.4847 63.473 35.8389L63.5736 35.749L64.8211 36.1363C64.8211 36.1363 65.0242 36.7687 65.2504 37.5143C64.9074 36.9238 64.5552 36.4068 64.5552 36.4068C64.5552 36.4068 64.6578 38.1693 64.8434 39.523C64.9574 40.3554 65.1029 41.0342 65.2754 41.0505C65.25 41.0962 65.2257 41.14 65.2027 41.1802C65.1796 41.2203 65.1629 41.247 65.147 41.2768C65.0866 41.3806 65.0409 41.4546 65.023 41.4836C65.0473 41.5401 65.0962 41.6693 65.1931 41.9377C65.3306 42.3199 65.7456 43.7715 66.1029 45.0397C66.4133 46.1464 66.6799 47.1136 66.6799 47.1136Z" fill="#FFCE5C"/>
<path d="M65.478 40.9189C65.478 40.9189 64.2658 41.2951 63.4793 41.1666C62.6928 41.0382 62.0255 40.8883 61.4524 41.1933C60.8793 41.4983 60.8991 42.0284 61.9102 42.1394C62.9213 42.2503 64.428 41.972 64.3521 42.4229C64.2762 42.8739 63.341 43.6192 63.3219 44.1727C63.3028 44.7263 65.8397 43.3499 65.8397 43.3499L65.478 40.9189Z" fill="#FFBF2B"/>
<path d="M63.4805 46.4666L61.1781 47.7193C61.1715 47.7243 61.1641 47.7284 61.1563 47.7312C60.9389 47.808 59.9055 49.0551 59.708 49.2448C59.5105 49.4345 59.1194 49.6246 58.898 49.654C58.6767 49.6835 58.5006 49.7467 58.3416 49.7304C58.1827 49.7141 58.1874 49.5952 58.1874 49.5952C57.8516 49.7566 57.7447 49.6349 57.7717 49.5554C57.7987 49.4759 58.4732 48.9867 58.6946 48.861C58.9159 48.7354 59.6484 47.7674 59.6484 47.7674C58.9183 48.0728 58.3114 47.8923 58.8078 47.6704C59.3042 47.4485 59.5264 47.1697 59.9878 47.0524C60.2533 46.9883 60.526 46.9597 60.799 46.9673L60.8785 46.8766C61.0533 46.6817 61.4146 46.265 61.8407 45.7874C62.409 45.8395 62.9507 46.1548 63.4805 46.4666Z" fill="#41BEE6"/>
<path d="M66.1021 45.0401L63.479 46.4666C62.9492 46.1548 62.4059 45.8395 61.8412 45.7858C62.6475 44.8822 63.686 43.7608 64.1363 43.507C64.9185 43.0664 65.0616 43.0664 65.0616 43.0664L64.9288 41.6347L64.8935 41.2466C64.9658 41.2542 65.0524 41.2653 65.1446 41.2784C65.0842 41.3822 65.0385 41.4562 65.0206 41.4852C65.0449 41.5417 65.0938 41.6709 65.1907 41.9394C65.3298 42.32 65.7448 43.7715 66.1021 45.0401Z" fill="#FFBF2B"/>
<path d="M58.1441 49.4297C58.1441 49.4297 58.1366 49.549 58.2983 49.5653C58.4601 49.5816 58.6342 49.5184 58.8548 49.489C59.0753 49.4596 59.466 49.2695 59.6643 49.0794C59.8626 48.8893 60.8964 47.6429 61.1122 47.5682C61.1202 47.5652 61.1277 47.561 61.1344 47.5558L66.2613 44.7673C66.4317 44.6716 66.5744 44.5334 66.6755 44.3661C66.7766 44.1989 66.8328 44.0083 66.8384 43.8129L66.8933 41.4685L66.904 41.0155L66.935 39.696C66.9497 39.0597 66.2935 38.6151 65.6783 38.8366L65.6648 38.8414L65.3492 38.9607L65.1815 39.0239C65.0387 39.0751 64.9167 39.172 64.8345 39.2995C64.7522 39.427 64.7142 39.5781 64.7265 39.7294L64.8878 41.4681L65.0206 42.8998C65.0206 42.8998 64.8775 42.8998 64.0953 43.3404C63.4062 43.7285 61.3431 46.1453 60.8364 46.7084L60.7569 46.7991C60.4835 46.7914 60.2104 46.82 59.9445 46.8842C59.4827 47.0035 59.2617 47.2818 58.7645 47.5022C58.2673 47.7225 58.8746 47.9046 59.6047 47.5992C59.6047 47.5992 58.8726 48.5676 58.6509 48.6928C58.4291 48.8181 57.7547 49.3064 57.728 49.3876C57.7014 49.4687 57.8083 49.592 58.1441 49.4297Z" fill="#FEC5B2"/>
<path d="M64.7265 39.7294L64.8878 41.4681H66.8929L66.9036 41.0152L66.9346 39.6956C66.9493 39.0593 66.2932 38.6147 65.6779 38.8362L65.6644 38.841L65.3489 38.9603L65.1812 39.0236C65.0383 39.0748 64.9164 39.1718 64.8342 39.2994C64.752 39.427 64.7142 39.5781 64.7265 39.7294Z" fill="#ED9487"/>
<path d="M67.2522 41.0151H64.4483L63.7035 38.5197C63.5058 37.8566 63.4383 37.1615 63.5048 36.4728L63.5743 35.7498C63.5743 35.7498 63.9014 35.7896 64.3295 35.8799C64.9789 36.0167 65.86 36.2672 66.1799 36.6653C67.2522 38.0007 67.2522 41.0151 67.2522 41.0151Z" fill="#FFCE5C"/>
<path d="M67.2522 41.0151H66.6763C66.6513 40.5526 66.4931 38.1673 65.8294 37.4236C65.4037 36.9464 64.7798 36.3224 64.3287 35.8798C64.9781 36.0166 65.8592 36.2672 66.1791 36.6652C67.2522 38.0007 67.2522 41.0151 67.2522 41.0151Z" fill="#FFCE5C"/>
<path d="M28.8429 44.0741H30.4573V64.9891H28.8429V44.0741Z" fill="#8EB3DF"/>
<path d="M28.8429 44.0741H29.6501V64.9891H28.8429V44.0741Z" fill="#4D78BA"/>
<path d="M26.7372 43.0859H58.6318V44.0741H26.7372V43.0859Z" fill="#8EB3DF"/>
<path d="M26.7038 43.0859H45.6376V44.0741H26.7038V43.0859Z" fill="#4D78BA"/>
<path d="M54.8133 44.0741H56.4277V64.9891H54.8133V44.0741Z" fill="#8EB3DF"/>
<path d="M54.8133 44.0741H55.6205V64.9891H54.8133V44.0741Z" fill="#4D78BA"/>
</g>
</svg>
