<svg width="271" height="228" viewBox="0 0 271 228" fill="none" xmlns="http://www.w3.org/2000/svg">
<g clip-path="url(#clip0)">
<path d="M180.522 115.906C206.986 108.464 226.345 89.2552 237.927 74.4502C250.499 58.3783 256.88 43.8809 256.939 43.7367L258.062 44.1781C257.999 44.3252 251.576 58.9286 238.923 75.1094C227.231 90.0615 207.671 109.466 180.879 117.001L180.522 115.906Z" fill="#96D9C9"/>
<path d="M256.249 38.3706C253.648 42.205 252.966 46.6397 253.998 50.5374C256.167 50.1415 258.237 49.3167 260.084 48.1112C261.932 46.9056 263.522 45.3435 264.76 43.516C267.362 39.6816 268.042 35.2468 267.012 31.3492C264.843 31.7448 262.773 32.5695 260.925 33.7751C259.077 34.9806 257.487 36.5429 256.249 38.3706Z" fill="#96D9C9"/>
<path d="M257.884 53.4227C253.278 54.8294 249.766 57.8369 247.953 61.4521C251.719 63.3649 256.465 63.8475 261.069 62.4408C265.674 61.0342 269.185 58.0267 271 54.4115C267.234 52.5017 262.49 52.0146 257.884 53.4227Z" fill="#96D9C9"/>
<path d="M254.718 67.005C249.918 66.2826 245.323 67.4464 241.954 69.8786C244.399 73.1818 248.407 75.6435 253.207 76.3659C258.007 77.0883 262.611 75.9245 265.972 73.4908C263.527 70.1847 259.518 67.7275 254.718 67.005Z" fill="#96D9C9"/>
<path d="M244.778 79.7868C239.978 79.0659 235.384 80.2282 232.013 82.6619C234.458 85.9651 238.468 88.4268 243.268 89.1477C248.068 89.8687 252.662 88.7063 256.031 86.2741C253.582 82.9709 249.572 80.5093 244.778 79.7868Z" fill="#96D9C9"/>
<path d="M246.741 59.4274C246.736 57.4544 246.337 55.5024 245.568 53.6859C244.799 51.8694 243.675 50.2252 242.263 48.8497C239.548 51.223 237.834 54.85 237.846 58.9919C237.851 60.9649 238.25 62.917 239.019 64.7334C239.788 66.5499 240.912 68.1942 242.325 69.5696C245.04 67.1963 246.753 63.5635 246.741 59.4274Z" fill="#96D9C9"/>
<path d="M236.362 72.6551C236.39 70.6824 236.024 68.7239 235.285 66.8948C234.547 65.0657 233.451 63.4029 232.062 62.0038C229.307 64.3315 227.533 67.929 227.476 72.071C227.448 74.0438 227.814 76.0023 228.553 77.8314C229.291 79.6606 230.387 81.3234 231.777 82.7223C234.532 80.3946 236.305 76.797 236.362 72.6551Z" fill="#96D9C9"/>
<path d="M228.343 92.8012C227.49 92.3634 226.558 92.1009 225.602 92.0291C224.646 91.9573 223.685 92.0778 222.776 92.3833C223.196 94.0886 224.382 95.6395 226.173 96.5561C227.026 96.9939 227.958 97.2564 228.914 97.3282C229.87 97.4 230.831 97.2795 231.74 96.974C231.32 95.2687 230.134 93.7178 228.343 92.8012Z" fill="#96D9C9"/>
<path d="M145.03 157.1C145.03 157.1 161.545 54.8397 178.025 54.8044C193.05 54.7764 174.991 92.6732 176.8 100.82C178.609 108.967 193.207 75.8671 208.126 60.4736C223.045 45.0801 232.175 53.5743 223.528 72.2446C215.168 90.2984 184.887 111.452 191.66 113.262C198.433 115.072 236.456 89.9247 242.186 99.1929C249.211 110.556 190.648 130.617 196.523 132.887C202.399 135.158 230.297 124.511 230.297 133.564C230.297 142.618 191.747 144.879 192.75 148.793C194.366 155.132 229.893 141.817 231.784 150.61C233.718 159.605 187.608 157.378 188.823 164.41C189.522 168.454 233.39 163.314 234.975 168.871C238.591 181.541 139.607 188.336 139.607 188.336L145.03 157.1Z" fill="#3C8F7C"/>
<path d="M79.7469 175.122C79.7469 175.122 47.1734 146.487 42.9185 148.637C38.6635 150.787 10.0585 136.975 7.50055 144.471C4.36516 153.665 47.6495 161.822 44.0542 164.206C40.4589 166.589 18.783 161.601 20.0039 168.243C21.2249 174.885 47.1044 171.849 46.9648 174.844C46.7385 179.699 21.3806 174.255 21.3072 180.931C21.2308 187.765 51.5298 180.513 51.6664 185.823C51.7458 188.875 33.1538 189.29 32.8423 193.56C32.1444 203.299 93.0407 200.943 93.0407 200.943L79.7469 175.122Z" fill="#3C8F7C"/>
<path d="M189.943 184.63C206.043 192.022 223.553 190.662 235.406 188.227C248.274 185.579 257.445 181.119 257.534 181.075L257.903 181.759C257.812 181.805 248.576 186.3 235.623 188.969C223.653 191.433 205.962 192.794 189.662 185.317L189.943 184.63Z" fill="#96D9C9"/>
<path d="M259.43 178.15C256.554 178.949 254.374 180.842 253.259 183.188C254.489 183.899 255.849 184.358 257.259 184.538C258.669 184.717 260.1 184.613 261.469 184.233C264.344 183.434 266.525 181.54 267.64 179.194C266.409 178.483 265.049 178.025 263.64 177.845C262.23 177.666 260.799 177.769 259.43 178.15Z" fill="#96D9C9"/>
<path d="M253.965 186.228C251.117 184.996 248.14 185.009 245.738 186.028C246.793 188.538 248.922 190.758 251.77 191.99C254.619 193.221 257.596 193.208 259.998 192.19C258.943 189.679 256.816 187.453 253.965 186.228Z" fill="#96D9C9"/>
<path d="M246.756 191.581C244.699 189.226 241.954 187.877 239.288 187.662C239.114 190.311 240.059 193.19 242.117 195.549C244.176 197.907 246.919 199.252 249.586 199.466C249.759 196.822 248.814 193.939 246.756 191.581Z" fill="#96D9C9"/>
<path d="M235.484 192.474C233.85 190.608 231.487 189.705 229.079 189.791C228.65 192.138 229.216 194.582 230.842 196.448C232.469 198.314 234.839 199.218 237.247 199.132C237.682 196.785 237.116 194.341 235.484 192.474Z" fill="#96D9C9"/>
<path d="M246.944 181.327C247.276 180.099 247.36 178.818 247.191 177.558C247.022 176.298 246.602 175.084 245.958 173.989C243.867 175.001 242.186 176.964 241.49 179.54C241.158 180.767 241.074 182.049 241.243 183.309C241.412 184.569 241.831 185.783 242.476 186.878C244.567 185.864 246.247 183.903 246.944 181.327Z" fill="#96D9C9"/>
<path d="M239.361 183.026C239.693 181.799 239.777 180.518 239.608 179.258C239.439 177.998 239.02 176.785 238.375 175.69C236.284 176.702 234.604 178.665 233.907 181.24C233.575 182.467 233.491 183.748 233.661 185.008C233.83 186.268 234.249 187.482 234.893 188.578C236.991 187.565 238.665 185.602 239.361 183.026Z" fill="#96D9C9"/>
<path d="M223.058 193.243C222.821 192.672 222.472 192.154 222.032 191.719C221.592 191.285 221.07 190.943 220.496 190.714C220.237 191.253 220.097 191.842 220.085 192.441C220.073 193.039 220.19 193.633 220.428 194.182C220.665 194.753 221.014 195.271 221.454 195.705C221.894 196.14 222.416 196.482 222.989 196.711C223.249 196.172 223.389 195.583 223.401 194.985C223.413 194.386 223.296 193.792 223.058 193.243Z" fill="#96D9C9"/>
<path d="M87.7 150.255L86.4805 150.182C88.2363 120.965 76.4014 93.4721 66.1489 75.5552C55.031 56.1109 43.3431 43.4277 43.227 43.3026L44.1218 42.4698C44.2393 42.5964 56.0066 55.362 67.1892 74.921C77.5283 92.991 89.4778 120.726 87.7 150.255Z" fill="#96D9C9"/>
<path d="M37.9304 41.6282C40.722 45.8761 44.7139 48.5128 48.7735 49.2367C49.4596 44.8137 48.4664 39.8361 45.688 35.5882C42.9097 31.3403 38.9045 28.7051 34.8449 27.9812C34.1514 32.4027 35.1461 37.3803 37.9304 41.6282Z" fill="#96D9C9"/>
<path d="M52.8227 46.7177C52.6244 51.8484 54.3184 56.6186 57.1556 59.9968C60.2337 57.163 62.2847 52.7371 62.4831 47.6064C62.6814 42.4757 60.9889 37.7055 58.1503 34.3257C55.0722 37.1611 53.0211 41.587 52.8227 46.7177Z" fill="#96D9C9"/>
<path d="M64.709 55.8476C62.4968 60.0813 61.9505 64.9919 63.178 69.6094C67.1451 68.6868 70.83 65.8588 73.1235 61.4829C75.3347 57.2489 75.8799 52.3383 74.6515 47.7212C70.6889 48.6452 66.9981 51.4732 64.709 55.8476Z" fill="#96D9C9"/>
<path d="M72.8751 78.2905C71.8146 79.9949 71.4318 82.0361 71.8026 84.0097C73.4922 83.7478 75.126 82.6781 76.2236 80.9198C77.2827 79.2154 77.6654 77.1752 77.2961 75.2021C75.6065 75.461 73.9741 76.5307 72.8751 78.2905Z" fill="#96D9C9"/>
<path d="M76.4014 86.3477C75.3409 88.0517 74.9581 90.0923 75.3288 92.0655C77.0185 91.8036 78.6523 90.7413 79.7498 88.9756C80.8102 87.2717 81.193 85.231 80.8224 83.2578C79.1312 83.5183 77.4974 84.5865 76.4014 86.3477Z" fill="#96D9C9"/>
<path d="M49.6036 60.2131C47.649 60.2276 45.7219 60.6763 43.9614 61.5269C42.2009 62.3775 40.6509 63.6088 39.4231 65.1319C40.7702 66.6113 42.4138 67.7895 44.2465 68.5894C46.0793 69.3893 48.0599 69.793 50.0591 69.7741C52.0139 69.7597 53.9411 69.3109 55.7016 68.46C57.4621 67.6091 59.0121 66.3774 60.2395 64.8538C58.8922 63.3749 57.2485 62.1972 55.4158 61.3975C53.5831 60.5979 51.6026 60.1943 49.6036 60.2131Z" fill="#96D9C9"/>
<path d="M56.3578 71.6031C54.4031 71.6171 52.4759 72.0656 50.7153 72.9163C48.9548 73.7669 47.4048 74.9984 46.1773 76.5219C47.5244 78.0013 49.168 79.1794 51.0007 79.9794C52.8335 80.7793 54.8141 81.183 56.8133 81.1641C58.7688 81.1503 60.6969 80.7018 62.4582 79.8509C64.2196 79 65.7702 77.768 66.9982 76.2438C65.6504 74.7642 64.006 73.586 62.1725 72.7863C60.339 71.9866 58.3576 71.5834 56.3578 71.6031Z" fill="#96D9C9"/>
<path d="M67.5344 87.1231C66.2623 87.1323 65.0081 87.4243 63.8625 87.978C62.7168 88.5317 61.7082 89.3333 60.9095 90.3248C61.7861 91.2877 62.8557 92.0545 64.0484 92.575C65.2412 93.0955 66.5302 93.3581 67.8312 93.3456C69.1035 93.3366 70.358 93.0448 71.5039 92.4911C72.6499 91.9374 73.6587 91.1357 74.4575 90.1439C73.5804 89.1813 72.5105 88.4148 71.3175 87.8943C70.1246 87.3738 68.8355 87.111 67.5344 87.1231Z" fill="#96D9C9"/>
<path d="M116.486 197.822C116.486 197.822 85.3007 124.292 81.5658 107.606C77.831 90.9208 93.0525 101.426 93.0525 101.426C93.0525 101.426 75.464 68.1247 82.2049 59.3303C88.9459 50.5359 98.7135 59.2568 98.7135 59.2568C98.7135 59.2568 98.9427 22.5283 107.063 21.3085C122.189 19.0396 124.376 59.0522 124.376 59.0522C124.376 59.0522 126.321 41.7268 134.954 45.1183C147.963 50.2343 134.284 86.4037 134.284 86.4037C134.284 86.4037 149.858 84.1083 156.228 91.2445C167.661 104.047 116.486 197.822 116.486 197.822Z" fill="#50BFA5"/>
<path d="M126.391 192.025C126.391 192.025 66.481 181.993 53.4501 171.362C40.4193 160.732 53.3164 155.938 53.3164 155.938C53.3164 155.938 23.2216 140.488 23.5698 129.983C23.918 119.477 38.8692 124.817 38.8692 124.817C38.8692 124.817 13.5172 95.8602 19.5147 90.3602C30.6957 80.1164 60.0118 110.224 60.0118 110.224C60.0118 110.224 51.3079 95.9072 60.4746 93.6428C74.3003 90.2263 84.5043 125.525 84.5043 125.525C84.5043 125.525 81.9126 111.58 91.4451 113.443C108.55 116.77 126.391 192.025 126.391 192.025Z" fill="#50BFA5"/>
<path d="M91.4451 113.443C81.9331 111.482 84.5043 125.526 84.5043 125.526C84.5043 125.526 74.3003 90.2219 60.4746 93.6384C51.3079 95.9028 60.0118 110.219 60.0118 110.219C60.0118 110.219 30.6957 80.1164 19.5147 90.3557L126.183 192.038C124.29 182.332 103.308 115.883 91.4451 113.443Z" fill="#3C8F7C"/>
<path d="M143.873 199.666C143.873 199.666 165.438 177.685 176.311 175.388C187.183 173.091 185.225 180.832 185.225 180.832C185.225 180.832 206.776 161.943 211.773 166.516C216.77 171.089 211.369 175.507 211.369 175.507C211.369 175.507 229.325 172.313 231.897 178.213C235.851 187.28 206.32 192.226 206.32 192.226C206.32 192.226 218.696 193.081 215.828 198.768C211.5 207.355 143.873 199.666 143.873 199.666Z" fill="#50BFA5"/>
<path d="M231.893 178.223C229.32 172.323 211.364 175.518 211.364 175.518C211.364 175.518 216.767 171.103 211.768 166.526C206.77 161.949 185.889 178.275 185.889 178.275C185.889 178.275 190.811 168.845 179.946 171.137C169.081 173.43 143.873 199.666 143.873 199.666L231.893 178.223Z" fill="#96D9C9"/>
<path d="M120.605 86.1653C112.445 89.9908 112.311 137.897 113.441 141.518C113.723 142.423 124.954 142.36 125.93 142.487L122.061 125.691C122.061 125.691 122.427 114.498 123.016 103.767C123.59 93.3029 122.549 85.2545 120.605 86.1653Z" fill="#F7A491"/>
<path d="M10.3627 202.114C10.3627 202.929 11.0973 203.585 11.9877 203.585H258.529C259.425 203.585 260.153 202.925 260.153 202.114C260.153 201.299 259.418 200.643 258.529 200.643H11.9877C11.09 200.638 10.3627 201.299 10.3627 202.114Z" fill="#184655"/>
<path d="M160.493 58.6388C159.741 51.7498 158.949 44.8373 153.246 39.7875C148.632 35.7015 142.765 35.01 136.964 37.1964C120.528 43.3894 129.001 58.0076 108.037 72.7478C101.526 77.3267 95.7824 79.7722 90.8794 85.9387C84.0165 94.5713 86.3953 104.316 92.6499 111.246C122.577 144.417 154.769 100.947 157.166 90.1954C158.952 82.197 160.978 63.072 160.493 58.6388Z" fill="#13375B"/>
<path d="M123.519 114.503C123.448 115.363 122.637 118.147 122.564 118.852C118.891 118.48 114.129 118.599 110.516 118.952C109.3 106.223 115.688 83.5757 124.349 84.0274C126.45 84.1377 124.392 103.61 123.519 114.503Z" fill="#B75742"/>
<path d="M162.473 156.453C155.245 160.299 126.832 156.366 126.832 156.366C126.143 149.125 123.773 130.705 122.163 115.131C123.036 104.243 125.666 91.5167 124.367 84.0274C124.348 83.9185 135.586 83.1357 135.586 83.1357L147.246 83.43C147.246 83.43 157.384 84.2466 160.616 86.3639C160.841 86.5111 162.798 103.819 161.122 117.763C158.619 138.564 162.473 156.453 162.473 156.453Z" fill="#F47458"/>
<path d="M126.477 152.885L101.014 174.782C101.014 174.782 151.176 201.031 168.575 196.052L173.321 172.292L161.881 153.142L126.477 152.885Z" fill="#355389"/>
<path d="M123.158 181.796C123.158 181.796 103.951 178.853 92.4281 188.132C80.9047 197.41 73.4467 215.966 79.3223 218.907C85.1978 221.848 102.369 218.454 115.927 213.476C129.486 208.498 134.23 184.511 123.158 181.796Z" fill="#13375B"/>
<path d="M80.2215 201.031C78.6214 204.492 80.0363 207.8 82.6883 209.621C85.9853 211.877 131.347 218.523 146.864 220.634C158.963 222.281 177.157 226.148 182.126 227.052C187.095 227.957 204.606 228.278 204.948 227.732C205.877 226.234 203.818 223.433 200.204 222.528C196.59 221.623 194.104 222.301 187.098 217.549C180.093 212.796 177.382 216.644 175.573 217.775C173.765 218.907 94.4556 192.206 94.4556 192.206C94.4556 192.206 83.8006 193.298 80.2215 201.031Z" fill="#F48C7F"/>
<path d="M124.287 157.131C124.287 157.131 89.1839 173.622 81.7891 178.393C67.912 187.359 75.8166 213.163 77.781 217.247C77.781 217.247 81.8067 194.242 94.4614 192.206L96.7212 181.344L124.287 157.131Z" fill="#355389"/>
<path d="M159.536 161.431C159.536 161.431 110.052 148.079 91.5244 165.278C91.5244 165.278 82.8441 173.263 86.0074 182.767C87.7999 188.152 94.4615 192.206 94.4615 192.206C94.4615 192.206 111.634 177.492 118.638 179.993C125.642 182.495 152.832 201.683 160.659 200.812C172.868 199.447 187.104 171.387 159.536 161.431Z" fill="#466EB6"/>
<path d="M128.49 183.522C123.228 180.873 110.731 175.008 102.369 177.489C94.0075 179.97 90.7031 186.747 94.4615 192.203C96.6654 195.4 169.705 217.319 173.095 219.357C176.484 221.395 190.494 224.335 194.787 224.335C199.08 224.335 206.982 225.92 207.666 224.788C208.351 223.657 204.503 219.809 199.757 218.903C195.012 217.996 188.46 211.662 185.748 209.399C183.036 207.136 179.871 207.363 177.162 208.267C174.452 209.172 140.678 189.66 128.49 183.522Z" fill="#F7A491"/>
<path d="M161.783 113.673C161.783 120.588 155.046 122.423 142.389 122.423C129.731 122.423 119.479 116.817 119.479 109.9C119.479 102.983 127.889 93.2558 140.542 93.2558C153.195 93.2558 161.783 106.757 161.783 113.673Z" fill="#F47458"/>
<path d="M138.309 65.9647C138.309 65.9647 138.065 67.7186 137.686 70.1376C136.995 74.5649 135.755 83.1735 135.755 83.1735C135.755 83.1735 134.752 84.5278 134.337 86.0816C133.54 89.0664 136.035 91.5769 138.989 92.4796C142.014 93.404 144.567 92.0365 146.549 89.5714C148.036 87.7237 148.093 86.1461 148.294 83.7551C148.492 81.3877 148.811 74.6929 149.234 69.293C149.463 66.3694 149.629 64.2388 149.629 64.2388L138.309 65.9647Z" fill="#F7A491"/>
<path d="M149.254 69.1944C149.472 66.3355 149.629 64.2388 149.629 64.2388L138.316 65.9647C138.316 65.9647 138.031 67.6156 137.715 69.9492C142.298 72.6154 146.425 71.7737 149.254 69.1944Z" fill="#F47458"/>
<path d="M141.86 40.3069C141.86 40.3069 137.396 41.3133 134.641 45.5244C131.886 49.7355 129.995 62.1304 139.071 67.9158C148.147 73.7013 155.202 65.5175 155.32 57.5353C155.437 49.5531 153.728 38.8988 141.86 40.3069Z" fill="#F7A491"/>
<path d="M157.396 55.0368C156.623 56.9628 155.086 58.1591 153.965 57.7074C152.844 57.2557 152.565 55.3282 153.339 53.4007C154.113 51.4731 155.649 50.2799 156.77 50.7316C157.891 51.1833 158.17 53.1167 157.396 55.0368Z" fill="#F7A491"/>
<path d="M143.198 40.045C143.198 40.045 137.509 52.8224 132.511 53.9642C127.512 55.106 127.586 61.5359 127.586 61.5359C127.586 61.5359 127.698 46.6868 132.38 43.282C137.063 39.8773 143.198 40.045 143.198 40.045Z" fill="#13375B"/>
<path d="M134.497 56.6201C135.155 58.6947 134.553 60.7399 133.151 61.1813C131.75 61.6227 130.082 60.3059 129.425 58.2297C128.769 56.1536 129.37 54.1099 130.77 53.6685C132.17 53.2271 133.839 54.5454 134.497 56.6201Z" fill="#F7A491"/>
<path d="M115.913 126.55C121.937 129.572 121.856 125.364 127.793 122.963C134.236 120.357 133.547 111.516 129.318 109.297C128.241 108.732 125.538 108.779 124.323 108.443C118.811 106.922 115.025 102.752 112.676 107.452C109.809 113.186 109.884 123.528 115.913 126.55Z" fill="#F48C7F"/>
<path d="M119.987 128.423C120.11 133.201 122.233 134.528 126.801 137.575C131.369 140.622 139.651 142 143.623 143.166C155.685 146.689 161.254 144.049 160.629 135.721C160.005 127.393 161.135 127.197 152.306 123.197C143.874 119.371 143.05 122.797 136.219 121.977C129.389 121.157 119.828 122.338 119.987 128.423Z" fill="#466EB6"/>
<path d="M123.607 118.096C124.286 113.452 123.019 108.34 118.995 107.886C119.791 107.018 117.137 100.875 110.569 102.24C105.753 103.241 101.618 107.096 101.276 111.243C101.129 113.108 100.435 115.769 100.656 117.626C101.122 121.555 100.912 123.06 104.001 126.437C109.662 132.624 120.514 131.173 125.025 127.792C128.91 124.882 128.403 119.623 123.607 118.096Z" fill="#F7CC7F"/>
<path d="M142.183 123.007C144.603 119.408 146.557 115.385 146.323 113.64C145.937 110.742 144.901 105.48 141.494 100.517C141.401 100.382 140.554 99.1149 140.44 98.4689C140.248 97.3669 139.668 95.6615 139.128 95.6615C138.763 95.6615 139.5 97.1771 139.422 98.2203C138.742 96.4443 138.247 95.4055 137.994 95.4864C137.614 95.6071 138.122 97.0329 138.435 98.3762C138.118 97.8215 136.688 95.0789 136.231 95.5218C135.84 95.9028 136.7 97.6965 137.351 98.9059C136.8 98.3512 135.133 95.7675 134.768 96.4546C134.61 96.7489 135.167 97.9716 135.46 98.4101C136.163 99.4592 136.739 100.778 136.578 101.081C136.484 101.259 135.714 100.848 134.982 100.848C134.427 100.848 134.19 101.195 134.622 101.771C134.819 102.034 135.889 102.181 137.08 102.603C137.953 102.912 138.646 103.001 138.604 103.633C138.457 105.948 139.701 112.315 139.795 113.372C139.299 113.667 137.282 114.751 134.988 116.18C137.02 118.814 139.447 121.117 142.183 123.007Z" fill="#F48C7F"/>
<path d="M134.616 115.684C131.312 117.744 127.797 121.019 127.054 123.223C124.859 129.736 132.508 131.757 136.444 129.403C138.084 128.419 140.277 125.847 142.183 123.011C140.241 119.707 137.628 117.595 134.616 115.684Z" fill="#9BC1F9"/>
<path d="M157.679 141.002C163.735 137.799 159.329 121.753 159.329 121.753C159.329 121.753 170.055 129.8 172.339 127.15C174.624 124.5 174.054 115.075 173.434 114.573C172.814 114.071 172.573 115.477 172.573 115.477C172.573 115.477 172.311 114.695 171.81 114.273C171.309 113.851 170.989 115.378 170.989 115.378C170.989 115.378 171.21 113.873 170.128 114.201C169.047 114.529 170.049 116.408 169.648 115.446C169.247 114.483 167.523 114.202 168.105 116.068C168.687 117.934 169.817 121.458 167.692 120.737C165.568 120.016 163.935 117.127 160.909 114.501C159.194 113.012 154.99 111.205 152.266 112.267C150.182 113.078 148.532 115.693 147.934 118.344C146.554 124.464 147.503 133.664 150.066 137.843C151.144 139.595 155.136 142.348 157.679 141.002Z" fill="#F48C7F"/>
<path d="M160.653 86.3698C159.783 85.8784 154.885 129.149 154.434 133.145H154.401C154.401 133.145 144.384 132.372 134.616 130.632L133.015 140.016C145.02 144.83 160.28 149.863 163.841 146.723C172.721 138.883 172.253 92.9292 160.653 86.3698Z" fill="#F7A491"/>
<path d="M170.011 128.451C170.745 118.09 170.059 105.231 167.253 96.3531C165.707 91.4607 163.264 87.8412 160.653 86.3624C159.958 85.9696 156.228 113.528 154.711 126.658C159.414 126.919 165.349 127.715 170.011 128.451Z" fill="#B75742"/>
<path d="M162.196 144.783C164.591 144.454 170.738 138.423 164.389 141.592C158.041 144.761 149.667 142.437 151.313 141.055C152.958 139.673 156.291 138.723 155.079 137.887C153.866 137.051 149.689 139.467 146.116 140.477C145.467 140.661 143.113 142.812 141.246 142.389C140.246 142.163 113.845 130.939 107.911 127.711C107.911 127.711 110.225 140.883 110.409 140.981C131.103 151.846 142.342 150.158 148.983 150.182C155.624 150.205 161.912 148 162.692 146.862C163.472 145.725 155.687 147.466 155.687 147.466C155.687 147.466 157.891 147.273 160.131 146.943C162.504 146.596 166.06 144.813 166.008 144.223C165.957 143.633 162.491 145.106 160.131 145.384C157.772 145.662 155.237 146.146 155.237 145.958C155.23 145.656 159.799 145.112 162.196 144.783Z" fill="#F48C7F"/>
<path d="M104.536 119.895C102.698 118.322 99.7479 109.007 103.381 115.112C107.015 121.216 115.313 123.793 114.674 121.733C114.035 119.673 111.736 117.076 113.214 117.024C114.692 116.973 116.897 121.271 119.36 124.053C119.8 124.559 120.627 127.643 122.427 128.297C123.39 128.647 147.891 132.711 154.626 133.202C154.626 133.202 141.403 141.464 141.194 141.424C138.256 140.867 135.978 139.819 133.554 139.236C122.896 136.664 116.27 133.583 111.708 130.671C106.11 127.1 102.011 121.843 101.962 120.462C101.914 119.08 107.538 124.773 107.538 124.773C107.538 124.773 105.792 123.422 104.079 121.929C102.271 120.353 100.596 116.371 100.959 115.896C101.321 115.421 103.043 118.868 104.876 120.384C106.708 121.899 108.631 123.899 108.732 123.74C108.895 123.488 106.374 121.468 104.536 119.895Z" fill="#F7A491"/>
<path d="M179.396 22.8372C180.27 22.5147 181.207 22.3965 182.133 22.4919C183.06 22.5873 183.953 22.8936 184.743 23.3875C187.175 24.8972 187.577 27.9929 186.095 30.3854C184.379 33.1545 180.071 35.0129 172.372 34.1786C168.208 27.6472 167.954 22.952 169.668 20.1814C171.151 17.789 174.098 16.7752 176.53 18.2848C177.323 18.7743 177.993 19.4391 178.49 20.2281C178.987 21.0172 179.297 21.9097 179.396 22.8372Z" fill="#96D9C9"/>
<path d="M36.4905 4.9321C36.4401 4.19038 36.5594 3.44693 36.8395 2.75845C37.1196 2.06996 37.553 1.45463 38.1067 0.959381C39.8169 -0.567907 42.2691 -0.182407 43.7663 1.49202C45.4971 3.42982 45.9496 7.15387 43.5826 12.8643C37.6542 14.5902 34.0075 13.7309 32.2693 11.7931C30.7736 10.1202 30.6605 7.63207 32.3604 6.10625C32.9134 5.60745 33.5733 5.24225 34.2893 5.03871C35.0052 4.83516 35.7583 4.79869 36.4905 4.9321Z" fill="#96D9C9"/>
<path d="M43.7663 1.492C42.2691 -0.182424 39.8169 -0.567924 38.1126 0.956421C37.5589 1.45167 37.1255 2.067 36.8454 2.75549C36.5653 3.44397 36.4459 4.18742 36.4964 4.92914C36.4964 4.92914 43.5679 12.8613 43.5885 12.8613C45.9496 7.15386 45.497 3.4298 43.7663 1.492Z" fill="#50BFA5"/>
<path d="M77.2389 25.265C77.2957 24.5228 77.5213 23.8035 77.8984 23.1621C78.2756 22.5207 78.7943 21.9742 79.4148 21.5645C81.3249 20.3021 83.6933 21.0392 84.9319 22.9108C86.3674 25.0782 86.2778 28.8287 83.1144 34.1389C76.9994 34.9908 73.5143 33.6136 72.0788 31.4463C70.8402 29.5732 71.0856 27.0954 72.9883 25.833C73.6066 25.4199 74.3111 25.1539 75.0478 25.0555C75.7846 24.957 76.534 25.0287 77.2389 25.265Z" fill="#50BFA5"/>
<path d="M84.9319 22.9108C83.6933 21.0392 81.3175 20.3021 79.4148 21.5645C78.7943 21.9742 78.2756 22.5207 77.8984 23.1621C77.5213 23.8035 77.2957 24.5228 77.2389 25.265C77.2389 25.265 83.1159 34.1359 83.1159 34.1389C86.2777 28.8287 86.3673 25.0782 84.9319 22.9108Z" fill="#96D9C9"/>
<path d="M143.953 13.4734C144.382 12.8777 144.941 12.3881 145.587 12.042C146.234 11.6959 146.951 11.5026 147.684 11.4768C149.933 11.39 151.557 13.2321 151.641 15.4495C151.739 18.0126 149.741 21.126 144.356 23.9717C138.773 21.5469 136.538 18.5953 136.44 16.0263C136.356 13.8118 137.832 11.8505 140.083 11.7593C140.816 11.73 141.546 11.8692 142.217 12.1664C142.888 12.4635 143.482 12.9106 143.953 13.4734Z" fill="#86B1F2"/>
<path d="M151.641 15.4495C151.557 13.2424 149.933 11.3929 147.684 11.4768C146.951 11.5027 146.234 11.6963 145.587 12.0426C144.941 12.389 144.382 12.8789 143.953 13.4749C143.953 13.4749 144.354 23.9702 144.356 23.9687C149.741 21.1216 151.739 18.0082 151.641 15.4495Z" fill="#9BC1F9"/>
<path d="M17.017 63.2883C16.7745 62.4538 16.7261 61.5748 16.8753 60.7186C17.0246 59.8625 17.3675 59.0519 17.8779 58.3489C19.4383 56.186 22.3371 56.0139 24.4617 57.5514C26.9183 59.3289 28.3596 63.4664 27.0799 70.5717C20.7445 74.0191 16.3705 73.947 13.9124 72.1681C11.7893 70.6261 11.043 67.8216 12.6033 65.6587C13.1096 64.9525 13.7705 64.3717 14.5356 63.9608C15.3006 63.55 16.1494 63.3199 17.017 63.2883Z" fill="#86B1F2"/>
<path d="M24.4617 57.5514C22.3371 56.0139 19.4383 56.186 17.8779 58.3489C17.3675 59.0519 17.0246 59.8625 16.8753 60.7186C16.7261 61.5748 16.7745 62.4538 17.0169 63.2883L27.0799 70.5717C28.3567 63.4664 26.9183 59.3289 24.4617 57.5514Z" fill="#9BC1F9"/>
<path d="M240.166 128.105C240.166 128.105 241.766 127.549 243.143 128.662C244.37 129.653 244.29 131.487 243.212 132.826C241.963 134.375 239.333 135.275 235.056 134.444C233.346 130.432 233.669 127.667 234.918 126.118C235.996 124.779 237.768 124.314 238.995 125.305C240.37 126.424 240.166 128.105 240.166 128.105Z" fill="#86B1F2"/>
<path d="M2.41986 133.549C2.41986 133.549 1.38257 132.209 1.99525 130.548C2.54181 129.066 4.30198 128.557 5.91376 129.153C7.77824 129.842 9.47083 132.05 10.0556 136.373C6.80559 139.278 4.086 139.854 2.22151 139.169C0.605332 138.58 -0.396701 137.04 0.149862 135.558C0.762542 133.895 2.41986 133.549 2.41986 133.549Z" fill="#86B1F2"/>
<path d="M259.471 157.087C259.471 157.087 261.069 156.529 262.446 157.642C263.673 158.635 263.594 160.467 262.515 161.806C261.268 163.355 258.636 164.257 254.359 163.424C252.649 159.412 252.972 156.647 254.221 155.098C255.3 153.76 257.072 153.294 258.298 154.286C259.681 155.404 259.471 157.087 259.471 157.087Z" fill="#86B1F2"/>
<path d="M265.42 133.817C265.42 133.817 267.018 133.26 268.395 134.372C269.622 135.364 269.543 137.197 268.464 138.536C267.215 140.085 264.585 140.987 260.308 140.154C258.598 136.143 258.921 133.377 260.17 131.828C261.249 130.491 263.021 130.024 264.247 131.016C265.624 132.13 265.42 133.817 265.42 133.817Z" fill="#86B1F2"/>
</g>
<defs>
<clipPath id="clip0">
<rect width="271" height="228" fill="white"/>
</clipPath>
</defs>
</svg>
